<svg xmlns="http://www.w3.org/2000/svg" xmlns:xlink="http://www.w3.org/1999/xlink" width="1240" height="542.661" viewBox="0 0 1240 542.661">
  <defs>
    <clipPath id="clip-path">
      <path id="Rectangle_652" data-name="Rectangle 652" d="M1212.617,0H19.4C8.687,0,0,9,0,20.1V522.563c0,11.1,8.687,20.1,19.4,20.1H1212.617c10.715,0,19.4-9,19.4-20.1V20.1C1232.019,9,1223.333,0,1212.617,0Z" transform="translate(154.616 71.309)" fill="none"/>
    </clipPath>
  </defs>
  <g id="fondo-slider" transform="translate(-180 -6022.871)">
    <rect id="Rectángulo_37304" data-name="Rectángulo 37304" width="1240" height="542" rx="41" transform="translate(180 6022.871)" fill="#dde9ff"/>
    <g id="Enmascarar_grupo_141209" data-name="Enmascarar grupo 141209" transform="translate(25.384 5951.563)" opacity="0.167" clip-path="url(#clip-path)">
      <path id="Trazado_183790" data-name="Trazado 183790" d="M1197.046,0a14.71,14.71,0,0,1,12.481,6.624l394.121,624.52a12.467,12.467,0,0,1,0,13.438L1209.527,1269.1a14.71,14.71,0,0,1-12.481,6.624H408.566a14.709,14.709,0,0,1-12.481-6.624L1.965,644.581a12.467,12.467,0,0,1,0-13.437L396.086,6.624A14.709,14.709,0,0,1,408.567,0Z" transform="translate(1765.596 -1288.008) rotate(90)" fill="#48c2f9" opacity="0.223" style="mix-blend-mode: multiply;isolation: isolate"/>
      <path id="Polígono_84" data-name="Polígono 84" d="M167.81,0a13,13,0,0,1,11.026,6.113l50.219,80.4a13,13,0,0,1,0,13.774l-50.219,80.4a13,13,0,0,1-11.026,6.113H65.547a13,13,0,0,1-11.026-6.113L4.3,100.283a13,13,0,0,1,0-13.774l50.219-80.4A13,13,0,0,1,65.547,0Z" transform="translate(259.406 342.104) rotate(90)" fill="#48c2f9" opacity="0.552" style="mix-blend-mode: multiply;isolation: isolate"/>
      <path id="Trazado_183791" data-name="Trazado 183791" d="M164.443,0a14.7,14.7,0,0,1,12.513,6.675L226.96,86.728a12.465,12.465,0,0,1,0,13.335l-50.005,80.053a14.7,14.7,0,0,1-12.513,6.675H64.451a14.7,14.7,0,0,1-12.513-6.675L1.933,100.063a12.465,12.465,0,0,1,0-13.335L51.938,6.675A14.7,14.7,0,0,1,64.451,0Z" transform="translate(1495.104 -23.479) rotate(90)" fill="#48c2f9" opacity="0.552" style="mix-blend-mode: multiply;isolation: isolate"/>
      <path id="Polígono_85" data-name="Polígono 85" d="M1199.614,0a13,13,0,0,1,11,6.069l394.071,625.375a13,13,0,0,1,0,13.861l-394.071,625.375a13,13,0,0,1-11,6.069H409.437a13,13,0,0,1-11-6.069L4.367,645.306a13,13,0,0,1,0-13.861L398.438,6.069a13,13,0,0,1,11-6.069Z" transform="translate(1442.761 135.417) rotate(90)" fill="#48c2f9" opacity="0.223" style="mix-blend-mode: multiply;isolation: isolate"/>
      <path id="Trazado_183792" data-name="Trazado 183792" d="M1196.213,0A14.709,14.709,0,0,1,1208.7,6.627l393.849,624.52a12.467,12.467,0,0,1,0,13.431L1208.7,1269.1a14.71,14.71,0,0,1-12.483,6.627H408.294a14.71,14.71,0,0,1-12.483-6.627L1.963,644.577a12.467,12.467,0,0,1,0-13.431L395.812,6.627A14.709,14.709,0,0,1,408.295,0Z" transform="translate(979.888 -1205.867) rotate(90)" fill="#48c2f9" opacity="0.223" style="mix-blend-mode: multiply;isolation: isolate"/>
      <path id="Trazado_183793" data-name="Trazado 183793" d="M502.81,0a14.709,14.709,0,0,1,12.484,6.629L678.011,264.75a12.467,12.467,0,0,1,0,13.427L515.294,536.3a14.709,14.709,0,0,1-12.484,6.629H177.163a14.709,14.709,0,0,1-12.484-6.629L1.962,278.177a12.467,12.467,0,0,1,0-13.427L164.679,6.629A14.709,14.709,0,0,1,177.163,0Z" transform="translate(1522.814 322.15) rotate(90)" fill="#48c2f9" opacity="0.481" style="mix-blend-mode: multiply;isolation: isolate"/>
    </g>
  </g>
</svg>
