<svg id="img1" xmlns="http://www.w3.org/2000/svg" xmlns:xlink="http://www.w3.org/1999/xlink" width="232.08" height="223.284" viewBox="0 0 232.08 223.284">
  <defs>
    <clipPath id="clip-path">
      <rect id="Rectángulo_36755" data-name="Rectángulo 36755" width="232.08" height="223.284" fill="none"/>
    </clipPath>
    <clipPath id="clip-path-2">
      <rect id="Rectángulo_36754" data-name="Rectángulo 36754" width="232.08" height="223.285" fill="none"/>
    </clipPath>
    <clipPath id="clip-path-3">
      <rect id="Rectángulo_36745" data-name="Rectángulo 36745" width="197.995" height="197.996" fill="none"/>
    </clipPath>
    <clipPath id="clip-path-4">
      <rect id="Rectángulo_36746" data-name="Rectángulo 36746" width="14.967" height="29.933" fill="none"/>
    </clipPath>
    <clipPath id="clip-path-5">
      <rect id="Rectángulo_36747" data-name="Rectángulo 36747" width="10.244" height="20.488" fill="none"/>
    </clipPath>
    <clipPath id="clip-path-6">
      <rect id="Rectángulo_36748" data-name="Rectángulo 36748" width="9.993" height="19.985" fill="none"/>
    </clipPath>
    <clipPath id="clip-path-7">
      <rect id="Rectángulo_36749" data-name="Rectángulo 36749" width="22.66" height="45.32" fill="none"/>
    </clipPath>
    <clipPath id="clip-path-8">
      <rect id="Rectángulo_36752" data-name="Rectángulo 36752" width="13.416" height="26.831" fill="none"/>
    </clipPath>
    <clipPath id="clip-path-9">
      <rect id="Rectángulo_36753" data-name="Rectángulo 36753" width="16.792" height="33.584" fill="none"/>
    </clipPath>
  </defs>
  <g id="Grupo_130698" data-name="Grupo 130698" clip-path="url(#clip-path)">
    <g id="Grupo_130697" data-name="Grupo 130697" transform="translate(0 -0.001)">
      <g id="Grupo_130696" data-name="Grupo 130696" clip-path="url(#clip-path-2)">
        <path id="Trazado_146100" data-name="Trazado 146100" d="M127.635,226.649A109.1,109.1,0,0,1,18.448,117.462h3.041A106.174,106.174,0,0,0,225.44,158.778,106.115,106.115,0,0,0,127.635,11.316V8.275a109.216,109.216,0,0,1,42.5,209.793,108.507,108.507,0,0,1-42.5,8.581" transform="translate(-7.501 -3.364)" fill="#59595b"/>
        <g id="Grupo_130677" data-name="Grupo 130677" transform="translate(21.137 13.235)" style="mix-blend-mode: multiply;isolation: isolate">
          <g id="Grupo_130676" data-name="Grupo 130676">
            <g id="Grupo_130675" data-name="Grupo 130675" clip-path="url(#clip-path-3)">
              <path id="Trazado_146101" data-name="Trazado 146101" d="M181.594,336.36q1.349.074,2.7.113V308.041a103.637,103.637,0,0,0-19.587,1.829,171.8,171.8,0,0,0,16.884,26.49" transform="translate(-88.104 -138.476)" fill="#dbdbdb"/>
              <path id="Trazado_146102" data-name="Trazado 146102" d="M133.235,317.147A188.28,188.28,0,0,0,155.1,336.756q3.058.6,6.169,1a174.75,174.75,0,0,1-15.024-24.566,124.169,124.169,0,0,0-13.006,3.956" transform="translate(-75.307 -140.571)" fill="#dbdbdb"/>
              <path id="Trazado_146103" data-name="Trazado 146103" d="M142.207,244.99A148.68,148.68,0,0,0,153,277.128a109.545,109.545,0,0,1,22.145-2.223V240.341a128.545,128.545,0,0,0-32.94,4.649" transform="translate(-78.955 -110.952)" fill="#dbdbdb"/>
              <path id="Trazado_146104" data-name="Trazado 146104" d="M118.717,323.545q-3.656,1.511-7.333,3.264a97.873,97.873,0,0,0,21.647,10.61,178.81,178.81,0,0,1-14.314-13.874" transform="translate(-66.423 -144.78)" fill="#dbdbdb"/>
              <path id="Trazado_146105" data-name="Trazado 146105" d="M155.331,77.69a195.313,195.313,0,0,0-10.053,29.327q-.371,1.46-.713,2.917a129.5,129.5,0,0,0,13.6,2.823,129.141,129.141,0,0,0,17.943,1.448V79.638c-.12,0-.24,0-.361,0a109.312,109.312,0,0,1-20.414-1.952" transform="translate(-79.914 -44.821)" fill="#dbdbdb"/>
              <path id="Trazado_146106" data-name="Trazado 146106" d="M166.7,49.9A103.279,103.279,0,0,0,185.1,51.511V22.3q-1.416.039-2.826.12A185.807,185.807,0,0,0,166.7,49.9" transform="translate(-88.911 -22.302)" fill="#dbdbdb"/>
              <path id="Trazado_146107" data-name="Trazado 146107" d="M138.594,218.291q.176,1.137.372,2.27a134.193,134.193,0,0,1,34-4.731V193.854H136.854a149.529,149.529,0,0,0,1.74,24.437" transform="translate(-76.775 -92.051)" fill="#dbdbdb"/>
              <path id="Trazado_146108" data-name="Trazado 146108" d="M140.33,141.265a166.279,166.279,0,0,0-3.209,25.6h35.958v-21.2a134.62,134.62,0,0,1-18.641-1.486,135.038,135.038,0,0,1-14.108-2.908" transform="translate(-76.887 -70.67)" fill="#dbdbdb"/>
              <path id="Trazado_146109" data-name="Trazado 146109" d="M112.009,132.818a146.348,146.348,0,0,1-21.574-8.554q-1.208,2.717-2.276,5.429a110.646,110.646,0,0,0-7.381,30.257H108.6a172.011,172.011,0,0,1,3.414-27.132" transform="translate(-53.979 -63.757)" fill="#dbdbdb"/>
              <path id="Trazado_146110" data-name="Trazado 146110" d="M286.04,63.245a172.263,172.263,0,0,1,14.184,23.416,139.9,139.9,0,0,0,15.86-9.555,100.309,100.309,0,0,0-25.2-25.246q-4.812,2.762-9.56,5.073c1.557,2,3.134,4.108,4.712,6.312" transform="translate(-135.518 -34.32)" fill="#dbdbdb"/>
              <path id="Trazado_146111" data-name="Trazado 146111" d="M80.124,199.078a91.182,91.182,0,0,0,6.968,32.782,147.846,147.846,0,0,1,23.387-9.705c-.184-1.04-.36-2.082-.52-3.127a155.132,155.132,0,0,1-1.789-25.172H80.15q-.086,2.623-.026,5.223" transform="translate(-53.703 -92.051)" fill="#dbdbdb"/>
              <path id="Trazado_146112" data-name="Trazado 146112" d="M148.777,49.273A196.781,196.781,0,0,1,162.8,23.629q-3.15.407-6.251,1.009A184.636,184.636,0,0,0,136.617,45.75a121.768,121.768,0,0,0,12.16,3.523" transform="translate(-76.682 -22.842)" fill="#dbdbdb"/>
              <path id="Trazado_146113" data-name="Trazado 146113" d="M128.522,282.687a154.053,154.053,0,0,1-10.6-31.807,142.641,142.641,0,0,0-22.182,9.3,120.953,120.953,0,0,0,18.187,27.16,132.561,132.561,0,0,1,14.594-4.652" transform="translate(-60.063 -115.237)" fill="#dbdbdb"/>
              <path id="Trazado_146114" data-name="Trazado 146114" d="M118.494,68.749q-1.752,2.3-3.513,4.754a166.053,166.053,0,0,0-13.925,23.106,140.947,140.947,0,0,0,20.421,8.144c.234-.984.473-1.968.725-2.953a202.4,202.4,0,0,1,9.816-28.964,129.511,129.511,0,0,1-13.525-4.087" transform="translate(-62.224 -41.186)" fill="#dbdbdb"/>
              <path id="Trazado_146115" data-name="Trazado 146115" d="M95.865,65.007q1.268-1.77,2.532-3.455-5.839-2.38-11.718-5.357a100.239,100.239,0,0,0-21.64,22.634A163.826,163.826,0,0,0,81.42,88.941,171.868,171.868,0,0,1,95.865,65.007" transform="translate(-47.58 -36.082)" fill="#dbdbdb"/>
              <path id="Trazado_146116" data-name="Trazado 146116" d="M64.615,118.6q1.147-2.918,2.458-5.839a169.213,169.213,0,0,1-17.06-10.5A98.283,98.283,0,0,0,35.619,151H56.784A116.038,116.038,0,0,1,64.615,118.6" transform="translate(-35.619 -54.811)" fill="#dbdbdb"/>
              <path id="Trazado_146117" data-name="Trazado 146117" d="M134.68,30.143a97.888,97.888,0,0,0-24.454,11.763q5.071,2.451,10.108,4.437a203.564,203.564,0,0,1,14.346-16.2" transform="translate(-65.952 -25.49)" fill="#dbdbdb"/>
              <path id="Trazado_146118" data-name="Trazado 146118" d="M56.43,199.179q-.062-2.652.021-5.325H35.619a98.274,98.274,0,0,0,14.729,49.289q6.758-4.7,13.689-8.6a96.876,96.876,0,0,1-7.606-35.367" transform="translate(-35.619 -92.051)" fill="#dbdbdb"/>
              <path id="Trazado_146119" data-name="Trazado 146119" d="M78.555,271.084q-6.528,3.7-12.908,8.143A100.549,100.549,0,0,0,87.538,301.8q4.337-2.172,8.659-4.022a125.4,125.4,0,0,1-17.642-26.695" transform="translate(-47.827 -123.451)" fill="#dbdbdb"/>
              <path id="Trazado_146120" data-name="Trazado 146120" d="M208.909,308.467q-.869-.069-1.738-.121V336.6c1.188-.033,2.372-.09,3.553-.164a172.636,172.636,0,0,0,16.048-24.9,100.789,100.789,0,0,0-17.863-3.07" transform="translate(-105.368 -138.601)" fill="#dbdbdb"/>
              <path id="Trazado_146121" data-name="Trazado 146121" d="M259.306,338.815a97.793,97.793,0,0,0,16.636-7.856q-2.726-1.484-5.431-2.816-5.208,5.414-11.205,10.672" transform="translate(-126.565 -146.65)" fill="#dbdbdb"/>
              <path id="Trazado_146122" data-name="Trazado 146122" d="M251.551,320.87a121.087,121.087,0,0,0-11.664-4.443,175.464,175.464,0,0,1-13.956,22.525q3.213-.45,6.373-1.106a192,192,0,0,0,19.248-16.976" transform="translate(-112.995 -141.886)" fill="#dbdbdb"/>
              <path id="Trazado_146123" data-name="Trazado 146123" d="M229.346,278.81a149.1,149.1,0,0,0,11.423-33.07q-1.811-.514-3.673-.993a138.325,138.325,0,0,0-29.925-4.307v34.678q1.092.063,2.181.147a106.734,106.734,0,0,1,19.994,3.544" transform="translate(-105.368 -110.992)" fill="#dbdbdb"/>
              <path id="Trazado_146124" data-name="Trazado 146124" d="M330.222,199.179a96.93,96.93,0,0,1-7.8,35.826,138.623,138.623,0,0,1,13.105,8.079,98.279,98.279,0,0,0,14.693-49.23H330.2q.083,2.674.021,5.325" transform="translate(-152.227 -92.051)" fill="#dbdbdb"/>
              <path id="Trazado_146125" data-name="Trazado 146125" d="M317.259,112.3q1.43,3.17,2.679,6.337a116.076,116.076,0,0,1,7.831,32.406h20.354a98.292,98.292,0,0,0-14.359-48.689,141.557,141.557,0,0,1-16.5,9.945" transform="translate(-150.127 -54.849)" fill="#dbdbdb"/>
              <path id="Trazado_146126" data-name="Trazado 146126" d="M284.89,300.985q3.4,1.722,6.83,3.67a100.4,100.4,0,0,0,25.453-25.145,136.973,136.973,0,0,0-12.361-7.624,128.139,128.139,0,0,1-19.921,29.1" transform="translate(-136.966 -123.777)" fill="#dbdbdb"/>
              <path id="Trazado_146127" data-name="Trazado 146127" d="M241.856,221.276c.176-.993.344-1.987.5-2.984a149.542,149.542,0,0,0,1.74-24.437H207.17v22.03a143.926,143.926,0,0,1,31.539,4.544q1.593.411,3.148.847" transform="translate(-105.367 -92.051)" fill="#dbdbdb"/>
              <path id="Trazado_146128" data-name="Trazado 146128" d="M294.067,123.318a161.839,161.839,0,0,1-21.481,8.386,172.284,172.284,0,0,1,3.569,27.862h27.817a110.624,110.624,0,0,0-7.381-30.257q-1.173-2.992-2.524-5.991" transform="translate(-131.964 -63.373)" fill="#dbdbdb"/>
              <path id="Trazado_146129" data-name="Trazado 146129" d="M305.223,199.078q.062-2.6-.025-5.223H277.177a155.14,155.14,0,0,1-1.788,25.172c-.2,1.292-.421,2.581-.654,3.867a162.178,162.178,0,0,1,23.3,9.493,91.265,91.265,0,0,0,7.19-33.31" transform="translate(-132.838 -92.051)" fill="#dbdbdb"/>
              <path id="Trazado_146130" data-name="Trazado 146130" d="M266.934,290.415a123.672,123.672,0,0,0,20.216-29.179,157.351,157.351,0,0,0-22.081-9.1,154.52,154.52,0,0,1-11.377,33.074,128.457,128.457,0,0,1,13.241,5.208" transform="translate(-124.282 -115.746)" fill="#dbdbdb"/>
              <path id="Trazado_146131" data-name="Trazado 146131" d="M269.487,71.769c-1.831-2.561-3.668-4.992-5.477-7.284a125.963,125.963,0,0,1-12.4,4.679,202.922,202.922,0,0,1,10.651,30.9q.284,1.112.552,2.223a156.379,156.379,0,0,0,20.3-7.994,166.643,166.643,0,0,0-13.634-22.526" transform="translate(-123.437 -39.453)" fill="#dbdbdb"/>
              <path id="Trazado_146132" data-name="Trazado 146132" d="M275.058,39.845a97.839,97.839,0,0,0-19.6-9.054c3.329,3.391,7.4,7.793,11.755,13.081q3.9-1.855,7.846-4.027" transform="translate(-125 -25.753)" fill="#dbdbdb"/>
              <path id="Trazado_146133" data-name="Trazado 146133" d="M225.694,48.419a184.471,184.471,0,0,0-14.849-25.945c-1.221-.078-2.445-.138-3.673-.172V51.329q.87-.053,1.738-.121a100.485,100.485,0,0,0,16.784-2.789" transform="translate(-105.368 -22.302)" fill="#dbdbdb"/>
              <path id="Trazado_146134" data-name="Trazado 146134" d="M249.768,43.433a183.1,183.1,0,0,0-17.712-18.5q-3.18-.655-6.414-1.1a195.506,195.506,0,0,1,13.081,23.652q5.5-1.707,11.045-4.052" transform="translate(-112.878 -22.924)" fill="#dbdbdb"/>
              <path id="Trazado_146135" data-name="Trazado 146135" d="M239.358,108.164q-.267-1.111-.549-2.223a196,196,0,0,0-10.739-30.9,106.406,106.406,0,0,1-18.718,3.2q-1.089.086-2.181.148v34.678a138.294,138.294,0,0,0,29.926-4.307q1.141-.292,2.262-.6" transform="translate(-105.367 -43.746)" fill="#dbdbdb"/>
              <path id="Trazado_146136" data-name="Trazado 146136" d="M240.587,140.091c-.622.169-1.246.335-1.877.5a143.92,143.92,0,0,1-31.539,4.543v21.255h36.77a166.534,166.534,0,0,0-3.354-26.295" transform="translate(-105.368 -70.192)" fill="#dbdbdb"/>
            </g>
          </g>
        </g>
        <path id="Trazado_146137" data-name="Trazado 146137" d="M131.922,60.963a14.967,14.967,0,1,1,14.967,14.967,14.967,14.967,0,0,1-14.967-14.967" transform="translate(-53.636 -18.7)" fill="#a6eef7"/>
        <g id="Grupo_130680" data-name="Grupo 130680" transform="translate(78.286 27.296)" opacity="0.5" style="mix-blend-mode: multiply;isolation: isolate">
          <g id="Grupo_130679" data-name="Grupo 130679">
            <g id="Grupo_130678" data-name="Grupo 130678" clip-path="url(#clip-path-4)">
              <path id="Trazado_146138" data-name="Trazado 146138" d="M146.889,75.929a14.967,14.967,0,1,1,0-29.933Z" transform="translate(-131.922 -45.996)" fill="#7db7c9"/>
            </g>
          </g>
        </g>
        <path id="Trazado_146139" data-name="Trazado 146139" d="M84.941,328.469a10.244,10.244,0,1,1,10.244,10.244,10.244,10.244,0,0,1-10.244-10.244" transform="translate(-34.535 -129.382)" fill="#a6eef7"/>
        <g id="Grupo_130683" data-name="Grupo 130683" transform="translate(50.406 188.843)" opacity="0.5" style="mix-blend-mode: multiply;isolation: isolate">
          <g id="Grupo_130682" data-name="Grupo 130682">
            <g id="Grupo_130681" data-name="Grupo 130681" clip-path="url(#clip-path-5)">
              <path id="Trazado_146140" data-name="Trazado 146140" d="M95.185,338.714a10.244,10.244,0,1,1,0-20.488Z" transform="translate(-84.941 -318.226)" fill="#7db7c9"/>
            </g>
          </g>
        </g>
        <path id="Trazado_146141" data-name="Trazado 146141" d="M332.525,92.44a9.992,9.992,0,1,1,9.993,9.992,9.993,9.993,0,0,1-9.993-9.992" transform="translate(-135.197 -33.52)" fill="#a6eef7"/>
        <g id="Grupo_130686" data-name="Grupo 130686" transform="translate(197.328 48.927)" opacity="0.5" style="mix-blend-mode: multiply;isolation: isolate">
          <g id="Grupo_130685" data-name="Grupo 130685">
            <g id="Grupo_130684" data-name="Grupo 130684" clip-path="url(#clip-path-6)">
              <path id="Trazado_146142" data-name="Trazado 146142" d="M342.518,102.433a9.992,9.992,0,1,1,0-19.985Z" transform="translate(-332.525 -82.447)" fill="#7db7c9"/>
            </g>
          </g>
        </g>
        <path id="Trazado_146143" data-name="Trazado 146143" d="M337.376,246.2a22.66,22.66,0,1,0,22.66,22.66,22.66,22.66,0,0,0-22.66-22.66m0,34.147a11.486,11.486,0,1,1,11.486-11.486,11.486,11.486,0,0,1-11.486,11.486" transform="translate(-127.956 -100.1)" fill="#1c6bf7"/>
        <g id="Grupo_130689" data-name="Grupo 130689" transform="translate(186.76 146.103)" opacity="0.5" style="mix-blend-mode: multiply;isolation: isolate">
          <g id="Grupo_130688" data-name="Grupo 130688">
            <g id="Grupo_130687" data-name="Grupo 130687" clip-path="url(#clip-path-7)">
              <path id="Trazado_146144" data-name="Trazado 146144" d="M337.376,284.026a15.163,15.163,0,0,1,0-30.325v-7.5a22.66,22.66,0,0,0,0,45.32Z" transform="translate(-314.716 -246.203)" fill="#47748c"/>
            </g>
          </g>
        </g>
        <path id="Trazado_146145" data-name="Trazado 146145" d="M49.743,133.32,48.3,131.7l5.849-5.189,1.442,1.625Zm9.1-8.073L57.4,123.622l5.849-5.19,1.441,1.625Zm9.1-8.073L66.5,115.549l5.849-5.19,1.441,1.625Zm9.1-8.074L75.6,107.476l5.85-5.189,1.441,1.625Zm9.1-8.073L84.7,99.4l5.849-5.189,1.442,1.625Zm9.1-8.073L93.8,91.33l5.849-5.19,1.441,1.625Z" transform="translate(-19.638 -35.022)" fill="#59595b"/>
        <path id="Trazado_146146" data-name="Trazado 146146" d="M278.35,211.186l-3.144-1.166.5-1.353-.9-.9,1.542-1.53L279.5,209.4Zm-7.217-2.677-7.332-2.72.755-2.037,7.332,2.72Zm.617-3.83-5.509-5.55,1.542-1.53,5.509,5.55Zm-12.022-.4-7.332-2.719.755-2.037,7.332,2.72Zm-11.405-4.231-7.332-2.72.755-2.036,7.332,2.72Zm14.858-4-5.509-5.55,1.542-1.53,5.509,5.55Zm-26.263-.228-7.332-2.72.755-2.037,7.332,2.72Zm-11.4-4.23-7.332-2.72.756-2.037,7.332,2.72Zm29.1-4.175-5.509-5.55,1.542-1.53,5.509,5.55Zm-40.5-.056-7.332-2.72.756-2.037,7.332,2.72ZM202.7,183.126l-.285-.106.755-2.037.285.106Zm43.34-4.348-5.509-5.55,1.542-1.53,5.509,5.55Zm-8.569-8.634-5.509-5.55,1.542-1.53,5.509,5.55Zm-8.57-8.634-5.509-5.55,1.542-1.53,5.509,5.55Zm-8.569-8.634-5.509-5.55,1.542-1.53,5.509,5.55Zm-8.569-8.634-5.509-5.55,1.542-1.53,5.509,5.55Zm-8.57-8.634-5.509-5.55,1.542-1.53,5.509,5.55Zm-8.569-8.634-5.509-5.55,1.542-1.53,5.509,5.55Zm-8.569-8.634-5.509-5.551,1.542-1.53,5.509,5.55Zm-8.57-8.634-5.509-5.55,1.542-1.53,5.509,5.55Zm-8.569-8.634-5.509-5.55,1.542-1.53,5.509,5.551Z" transform="translate(-66.439 -38.215)" fill="#59595b"/>
        <rect id="Rectángulo_36750" data-name="Rectángulo 36750" width="3.91" height="2.172" transform="translate(69.731 189.545) rotate(-43.849)" fill="#59595b"/>
        <path id="Trazado_146147" data-name="Trazado 146147" d="M128.809,285.931l-1.5-1.566,5.389-5.18,1.506,1.567Zm8.384-8.057-1.5-1.567,5.389-5.179,1.5,1.566Zm8.384-8.057-1.5-1.567,5.389-5.179,1.5,1.566Zm8.384-8.058-1.5-1.567,5.389-5.179,1.5,1.567Zm8.384-8.057-1.506-1.566,5.39-5.18,1.5,1.567Z" transform="translate(-51.759 -100.406)" fill="#59595b"/>
        <rect id="Rectángulo_36751" data-name="Rectángulo 36751" width="3.91" height="2.172" transform="matrix(0.721, -0.693, 0.693, 0.721, 117.464, 143.672)" fill="#59595b"/>
        <path id="Trazado_146148" data-name="Trazado 146148" d="M133.576,215.167l-2.694-.77.6-2.089,2.694.77Zm-6.871-1.965-7.519-2.15.6-2.089,7.519,2.15Zm-11.7-3.345-7.519-2.15.6-2.089,7.519,2.15Zm-11.7-3.345-7.519-2.15.6-2.089,7.519,2.15Zm-11.7-3.345-7.519-2.15.6-2.089,7.519,2.15Zm-11.7-3.345-7.519-2.15.6-2.089,7.519,2.15Zm-11.7-3.345-7.519-2.15.6-2.089,7.519,2.151Zm-11.7-3.345-7.519-2.15.6-2.089,7.519,2.151Z" transform="translate(-19.928 -76.8)" fill="#59595b"/>
        <path id="Trazado_146149" data-name="Trazado 146149" d="M188.223,226.4a13.416,13.416,0,1,1,13.416,13.416A13.416,13.416,0,0,1,188.223,226.4" transform="translate(-76.527 -86.596)" fill="#4dd0e1"/>
        <g id="Grupo_130692" data-name="Grupo 130692" transform="translate(111.696 126.393)" opacity="0.5" style="mix-blend-mode: multiply;isolation: isolate">
          <g id="Grupo_130691" data-name="Grupo 130691">
            <g id="Grupo_130690" data-name="Grupo 130690" clip-path="url(#clip-path-8)">
              <path id="Trazado_146150" data-name="Trazado 146150" d="M201.639,239.821a13.416,13.416,0,0,1,0-26.832Z" transform="translate(-188.223 -212.989)" fill="#47748c"/>
            </g>
          </g>
        </g>
        <path id="Trazado_146151" data-name="Trazado 146151" d="M266.726,90.281l-1.612-.357.468-2.121,1.612.356Zm-5.854-1.294L253.236,87.3l.469-2.121,7.637,1.687Zm-11.877-2.625-7.637-1.688.469-2.121,7.636,1.687Zm-11.879-2.625-7.636-1.688.468-2.121,7.636,1.688Zm-11.878-2.625L217.6,79.426l.469-2.121,7.636,1.688ZM213.36,78.488,205.725,76.8l.469-2.121,7.636,1.688Zm-11.878-2.625-7.636-1.687.468-2.121,7.637,1.688Zm-11.877-2.625-7.636-1.687.468-2.121,7.636,1.688Z" transform="translate(-73.984 -28.228)" fill="#59595b"/>
        <path id="Trazado_146152" data-name="Trazado 146152" d="M49.613,157.006,49,154.922l7.5-2.215.615,2.084Zm11.667-3.445-.615-2.084,7.5-2.215.615,2.084Zm11.667-3.445-.615-2.084,7.5-2.215.615,2.084Zm11.666-3.445L84,144.587l7.5-2.215.615,2.084Zm11.667-3.445-.615-2.084,7.5-2.215.615,2.083Zm11.666-3.445-.615-2.083,7.5-2.215.615,2.083Zm11.667-3.445L119,134.251l7.5-2.215.615,2.084Zm11.666-3.445-.615-2.083,7.5-2.215.615,2.083Zm11.667-3.445-.615-2.084,7.5-2.215.615,2.083ZM154.611,126,154,123.916l7.5-2.215.615,2.083Zm11.667-3.445-.615-2.084,7.5-2.215.615,2.084Zm11.666-3.445-.615-2.083,7.5-2.215.615,2.083Zm11.667-3.445-.615-2.084,7.5-2.215.615,2.084Zm11.667-3.445-.615-2.083,7.5-2.215.615,2.083Zm11.666-3.445-.615-2.084,4.614-1.362.615,2.084Z" transform="translate(-19.921 -42.823)" fill="#59595b"/>
        <path id="Trazado_146153" data-name="Trazado 146153" d="M0,177.424a16.792,16.792,0,1,1,16.792,16.792A16.792,16.792,0,0,1,0,177.424" transform="translate(0 -65.309)" fill="#feca2e"/>
        <g id="Grupo_130695" data-name="Grupo 130695" transform="translate(0 95.323)" opacity="0.5" style="mix-blend-mode: multiply;isolation: isolate">
          <g id="Grupo_130694" data-name="Grupo 130694">
            <g id="Grupo_130693" data-name="Grupo 130693" clip-path="url(#clip-path-9)">
              <path id="Trazado_146154" data-name="Trazado 146154" d="M16.792,194.216a16.792,16.792,0,1,1,0-33.584Z" transform="translate(0 -160.632)" fill="#d67729"/>
            </g>
          </g>
        </g>
        <path id="Trazado_146155" data-name="Trazado 146155" d="M192.449,12.863a6.432,6.432,0,1,1,6.432-6.432,6.439,6.439,0,0,1-6.432,6.432m0-9.822a3.391,3.391,0,1,0,3.391,3.391,3.394,3.394,0,0,0-3.391-3.391" transform="translate(-75.63 0.001)" fill="#59595b"/>
      </g>
    </g>
  </g>
</svg>
