<svg id="img19" xmlns="http://www.w3.org/2000/svg" xmlns:xlink="http://www.w3.org/1999/xlink" width="294.585" height="191.007" viewBox="0 0 294.585 191.007">
  <defs>
    <clipPath id="clip-path">
      <rect id="Rectángulo_36861" data-name="Rectángulo 36861" width="294.585" height="191.007" fill="none"/>
    </clipPath>
    <clipPath id="clip-path-2">
      <rect id="Rectángulo_36862" data-name="Rectángulo 36862" width="217.757" height="143.474" transform="translate(38.414 13.913)" fill="none"/>
    </clipPath>
  </defs>
  <g id="Grupo_130815" data-name="Grupo 130815">
    <g id="Grupo_130814" data-name="Grupo 130814" clip-path="url(#clip-path)">
      <path id="Trazado_146288" data-name="Trazado 146288" d="M262,172.54H32.584V15.407a8.123,8.123,0,0,1,8.123-8.123h213.17A8.123,8.123,0,0,1,262,15.407Z" fill="#535e78"/>
      <path id="Trazado_146289" data-name="Trazado 146289" d="M0,172.54v.71a17.757,17.757,0,0,0,17.757,17.757H276.828a17.757,17.757,0,0,0,17.757-17.757v-.71Z" fill="#7a88b0"/>
      <path id="Trazado_146290" data-name="Trazado 146290" d="M17.757,191.007H276.828a17.75,17.75,0,0,0,15.578-9.234H2.179a17.751,17.751,0,0,0,15.578,9.234" fill="#535e78"/>
      <rect id="Rectángulo_36860" data-name="Rectángulo 36860" width="217.757" height="143.475" transform="translate(38.414 13.913)" fill="#85c8ff"/>
    </g>
  </g>
  <g id="Grupo_130817" data-name="Grupo 130817">
    <g id="Grupo_130816" data-name="Grupo 130816" clip-path="url(#clip-path-2)">
      <path id="Trazado_146291" data-name="Trazado 146291" d="M209.929,85.591a62.637,62.637,0,1,1-62.637-62.637,62.638,62.638,0,0,1,62.637,62.637" fill="#b8dfff"/>
      <path id="Trazado_146292" data-name="Trazado 146292" d="M180.229,152.4a.344.344,0,0,1-.153-.652,74.406,74.406,0,0,0,26.8-22.572.344.344,0,1,1,.555.406,75.079,75.079,0,0,1-27.05,22.782.347.347,0,0,1-.153.036" fill="#b8dfff"/>
      <path id="Trazado_146293" data-name="Trazado 146293" d="M109.512,149.769a.34.34,0,0,1-.175-.048,75.006,75.006,0,0,1-34.375-46.172.345.345,0,0,1,.669-.165,74.308,74.308,0,0,0,34.057,45.745.344.344,0,0,1-.176.64" fill="#b8dfff"/>
      <path id="Trazado_146294" data-name="Trazado 146294" d="M73.343,91.628A.344.344,0,0,1,73,91.31c-.143-1.889-.216-3.812-.216-5.719a74.144,74.144,0,0,1,12.7-41.622.344.344,0,1,1,.571.385A73.45,73.45,0,0,0,73.472,85.591c0,1.889.072,3.795.215,5.667a.345.345,0,0,1-.318.369h-.026" fill="#b8dfff"/>
      <path id="Trazado_146295" data-name="Trazado 146295" d="M86.272,43.77a.344.344,0,0,1-.282-.54,75.23,75.23,0,0,1,6.158-7.746.344.344,0,0,1,.509.464,74.385,74.385,0,0,0-6.1,7.674.342.342,0,0,1-.283.148" fill="#b8dfff"/>
      <path id="Trazado_146296" data-name="Trazado 146296" d="M211.852,122.462a.33.33,0,0,1-.169-.045.343.343,0,0,1-.13-.468A73.861,73.861,0,0,0,194.8,29.085a.344.344,0,0,1,.443-.527,74.546,74.546,0,0,1,16.911,93.729.344.344,0,0,1-.3.175" fill="#b8dfff"/>
      <path id="Trazado_146297" data-name="Trazado 146297" d="M229.351,109.113a.336.336,0,0,1-.093-.013.343.343,0,0,1-.238-.424,85.129,85.129,0,0,0-10.7-69.614.344.344,0,1,1,.575-.377,85.82,85.82,0,0,1,10.785,70.177.345.345,0,0,1-.332.251" fill="#b8dfff"/>
      <path id="Trazado_146298" data-name="Trazado 146298" d="M147.292,171.182a85.409,85.409,0,0,1-57.363-22.065.344.344,0,0,1,.461-.511,84.927,84.927,0,0,0,134.058-27.533.344.344,0,1,1,.625.289,85.889,85.889,0,0,1-77.781,49.82" fill="#b8dfff"/>
      <path id="Trazado_146299" data-name="Trazado 146299" d="M75.6,132.08a.34.34,0,0,1-.289-.158A85.6,85.6,0,0,1,202.172,19.907a.344.344,0,1,1-.441.528A84.912,84.912,0,0,0,75.891,131.55a.343.343,0,0,1-.288.53" fill="#b8dfff"/>
      <path id="Trazado_146300" data-name="Trazado 146300" d="M202.338,85.591a55.046,55.046,0,1,1-55.046-55.046,55.046,55.046,0,0,1,55.046,55.046" fill="#2a8ee0"/>
      <path id="Trazado_146301" data-name="Trazado 146301" d="M174.711,37.867a55.039,55.039,0,0,1-66.438,86.546,55.042,55.042,0,1,0,66.438-86.546" fill="#2170b0"/>
      <path id="Trazado_146302" data-name="Trazado 146302" d="M202.338,85.591a54.9,54.9,0,0,0-18.4-41.058c-3.625,1.93-6.613,3.946-6.613,3.946s-7.1,4.972-11.837,5.919-10.181.711-13.259,4.262A73.236,73.236,0,0,0,144.9,69.551c-2.131,3.551-3.552,5.919-2.605,8.049s3.078,4.262,6.156,2.131,3.315-3.551,5.446-4.735a10.959,10.959,0,0,1,5.769-1.657c2.043,0,5.121-.237,3.937,1.657s-1.953,6.629-1.953,6.629-1.953,4.025,0,4.972,3.848,1.539,6.215-1.006,3.788-3.966,6.393-3.729,6.629,1.894,6.866,5.682,2.6,8.523.71,13.259-1.184,4.5-7.576,7.339-13.776,6.156-11.978,9.47,5.348,3.788,7.006,6.629a18.761,18.761,0,0,1,1.894,7.1l-.682,4.165a55.043,55.043,0,0,0,31.845-49.918" fill="#b6ba2c"/>
      <path id="Trazado_146303" data-name="Trazado 146303" d="M202.235,82.3c-.052-.876-.121-1.748-.214-2.612-.015-.143-.034-.284-.051-.427q-.135-1.188-.322-2.36c-.023-.143-.042-.287-.066-.43q-.213-1.272-.485-2.524c-.04-.183-.081-.364-.123-.546-.191-.846-.4-1.687-.625-2.517l-.006-.021c-.231-.834-.488-1.657-.757-2.474-.059-.18-.118-.36-.179-.539q-.405-1.188-.859-2.353c-.054-.137-.112-.273-.168-.411q-.42-1.044-.881-2.068c-.065-.143-.127-.288-.193-.431q-.515-1.117-1.08-2.2c-.093-.179-.188-.358-.283-.537-.371-.7-.753-1.392-1.154-2.074-.039-.068-.078-.136-.118-.2-.406-.684-.831-1.354-1.265-2.019-.121-.186-.243-.373-.367-.558q-.66-.983-1.357-1.937c-.118-.16-.241-.317-.36-.476q-.6-.792-1.218-1.561c-.137-.17-.272-.342-.411-.51q-.729-.879-1.494-1.725c-.181-.2-.364-.4-.547-.594q-.66-.711-1.343-1.4c-.2-.2-.4-.4-.6-.6q-.684-.668-1.391-1.309-.19-.173-.383-.343c-.906.483-1.772.971-2.562,1.431a55.039,55.039,0,0,1-14.336,75.962,7.591,7.591,0,0,1,2.247,2.31,18.754,18.754,0,0,1,1.894,7.1l-.681,4.165c.539-.252,1.073-.514,1.6-.782.108-.054.215-.11.322-.165q2.4-1.233,4.656-2.689c.089-.058.18-.114.27-.173q.719-.468,1.421-.96c.1-.068.195-.139.293-.208q2.125-1.5,4.1-3.2c.146-.125.292-.251.436-.377.4-.348.789-.7,1.175-1.058.114-.107.226-.217.34-.324q1.068-1.011,2.08-2.077c.148-.155.3-.307.443-.464q.484-.522.954-1.059.285-.322.565-.652c.3-.349.6-.7.885-1.053.209-.257.41-.521.615-.782q.666-.852,1.3-1.729c.213-.3.427-.592.634-.892.228-.329.453-.662.674-1s.443-.685.661-1.031c.19-.3.384-.6.568-.909q.54-.9,1.045-1.817c.162-.293.316-.591.472-.887q.325-.618.637-1.243c.146-.3.292-.59.433-.888q.393-.831.757-1.675c.111-.255.219-.511.326-.767q.371-.893.71-1.8c.1-.269.2-.54.293-.811q.279-.785.535-1.581c.078-.243.159-.485.234-.73q.344-1.117.641-2.256c.047-.18.087-.363.132-.544q.229-.926.43-1.861.081-.381.156-.764.19-.968.348-1.947c.026-.165.057-.328.082-.494.122-.806.223-1.618.31-2.435.022-.216.039-.434.059-.65q.09-.958.147-1.925c.014-.241.029-.482.04-.724.038-.841.064-1.686.064-2.537,0-.912-.03-1.816-.074-2.716-.009-.193-.018-.385-.029-.576" fill="#969924"/>
      <path id="Trazado_146304" data-name="Trazado 146304" d="M92.246,85.591a55.052,55.052,0,0,0,34.414,51.033c-.135-.181-5.68-7.693-5.914-11.435-.237-3.789,3.314-5.919,3.719-8.524s-8.455-1.42-8.455-1.42l-7.576-.711-6.185-5.919V99.382l4.528-2.6,4.025,5.445s3.551,4.735,6.831,3.788-3.753-6.629-6.831-10.417-.237-3.551,0-5.682,6.831-1.421,6.831-1.421l-2.1-7.813s-.947-5.208.473-7.1,6.867-5.446,8.287-9.234-6.629-8.76-6.629-8.76-.947-4.025.237-5.682.71-4.735.473-6.629c-.1-.838-1.6-1.675-3.235-2.349a54.96,54.96,0,0,0-22.9,44.669" fill="#b6ba2c"/>
      <path id="Trazado_146305" data-name="Trazado 146305" d="M122.55,130.145a54.877,54.877,0,0,1-14.255-5.719c.291.292.591.575.889.86.215.207.427.416.646.619.348.323.7.639,1.059.953q.318.28.64.557c.375.321.752.639,1.136.95.163.132.33.26.5.391.918.726,1.856,1.429,2.82,2.1l.014.01c.463.321.933.63,1.4.936.157.1.313.2.47.3.477.3.957.6,1.444.887.1.059.2.115.3.172a54.593,54.593,0,0,0,4.969,2.568c.112.051.223.1.336.153.553.246,1.11.485,1.673.713l.068.027a59.067,59.067,0,0,1-4.108-6.476" fill="#969924"/>
    </g>
  </g>
  <g id="Grupo_130819" data-name="Grupo 130819">
    <g id="Grupo_130818" data-name="Grupo 130818" clip-path="url(#clip-path)">
      <path id="Trazado_146306" data-name="Trazado 146306" d="M190.705,99.475H103.879a2.814,2.814,0,0,1-2.814-2.814V78.19a2.814,2.814,0,0,1,2.814-2.814h86.826a2.814,2.814,0,0,1,2.814,2.814V96.661a2.814,2.814,0,0,1-2.814,2.814" fill="#fff"/>
      <path id="Trazado_146307" data-name="Trazado 146307" d="M135.605,82.657l-4.1,11.3h-3.152l-2.542-7.017-2.626,7.017h-3.152l-4.077-11.3h3.089l2.669,7.648,2.773-7.648h2.774l2.689,7.648,2.753-7.648Z" fill="#b6ba2c"/>
      <path id="Trazado_146308" data-name="Trazado 146308" d="M157.118,82.657l-4.1,11.3h-3.152l-2.542-7.017L144.7,93.961h-3.152l-4.076-11.3h3.089l2.668,7.648L146,82.657h2.773l2.69,7.648,2.752-7.648Z" fill="#b6ba2c"/>
      <path id="Trazado_146309" data-name="Trazado 146309" d="M178.629,82.657l-4.1,11.3H171.38l-2.543-7.017-2.626,7.017H163.06l-4.077-11.3h3.088l2.669,7.648,2.774-7.648h2.773l2.69,7.648,2.752-7.648Z" fill="#b6ba2c"/>
    </g>
  </g>
</svg>
