<svg xmlns="http://www.w3.org/2000/svg" xmlns:xlink="http://www.w3.org/1999/xlink" width="190" height="190" viewBox="0 0 190 190">
  <defs>
    <clipPath id="clip-path">
      <rect id="Rectángulo_36792" data-name="Rectángulo 36792" width="128" height="85.165" fill="#fff"/>
    </clipPath>
  </defs>
  <g id="img11" transform="translate(-285 -3951.508)">
    <circle id="Elipse_4102" data-name="Elipse 4102" cx="95" cy="95" r="95" transform="translate(285 3951.508)" fill="#4dd0e1"/>
    <g id="Grupo_141711" data-name="Grupo 141711" transform="translate(316 4003.925)">
      <g id="Grupo_130736" data-name="Grupo 130736" clip-path="url(#clip-path)">
        <path id="Trazado_146179" data-name="Trazado 146179" d="M100.623,104.541H76.591a3.922,3.922,0,0,1-3.918-3.918V76.591a3.922,3.922,0,0,1,3.918-3.917h24.032a3.922,3.922,0,0,1,3.917,3.917v24.032a3.922,3.922,0,0,1-3.917,3.918M76.591,74.912a1.681,1.681,0,0,0-1.679,1.679v24.032a1.681,1.681,0,0,0,1.679,1.679h24.032a1.681,1.681,0,0,0,1.679-1.679V76.591a1.681,1.681,0,0,0-1.679-1.679Z" transform="translate(-46.024 -46.025)" fill="#fff"/>
        <path id="Trazado_146180" data-name="Trazado 146180" d="M95.2,96.319H42.954a1.12,1.12,0,0,1-1.12-1.12V42.953a1.119,1.119,0,0,1,1.12-1.119H95.2a1.119,1.119,0,0,1,1.119,1.119V95.2a1.119,1.119,0,0,1-1.119,1.12M44.073,94.08H94.08V44.073H44.073Z" transform="translate(-26.494 -26.494)" fill="#fff"/>
        <path id="Trazado_146181" data-name="Trazado 146181" d="M101.311,35.4H60.559v-3a4.266,4.266,0,0,1,4.261-4.262H97.05a4.266,4.266,0,0,1,4.262,4.262ZM62.8,33.157H99.073v-.762a2.025,2.025,0,0,0-2.023-2.023H64.82A2.025,2.025,0,0,0,62.8,32.395Z" transform="translate(-38.352 -17.817)" fill="#fff"/>
        <path id="Trazado_146182" data-name="Trazado 146182" d="M97.05,191.575H64.82a4.266,4.266,0,0,1-4.261-4.261v-3h40.752v3a4.266,4.266,0,0,1-4.262,4.261M62.8,186.551v.763a2.025,2.025,0,0,0,2.023,2.023H97.05a2.025,2.025,0,0,0,2.023-2.023v-.763Z" transform="translate(-38.352 -116.727)" fill="#fff"/>
        <path id="Trazado_146183" data-name="Trazado 146183" d="M35.4,101.311h-3a4.266,4.266,0,0,1-4.261-4.262V64.82A4.266,4.266,0,0,1,32.4,60.559h3ZM32.4,62.8a2.025,2.025,0,0,0-2.023,2.023V97.05A2.025,2.025,0,0,0,32.4,99.073h.762V62.8Z" transform="translate(-17.817 -38.352)" fill="#fff"/>
        <path id="Trazado_146184" data-name="Trazado 146184" d="M187.314,101.31h-3V60.558h3a4.266,4.266,0,0,1,4.262,4.261V97.049a4.266,4.266,0,0,1-4.262,4.262m-.762-2.239h.762a2.025,2.025,0,0,0,2.023-2.023V64.819a2.025,2.025,0,0,0-2.023-2.023h-.762Z" transform="translate(-116.727 -38.352)" fill="#fff"/>
        <path id="Trazado_146185" data-name="Trazado 146185" d="M220.838,63.755H200.9V61.516h18.814v-9.76a1.119,1.119,0,0,1,1.12-1.119H239.8v2.239H221.957v9.76a1.119,1.119,0,0,1-1.119,1.12" transform="translate(-127.235 -32.069)" fill="#fff"/>
        <rect id="Rectángulo_36790" data-name="Rectángulo 36790" width="27.441" height="2.239" transform="translate(73.95 41.463)" fill="#fff"/>
        <rect id="Rectángulo_36791" data-name="Rectángulo 36791" width="11.215" height="2.239" transform="translate(74.23 53.479)" fill="#fff"/>
        <path id="Trazado_146186" data-name="Trazado 146186" d="M11.215,82.543H1.119a1.119,1.119,0,1,1,0-2.238h10.1a1.119,1.119,0,1,1,0,2.238" transform="translate(0 -50.858)" fill="#fff"/>
        <path id="Trazado_146187" data-name="Trazado 146187" d="M11.215,115.312H1.119a1.119,1.119,0,0,1,0-2.239h10.1a1.119,1.119,0,0,1,0,2.239" transform="translate(0 -71.61)" fill="#fff"/>
        <path id="Trazado_146188" data-name="Trazado 146188" d="M11.215,148.081H1.119a1.119,1.119,0,0,1,0-2.239h10.1a1.119,1.119,0,0,1,0,2.239" transform="translate(0 -92.363)" fill="#fff"/>
        <path id="Trazado_146189" data-name="Trazado 146189" d="M81.424,12.334a1.119,1.119,0,0,1-1.119-1.119V1.119a1.119,1.119,0,1,1,2.238,0v10.1a1.119,1.119,0,0,1-1.119,1.119" transform="translate(-50.858)" fill="#fff"/>
        <path id="Trazado_146190" data-name="Trazado 146190" d="M114.193,12.334a1.119,1.119,0,0,1-1.119-1.119V1.119a1.119,1.119,0,0,1,2.238,0v10.1a1.119,1.119,0,0,1-1.119,1.119" transform="translate(-71.611)" fill="#fff"/>
        <path id="Trazado_146191" data-name="Trazado 146191" d="M146.962,12.334a1.119,1.119,0,0,1-1.119-1.119V1.119a1.119,1.119,0,0,1,2.238,0v10.1a1.119,1.119,0,0,1-1.119,1.119" transform="translate(-92.363)" fill="#fff"/>
        <path id="Trazado_146192" data-name="Trazado 146192" d="M81.424,210.949a1.119,1.119,0,0,1-1.119-1.119v-10.1a1.119,1.119,0,1,1,2.238,0v10.1a1.119,1.119,0,0,1-1.119,1.119" transform="translate(-50.858 -125.784)" fill="#fff"/>
        <path id="Trazado_146193" data-name="Trazado 146193" d="M114.193,210.949a1.119,1.119,0,0,1-1.119-1.119v-10.1a1.119,1.119,0,1,1,2.238,0v10.1a1.119,1.119,0,0,1-1.119,1.119" transform="translate(-71.611 -125.784)" fill="#fff"/>
        <path id="Trazado_146194" data-name="Trazado 146194" d="M146.962,210.949a1.119,1.119,0,0,1-1.119-1.119v-10.1a1.119,1.119,0,1,1,2.238,0v10.1a1.119,1.119,0,0,1-1.119,1.119" transform="translate(-92.363 -125.784)" fill="#fff"/>
        <path id="Trazado_146195" data-name="Trazado 146195" d="M312.705,47.754a8.163,8.163,0,1,1,8.163-8.163,8.172,8.172,0,0,1-8.163,8.163m0-14.088a5.925,5.925,0,1,0,5.925,5.925,5.932,5.932,0,0,0-5.925-5.925" transform="translate(-192.869 -19.903)" fill="#fff"/>
        <path id="Trazado_146196" data-name="Trazado 146196" d="M244.638,158.96H225.671a1.12,1.12,0,0,1-1.12-1.12v-9.759H208.536v-2.239h17.135a1.119,1.119,0,0,1,1.119,1.12v9.76h17.848Z" transform="translate(-132.067 -92.363)" fill="#fff"/>
        <path id="Trazado_146197" data-name="Trazado 146197" d="M312.705,172.628a8.163,8.163,0,1,1,8.163-8.164,8.173,8.173,0,0,1-8.163,8.164m0-14.088a5.925,5.925,0,1,0,5.925,5.925,5.932,5.932,0,0,0-5.925-5.925" transform="translate(-192.869 -98.987)" fill="#fff"/>
        <path id="Trazado_146198" data-name="Trazado 146198" d="M278.6,110.19a8.163,8.163,0,1,1,8.163-8.163,8.172,8.172,0,0,1-8.163,8.163m0-14.088a5.925,5.925,0,1,0,5.925,5.925A5.932,5.932,0,0,0,278.6,96.1" transform="translate(-171.27 -59.445)" fill="#fff"/>
      </g>
    </g>
  </g>
</svg>
