<svg id="img15" xmlns="http://www.w3.org/2000/svg" xmlns:xlink="http://www.w3.org/1999/xlink" width="315" height="180.64" viewBox="0 0 315 180.64">
  <defs>
    <clipPath id="clip-path">
      <rect id="Rectángulo_36857" data-name="Rectángulo 36857" width="315" height="180.64" fill="none"/>
    </clipPath>
    <clipPath id="clip-path-3">
      <rect id="Rectángulo_36855" data-name="Rectángulo 36855" width="263.586" height="71.689" fill="none"/>
    </clipPath>
  </defs>
  <g id="Grupo_130811" data-name="Grupo 130811" clip-path="url(#clip-path)">
    <g id="Grupo_130810" data-name="Grupo 130810">
      <g id="Grupo_130809" data-name="Grupo 130809" clip-path="url(#clip-path)">
        <path id="Trazado_146247" data-name="Trazado 146247" d="M315,215.728c0,5.8-70.515,10.5-157.5,10.5S0,221.527,0,215.728s70.516-10.5,157.5-10.5,157.5,4.7,157.5,10.5" transform="translate(0 -45.589)" fill="#a6eef7" opacity="0.105"/>
        <path id="Trazado_146248" data-name="Trazado 146248" d="M79.079,213.971h0a8.327,8.327,0,1,1,8.328-8.328,8.353,8.353,0,0,1-8.328,8.328" transform="translate(-15.717 -43.831)" fill="#2d1f6a"/>
        <path id="Trazado_146249" data-name="Trazado 146249" d="M86.682,210.661h-18.1a4.345,4.345,0,1,1,0-8.69h18.1a4.345,4.345,0,1,1,0,8.69" transform="translate(-14.269 -44.865)" fill="#c1d3e9"/>
        <path id="Trazado_146250" data-name="Trazado 146250" d="M324.845,213.971h0a8.327,8.327,0,1,1,8.328-8.328,8.353,8.353,0,0,1-8.328,8.328" transform="translate(-70.31 -43.831)" fill="#2d1f6a"/>
        <path id="Trazado_146251" data-name="Trazado 146251" d="M332.449,210.661h-18.1a4.345,4.345,0,1,1,0-8.69h18.1a4.345,4.345,0,1,1,0,8.69" transform="translate(-68.863 -44.865)" fill="#c1d3e9"/>
        <path id="Trazado_146252" data-name="Trazado 146252" d="M312.606,133.058h0a7.2,7.2,0,0,1-7.177-7.177V13.019a7.177,7.177,0,1,1,14.353,0V125.882a7.2,7.2,0,0,1-7.177,7.177" transform="translate(-67.847 -1.298)" fill="#022b5f"/>
        <path id="Trazado_146253" data-name="Trazado 146253" d="M317.172,90.8A7.2,7.2,0,0,1,310,83.62V6.487a7.2,7.2,0,0,0-4.567,6.675V126.026a7.177,7.177,0,0,0,14.353,0V90.3a7.111,7.111,0,0,1-2.61.5" transform="translate(-67.847 -1.441)" fill="#02214a"/>
        <path id="Trazado_146254" data-name="Trazado 146254" d="M283.113,188.014H54.948a17.762,17.762,0,0,1-17.71-17.71V134.035a17.762,17.762,0,0,1,17.71-17.71H283.113a17.762,17.762,0,0,1,17.71,17.71V170.3a17.763,17.763,0,0,1-17.71,17.71" transform="translate(-8.272 -25.84)" fill="#fff"/>
        <path id="Rectángulo_36854" data-name="Rectángulo 36854" d="M7.873,0H232.541a7.872,7.872,0,0,1,7.872,7.872V40.645a7.872,7.872,0,0,1-7.872,7.872H7.873A7.873,7.873,0,0,1,0,40.644V7.873A7.873,7.873,0,0,1,7.873,0Z" transform="translate(40.552 102.071)" fill="#022b5f"/>
        <path id="Trazado_146255" data-name="Trazado 146255" d="M74.912,165.978a6.206,6.206,0,0,1-6.124-6.123V131.219H58.257a6.207,6.207,0,0,0-6.125,6.124v36.27a6.207,6.207,0,0,0,6.125,6.123H286.422a6.207,6.207,0,0,0,6.124-6.123v-7.635Z" transform="translate(-11.581 -29.149)" fill="#02244f"/>
        <path id="Trazado_146256" data-name="Trazado 146256" d="M113.162,159.872a7.242,7.242,0,1,1-7.241-7.24,7.241,7.241,0,0,1,7.241,7.24" transform="translate(-21.92 -33.905)" fill="#e1ee96"/>
        <path id="Trazado_146257" data-name="Trazado 146257" d="M166.431,160.906a3.621,3.621,0,1,1-3.621-3.621,3.621,3.621,0,0,1,3.621,3.621" transform="translate(-35.362 -34.939)" fill="#f08619"/>
        <path id="Trazado_146258" data-name="Trazado 146258" d="M213.909,160.906a3.621,3.621,0,1,1-3.622-3.621,3.622,3.622,0,0,1,3.622,3.621" transform="translate(-45.909 -34.939)" fill="#f08619"/>
        <path id="Trazado_146259" data-name="Trazado 146259" d="M261.386,160.906a3.621,3.621,0,1,1-3.621-3.621,3.621,3.621,0,0,1,3.621,3.621" transform="translate(-56.455 -34.939)" fill="#f08619"/>
        <path id="Trazado_146260" data-name="Trazado 146260" d="M308.864,160.906a3.621,3.621,0,1,1-3.621-3.621,3.621,3.621,0,0,1,3.621,3.621" transform="translate(-67.002 -34.939)" fill="#f08619"/>
        <path id="Trazado_146261" data-name="Trazado 146261" d="M298.27,140.943H209.2a2.535,2.535,0,0,1,0-5.069H298.27a2.535,2.535,0,0,1,0,5.069" transform="translate(-45.909 -30.183)" fill="#004fc6"/>
        <path id="Trazado_146262" data-name="Trazado 146262" d="M347.395,140.943H335.808a2.535,2.535,0,0,1,0-5.069h11.586a2.535,2.535,0,0,1,0,5.069" transform="translate(-74.033 -30.183)" fill="#004fc6"/>
        <g id="Grupo_130808" data-name="Grupo 130808" transform="translate(28.965 90.485)" opacity="0.53" style="mix-blend-mode: multiply;isolation: isolate">
          <g id="Grupo_130807" data-name="Grupo 130807">
            <g id="Grupo_130806" data-name="Grupo 130806" clip-path="url(#clip-path-3)">
              <path id="Trazado_146263" data-name="Trazado 146263" d="M73.051,167.014a17.762,17.762,0,0,1-17.71-17.71V116.325h-.393a17.762,17.762,0,0,0-17.711,17.71V170.3a17.763,17.763,0,0,0,17.711,17.71H283.113a17.763,17.763,0,0,0,17.71-17.71v-3.29Z" transform="translate(-37.237 -116.325)" fill="#c1d3e9"/>
            </g>
          </g>
        </g>
        <path id="Trazado_146264" data-name="Trazado 146264" d="M319.073,56.534h0a.779.779,0,0,1-.777-.777V15.114a.777.777,0,1,1,1.554,0V55.757a.779.779,0,0,1-.777.777" transform="translate(-70.706 -3.185)" fill="#004fc6"/>
        <path id="Trazado_146265" data-name="Trazado 146265" d="M241.475,42.1S226.68,59.184,226.2,63.708s2.627,1.584,5.571.376a22.586,22.586,0,0,0,9.521-7.437c3.031-4.025,8.42-12.424.187-14.544" transform="translate(-50.236 -9.352)" fill="#012045"/>
        <path id="Trazado_146266" data-name="Trazado 146266" d="M278.243,41.546s6.731,6.643,6.866,12.654,4.326,18.4.791,19.058-8.037-2.391-9.677-7.72-15.305-35.12,2.02-23.993" transform="translate(-59.879 -8.681)" fill="#022654"/>
        <path id="Trazado_146267" data-name="Trazado 146267" d="M274.429,91.14s-.751-29.123-2.032-32.862c-1.472-4.3-2.142-11.687-3.615-17.161-1.714-6.37-22.728-6.265-25.354,2.023s-.522,30.914-2.65,38.185,27.956,20.462,33.65,9.814" transform="translate(-53.462 -8.131)" fill="#004fc6"/>
        <path id="Trazado_146268" data-name="Trazado 146268" d="M271.7,92.277s5.506,14.157-2.359,16.517-29.535,4.013-31.9-2.278S238.8,88.4,242.734,87.609s24.248.736,28.967,4.669" transform="translate(-52.582 -19.417)" fill="#f08619"/>
        <path id="Trazado_146269" data-name="Trazado 146269" d="M266.353,109.873s-19.057-9.456-18.415-13.788-1.287-11.2,12.95-7.917,14.345,9.18,13.918,12.069,1.077,10.526-8.452,9.637" transform="translate(-55.073 -19.394)" fill="#f09e4a"/>
        <path id="Trazado_146270" data-name="Trazado 146270" d="M239.382,137.676s-.787,3.933-1.574,4.719-3.146,3.146-3.933,3.146-3.146,3.933-6.292,3.933-3.931-3.933-.786-6.292,7.865-8.651,7.865-8.651,3.146-2.36,4.72,3.146" transform="translate(-49.936 -29.773)" fill="#004fc6"/>
        <path id="Trazado_146271" data-name="Trazado 146271" d="M257.9,147a22.185,22.185,0,0,1,.335,4.552,70.156,70.156,0,0,0,.045,7.832c.089,1-1.183,3.815-5.4,2.343s-2.611-14.325-1.2-16.065,6.292-.6,6.225,1.339" transform="translate(-55.571 -32.165)" fill="#004fc6"/>
        <path id="Trazado_146272" data-name="Trazado 146272" d="M263.8,34.272s.263,4.418,0,4.82a5.532,5.532,0,0,1-7.191,0V35.677s5.244-3.615,7.191-1.406" transform="translate(-57.002 -7.454)" fill="#e3a881"/>
        <path id="Trazado_146273" data-name="Trazado 146273" d="M253.3,101.116s7.486-1.433,9.059,4.451-2.36,31.382-2.36,32.035-1.573,3.269-7.079,2.615-4.719-3.269-4.719-3.269,0-28.767.786-32.035,4.312-3.8,4.312-3.8" transform="translate(-55.126 -22.428)" fill="#f08619"/>
        <path id="Trazado_146274" data-name="Trazado 146274" d="M249.265,87.3s-11.123-.506-11.123,4.213-3.971,33.178-3.971,33.178,4.719,4.719,7.079,2.95,9.439-27.133,11.011-28.9.937-10.3-3-11.438" transform="translate(-52.018 -19.389)" fill="#fcc551"/>
        <path id="Trazado_146275" data-name="Trazado 146275" d="M274.625,101.114a29.031,29.031,0,0,0-6.768-3.322,30.46,30.46,0,0,0-3.679-.843c-1.235-.279-2.449-.636-3.657-1.01l-3.6-1.164a30.445,30.445,0,0,0-3.62-1.019,3.451,3.451,0,0,0-.449-.044.763.763,0,0,0-.387.089.811.811,0,0,0-.521.6.428.428,0,0,1-.209.268.887.887,0,0,1-.274.084,1.812,1.812,0,0,0-.409.138,3.347,3.347,0,0,0-.758.484c-.215.178-.429.481-.288.556a.632.632,0,0,1,.085.073.244.244,0,0,1,.069.124.775.775,0,0,1,.017.083,1.992,1.992,0,0,1,.009.261c0,.164-.017.324-.033.484-.063.636-.162,1.261-.263,1.886-.9,4.979-2.061,9.9-3.325,14.786-.641,2.443-1.318,4.877-2.08,7.286-.389,1.2-.8,2.4-1.258,3.574a16.3,16.3,0,0,1-1.668,3.392,16.259,16.259,0,0,0,1.591-3.422c.43-1.185.814-2.386,1.177-3.595.738-2.412,1.4-4.848,2.019-7.293,1.226-4.893,2.351-9.82,3.209-14.785.105-.62.208-1.242.275-1.862.016-.154.029-.309.034-.46a1.716,1.716,0,0,0,0-.212c.005-.008-.031-.085.014-.014.026.009-.067-.055-.093-.082a.453.453,0,0,1-.135-.329.714.714,0,0,1,.1-.3,1.8,1.8,0,0,1,.346-.391,3.635,3.635,0,0,1,.836-.526,2.083,2.083,0,0,1,.488-.158c.162-.033.222-.041.247-.144a1.332,1.332,0,0,1,1.685-.837A30.619,30.619,0,0,1,257,94.533l3.594,1.19c1.2.382,2.408.747,3.633,1.033a29.827,29.827,0,0,1,3.687.878,29.121,29.121,0,0,1,6.716,3.479" transform="translate(-53.658 -20.752)" fill="#fafff9"/>
        <path id="Trazado_146276" data-name="Trazado 146276" d="M281.889,74.269s-15.349-1.421-20.013.547-2.109,7.338,3.465,8.21,17.535.661,19.215-1.983-.378-5.806-2.667-6.774" transform="translate(-57.634 -16.388)" fill="#022b5f"/>
        <path id="Trazado_146277" data-name="Trazado 146277" d="M227.861,64.917c.15-.341,14.376-1.31,18.632.12s2.274,3.44-2.411,4.978-14.826,4.139-16.671,2.306-.964-4.191.45-7.4" transform="translate(-50.284 -14.279)" fill="#022654"/>
        <path id="Trazado_146278" data-name="Trazado 146278" d="M258.8,78.084c2.228-.3,2.759-2.9,2.884-3.766,0,0-1.644-3.66-2.884-3.919s-3.447-1.126-4.157-1.283-.946,1.1,0,1.891,2.6,1.1,2.128,1.971" transform="translate(-56.428 -15.35)" fill="#f8c6a5"/>
        <path id="Trazado_146279" data-name="Trazado 146279" d="M252.421,71.268s.421-9.852-.525-10.8-15.134.591-16.2,1.3-.4,18.31.735,19.154,15.686.034,15.988-1.756a66.832,66.832,0,0,0,0-7.9" transform="translate(-52.238 -13.366)" fill="#fff"/>
        <path id="Trazado_146280" data-name="Trazado 146280" d="M255.783,73.879c-.473.867-3.311-.551-5.2-.709s-.631,2.128-.394,2.916.316,2.286,1.182,2.681,4.214.518,6.443.219" transform="translate(-55.436 -16.252)" fill="#f8c6a5"/>
        <path id="Trazado_146281" data-name="Trazado 146281" d="M267.145,20.229s-.245,7.128-5.941,8.978-6.858,1.882-8.668.8a7.851,7.851,0,0,1-3.514-5.89c-.1-2.312-1.3-14.679.555-16.991a13.233,13.233,0,0,1,9.4-5.24c4.47-.308,12.021,2.621,8.168,18.34" transform="translate(-55.212 -0.415)" fill="#f8c6a5"/>
        <path id="Trazado_146282" data-name="Trazado 146282" d="M258.743,15.469s-2.235,2.342-4.624,2.342-3.006-1.171-3.006-1.171-4.369.4-4.766-.37a4,4,0,0,1,0-2.235s-2.015-1.388-1.553-2.851,2.079-6.319,8.938-8.554c0,0-1.849-1.772-.231-2a3.648,3.648,0,0,1,2.775.825A2.319,2.319,0,0,1,258.743.011c1.927.154,1.773,1.442,1.773,1.442s4.238-.981,4.932.947-.5,1.749-.5,1.749,3.664,3.568,3.125,7.959.265,9.089-2.333,10.478c0,0,1.354-4.844.969-5.507s-3.645-1.733-2.027,4.354c0,0-.693,2-1.695.695s-1.233-5.7-1.233-5.7-2.235,1.4-3.006-.955" transform="translate(-54.363 0)" fill="#022654"/>
        <path id="Trazado_146283" data-name="Trazado 146283" d="M271.119,21.585s.9-2.351,2.842-.811c1.224.969.5,4.566-.812,4.863a2.186,2.186,0,0,1-2.137-.914" transform="translate(-60.202 -4.499)" fill="#f8c6a5"/>
        <path id="Trazado_146284" data-name="Trazado 146284" d="M243.437,55.286a1.3,1.3,0,0,1-.92-.381,3.165,3.165,0,0,0-4.471,0,1.3,1.3,0,0,1-1.841-1.841,5.772,5.772,0,0,1,8.153,0,1.3,1.3,0,0,1-.92,2.222" transform="translate(-52.385 -11.413)" fill="#86e3e3"/>
        <path id="Trazado_146285" data-name="Trazado 146285" d="M245.345,50.766a1.3,1.3,0,0,1-.92-.381,6.946,6.946,0,0,0-9.813,0,1.3,1.3,0,0,1-1.841-1.841,9.553,9.553,0,0,1,13.494,0,1.3,1.3,0,0,1-.92,2.222" transform="translate(-51.623 -10.164)" fill="#86e3e3"/>
        <path id="Trazado_146286" data-name="Trazado 146286" d="M248,46.4a1.3,1.3,0,0,1-.92-.381,12.2,12.2,0,0,0-17.251,0,1.3,1.3,0,1,1-1.841-1.841,14.8,14.8,0,0,1,20.933,0A1.3,1.3,0,0,1,248,46.4" transform="translate(-50.56 -8.851)" fill="#86e3e3"/>
      </g>
    </g>
  </g>
</svg>
