<svg id="img2" xmlns="http://www.w3.org/2000/svg" xmlns:xlink="http://www.w3.org/1999/xlink" width="300.247" height="155.336" viewBox="0 0 300.247 155.336">
  <defs>
    <clipPath id="clip-path">
      <rect id="Rectángulo_37283" data-name="Rectángulo 37283" width="300.247" height="155.336" fill="none"/>
    </clipPath>
    <clipPath id="clip-path-3">
      <rect id="Rectángulo_37134" data-name="Rectángulo 37134" width="258.566" height="153.689" fill="none"/>
    </clipPath>
    <clipPath id="clip-path-4">
      <path id="Trazado_183679" data-name="Trazado 183679" d="M50.4,49.05a52.861,52.861,0,0,0,3.441,105.61H222.061a37.477,37.477,0,0,0,13.345-72.5,50.824,50.824,0,0,0-69.847-46.7A61.426,61.426,0,0,0,50.4,49.05" transform="translate(-0.971 -0.971)" fill="none"/>
    </clipPath>
    <clipPath id="clip-path-7">
      <rect id="Rectángulo_37137" data-name="Rectángulo 37137" width="260.213" height="155.336" fill="none"/>
    </clipPath>
    <clipPath id="clip-path-8">
      <rect id="Rectángulo_37142" data-name="Rectángulo 37142" width="15.049" height="2.799" fill="none"/>
    </clipPath>
    <clipPath id="clip-path-22">
      <rect id="Rectángulo_37190" data-name="Rectángulo 37190" width="22.155" height="4.12" fill="none"/>
    </clipPath>
    <clipPath id="clip-path-36">
      <rect id="Rectángulo_37238" data-name="Rectángulo 37238" width="19.27" height="3.584" fill="none"/>
    </clipPath>
    <clipPath id="clip-path-49">
      <rect id="Rectángulo_37275" data-name="Rectángulo 37275" width="19.27" height="3.583" fill="none"/>
    </clipPath>
  </defs>
  <g id="Grupo_141690" data-name="Grupo 141690" clip-path="url(#clip-path)">
    <g id="Grupo_141553" data-name="Grupo 141553">
      <g id="Grupo_141552" data-name="Grupo 141552" clip-path="url(#clip-path)">
        <path id="Trazado_183675" data-name="Trazado 183675" d="M283.573,82.163a50.826,50.826,0,0,0-50.82-50.4H211.759A61.39,61.39,0,0,0,158.516.971H117.659V16.548a61.389,61.389,0,0,0-19.095,32.5,52.861,52.861,0,0,0,3.441,105.61H270.228a37.477,37.477,0,0,0,13.345-72.5" transform="translate(-7.457 -0.147)" fill="#407bff"/>
        <g id="Grupo_141551" data-name="Grupo 141551" transform="translate(41.681 0.824)" opacity="0.7">
          <g id="Grupo_141550" data-name="Grupo 141550">
            <g id="Grupo_141549" data-name="Grupo 141549" clip-path="url(#clip-path-3)">
              <path id="Trazado_183676" data-name="Trazado 183676" d="M283.573,82.163a50.826,50.826,0,0,0-50.82-50.4H211.759A61.39,61.39,0,0,0,158.516.971H117.659V16.548a61.389,61.389,0,0,0-19.095,32.5,52.861,52.861,0,0,0,3.441,105.61H270.228a37.477,37.477,0,0,0,13.345-72.5" transform="translate(-49.138 -0.971)" fill="#fff"/>
            </g>
          </g>
        </g>
        <path id="Trazado_183677" data-name="Trazado 183677" d="M235.405,82.163a50.824,50.824,0,0,0-69.847-46.7A61.426,61.426,0,0,0,50.4,49.049,52.861,52.861,0,0,0,53.837,154.66H222.06a37.477,37.477,0,0,0,13.345-72.5" transform="translate(-0.147 -0.147)" fill="#407bff"/>
      </g>
    </g>
    <g id="Grupo_141558" data-name="Grupo 141558" transform="translate(0.824 0.824)">
      <g id="Grupo_141557" data-name="Grupo 141557" clip-path="url(#clip-path-4)">
        <g id="Grupo_141556" data-name="Grupo 141556" transform="translate(40.858 0)" opacity="0.1">
          <g id="Grupo_141555" data-name="Grupo 141555">
            <g id="Grupo_141554" data-name="Grupo 141554" clip-path="url(#clip-path-3)">
              <path id="Trazado_183678" data-name="Trazado 183678" d="M283.573,82.163a50.824,50.824,0,0,0-69.847-46.7A61.426,61.426,0,0,0,98.564,49.049a52.861,52.861,0,0,0,3.441,105.611H270.228a37.477,37.477,0,0,0,13.345-72.5" transform="translate(-49.138 -0.971)"/>
            </g>
          </g>
        </g>
      </g>
    </g>
    <g id="Grupo_141689" data-name="Grupo 141689">
      <g id="Grupo_141688" data-name="Grupo 141688" clip-path="url(#clip-path)">
        <path id="Trazado_183680" data-name="Trazado 183680" d="M221.913,155.336H53.69A53.685,53.685,0,0,1,49.581,48.123,62.259,62.259,0,0,1,110.2,0a61.86,61.86,0,0,1,55.61,34.267A51.651,51.651,0,0,1,236.075,81.45a38.3,38.3,0,0,1-14.162,73.886M110.2,1.647A60.952,60.952,0,0,0,51.054,49.081a.825.825,0,0,1-.752.643A52.037,52.037,0,0,0,53.69,153.689H221.913a36.653,36.653,0,0,0,13.052-70.9.822.822,0,0,1-.53-.763,50,50,0,0,0-68.716-45.947.825.825,0,0,1-1.048-.4A60.234,60.234,0,0,0,110.2,1.647" fill="#407bff"/>
        <g id="Grupo_141561" data-name="Grupo 141561" opacity="0.7">
          <g id="Grupo_141560" data-name="Grupo 141560">
            <g id="Grupo_141559" data-name="Grupo 141559" clip-path="url(#clip-path-7)">
              <path id="Trazado_183681" data-name="Trazado 183681" d="M221.913,155.336H53.69A53.685,53.685,0,0,1,49.581,48.123,62.259,62.259,0,0,1,110.2,0a61.86,61.86,0,0,1,55.61,34.267A51.651,51.651,0,0,1,236.075,81.45a38.3,38.3,0,0,1-14.162,73.886M110.2,1.647A60.952,60.952,0,0,0,51.054,49.081a.825.825,0,0,1-.752.643A52.037,52.037,0,0,0,53.69,153.689H221.913a36.653,36.653,0,0,0,13.052-70.9.822.822,0,0,1-.53-.763,50,50,0,0,0-68.716-45.947.825.825,0,0,1-1.048-.4A60.234,60.234,0,0,0,110.2,1.647" fill="#fff"/>
            </g>
          </g>
        </g>
        <path id="Trazado_183682" data-name="Trazado 183682" d="M104.637,93.774h13.508a3.77,3.77,0,0,1,3.77,3.77v66.6a3.77,3.77,0,0,1-3.77,3.77H104.637Z" transform="translate(-15.879 -14.23)" fill="#e0e0e0"/>
        <path id="Trazado_183683" data-name="Trazado 183683" d="M100.345,93.774H71.262a3.77,3.77,0,0,0-3.77,3.77v66.6a3.77,3.77,0,0,0,3.77,3.77h29.082a3.77,3.77,0,0,0,3.77-3.77v-66.6a3.77,3.77,0,0,0-3.77-3.77" transform="translate(-10.242 -14.23)" fill="#fff"/>
        <rect id="Rectángulo_37138" data-name="Rectángulo 37138" width="36.623" height="0.689" transform="translate(57.25 138.309)" fill="#e0e0e0"/>
        <rect id="Rectángulo_37139" data-name="Rectángulo 37139" width="36.623" height="0.689" transform="translate(57.25 123.617)" fill="#e0e0e0"/>
        <rect id="Rectángulo_37140" data-name="Rectángulo 37140" width="36.623" height="0.689" transform="translate(57.25 108.926)" fill="#e0e0e0"/>
        <rect id="Rectángulo_37141" data-name="Rectángulo 37141" width="36.623" height="0.689" transform="translate(57.25 94.236)" fill="#e0e0e0"/>
        <g id="Grupo_141564" data-name="Grupo 141564" transform="translate(61.861 89.47)" opacity="0.6">
          <g id="Grupo_141563" data-name="Grupo 141563">
            <g id="Grupo_141562" data-name="Grupo 141562" clip-path="url(#clip-path-8)">
              <path id="Trazado_183684" data-name="Trazado 183684" d="M86.578,105.476H74.327a1.4,1.4,0,0,0,0,2.8H86.578a1.4,1.4,0,1,0,0-2.8" transform="translate(-72.928 -105.476)" fill="#407bff"/>
            </g>
          </g>
        </g>
        <g id="Grupo_141567" data-name="Grupo 141567" transform="translate(61.861 85.835)" opacity="0.6">
          <g id="Grupo_141566" data-name="Grupo 141566">
            <g id="Grupo_141565" data-name="Grupo 141565" clip-path="url(#clip-path-8)">
              <path id="Trazado_183685" data-name="Trazado 183685" d="M86.578,101.19H74.327a1.4,1.4,0,0,0,0,2.8H86.578a1.4,1.4,0,1,0,0-2.8" transform="translate(-72.928 -101.19)" fill="#407bff"/>
            </g>
          </g>
        </g>
        <g id="Grupo_141570" data-name="Grupo 141570" transform="translate(61.861 82.2)" opacity="0.6">
          <g id="Grupo_141569" data-name="Grupo 141569">
            <g id="Grupo_141568" data-name="Grupo 141568" clip-path="url(#clip-path-8)">
              <path id="Trazado_183686" data-name="Trazado 183686" d="M86.578,96.9H74.327a1.4,1.4,0,0,0,0,2.8H86.578a1.4,1.4,0,1,0,0-2.8" transform="translate(-72.928 -96.905)" fill="#407bff"/>
            </g>
          </g>
        </g>
        <rect id="Rectángulo_37145" data-name="Rectángulo 37145" width="5.115" height="2.798" transform="translate(78.196 89.47)" fill="#ebebeb"/>
        <rect id="Rectángulo_37146" data-name="Rectángulo 37146" width="5.115" height="2.798" transform="translate(78.196 85.834)" fill="#407bff"/>
        <rect id="Rectángulo_37147" data-name="Rectángulo 37147" width="5.115" height="2.798" transform="translate(78.196 82.2)" fill="#ebebeb"/>
        <rect id="Rectángulo_37148" data-name="Rectángulo 37148" width="5.115" height="2.798" transform="translate(84.147 89.47)" fill="#ebebeb"/>
        <rect id="Rectángulo_37149" data-name="Rectángulo 37149" width="5.115" height="2.798" transform="translate(84.147 85.834)" fill="#ebebeb"/>
        <rect id="Rectángulo_37150" data-name="Rectángulo 37150" width="5.115" height="2.798" transform="translate(84.147 82.2)" fill="#407bff"/>
        <path id="Trazado_183687" data-name="Trazado 183687" d="M86.578,122.795H74.327a1.4,1.4,0,0,0,0,2.8H86.578a1.4,1.4,0,1,0,0-2.8" transform="translate(-11.067 -18.634)" fill="#ebebeb"/>
        <g id="Grupo_141573" data-name="Grupo 141573" transform="translate(61.861 100.526)" opacity="0.6">
          <g id="Grupo_141572" data-name="Grupo 141572">
            <g id="Grupo_141571" data-name="Grupo 141571" clip-path="url(#clip-path-8)">
              <path id="Trazado_183688" data-name="Trazado 183688" d="M86.578,118.51H74.327a1.4,1.4,0,0,0,0,2.8H86.578a1.4,1.4,0,1,0,0-2.8" transform="translate(-72.928 -118.51)" fill="#407bff"/>
            </g>
          </g>
        </g>
        <g id="Grupo_141576" data-name="Grupo 141576" transform="translate(61.861 96.891)" opacity="0.6">
          <g id="Grupo_141575" data-name="Grupo 141575">
            <g id="Grupo_141574" data-name="Grupo 141574" clip-path="url(#clip-path-8)">
              <path id="Trazado_183689" data-name="Trazado 183689" d="M86.578,114.224H74.327a1.4,1.4,0,0,0,0,2.8H86.578a1.4,1.4,0,1,0,0-2.8" transform="translate(-72.928 -114.224)" fill="#407bff"/>
            </g>
          </g>
        </g>
        <rect id="Rectángulo_37153" data-name="Rectángulo 37153" width="5.115" height="2.798" transform="translate(78.196 104.161)" fill="#ebebeb"/>
        <rect id="Rectángulo_37154" data-name="Rectángulo 37154" width="5.115" height="2.798" transform="translate(78.196 100.526)" fill="#ebebeb"/>
        <rect id="Rectángulo_37155" data-name="Rectángulo 37155" width="5.115" height="2.798" transform="translate(78.196 96.891)" fill="#407bff"/>
        <rect id="Rectángulo_37156" data-name="Rectángulo 37156" width="5.115" height="2.798" transform="translate(84.147 104.161)" fill="#ebebeb"/>
        <rect id="Rectángulo_37157" data-name="Rectángulo 37157" width="5.115" height="2.798" transform="translate(84.147 100.526)" fill="#ebebeb"/>
        <rect id="Rectángulo_37158" data-name="Rectángulo 37158" width="5.115" height="2.798" transform="translate(84.147 96.891)" fill="#ebebeb"/>
        <g id="Grupo_141579" data-name="Grupo 141579" transform="translate(61.861 118.852)" opacity="0.6">
          <g id="Grupo_141578" data-name="Grupo 141578">
            <g id="Grupo_141577" data-name="Grupo 141577" clip-path="url(#clip-path-8)">
              <path id="Trazado_183690" data-name="Trazado 183690" d="M86.578,140.115H74.327a1.4,1.4,0,0,0,0,2.8H86.578a1.4,1.4,0,1,0,0-2.8" transform="translate(-72.928 -140.115)" fill="#407bff"/>
            </g>
          </g>
        </g>
        <g id="Grupo_141582" data-name="Grupo 141582" transform="translate(61.861 115.217)" opacity="0.6">
          <g id="Grupo_141581" data-name="Grupo 141581">
            <g id="Grupo_141580" data-name="Grupo 141580" clip-path="url(#clip-path-8)">
              <path id="Trazado_183691" data-name="Trazado 183691" d="M86.578,135.829H74.327a1.4,1.4,0,0,0,0,2.8H86.578a1.4,1.4,0,1,0,0-2.8" transform="translate(-72.928 -135.829)" fill="#407bff"/>
            </g>
          </g>
        </g>
        <g id="Grupo_141585" data-name="Grupo 141585" transform="translate(61.861 111.582)" opacity="0.6">
          <g id="Grupo_141584" data-name="Grupo 141584">
            <g id="Grupo_141583" data-name="Grupo 141583" clip-path="url(#clip-path-8)">
              <path id="Trazado_183692" data-name="Trazado 183692" d="M86.578,131.544H74.327a1.4,1.4,0,0,0,0,2.8H86.578a1.4,1.4,0,1,0,0-2.8" transform="translate(-72.928 -131.544)" fill="#407bff"/>
            </g>
          </g>
        </g>
        <rect id="Rectángulo_37162" data-name="Rectángulo 37162" width="5.115" height="2.798" transform="translate(78.196 118.853)" fill="#ebebeb"/>
        <rect id="Rectángulo_37163" data-name="Rectángulo 37163" width="5.115" height="2.798" transform="translate(78.196 115.217)" fill="#407bff"/>
        <rect id="Rectángulo_37164" data-name="Rectángulo 37164" width="5.115" height="2.798" transform="translate(78.196 111.582)" fill="#ebebeb"/>
        <rect id="Rectángulo_37165" data-name="Rectángulo 37165" width="5.115" height="2.798" transform="translate(84.147 118.853)" fill="#ebebeb"/>
        <rect id="Rectángulo_37166" data-name="Rectángulo 37166" width="5.115" height="2.798" transform="translate(84.147 115.217)" fill="#ebebeb"/>
        <rect id="Rectángulo_37167" data-name="Rectángulo 37167" width="5.115" height="2.798" transform="translate(84.147 111.582)" fill="#407bff"/>
        <g id="Grupo_141588" data-name="Grupo 141588" transform="translate(61.861 133.544)" opacity="0.6">
          <g id="Grupo_141587" data-name="Grupo 141587">
            <g id="Grupo_141586" data-name="Grupo 141586" clip-path="url(#clip-path-8)">
              <path id="Trazado_183693" data-name="Trazado 183693" d="M86.578,157.434H74.327a1.4,1.4,0,0,0,0,2.8H86.578a1.4,1.4,0,1,0,0-2.8" transform="translate(-72.928 -157.434)" fill="#407bff"/>
            </g>
          </g>
        </g>
        <g id="Grupo_141591" data-name="Grupo 141591" transform="translate(61.861 129.908)" opacity="0.6">
          <g id="Grupo_141590" data-name="Grupo 141590">
            <g id="Grupo_141589" data-name="Grupo 141589" clip-path="url(#clip-path-8)">
              <path id="Trazado_183694" data-name="Trazado 183694" d="M86.578,153.149H74.327a1.4,1.4,0,0,0,0,2.8H86.578a1.4,1.4,0,1,0,0-2.8" transform="translate(-72.928 -153.149)" fill="#407bff"/>
            </g>
          </g>
        </g>
        <g id="Grupo_141594" data-name="Grupo 141594" transform="translate(61.861 126.273)" opacity="0.6">
          <g id="Grupo_141593" data-name="Grupo 141593">
            <g id="Grupo_141592" data-name="Grupo 141592" clip-path="url(#clip-path-8)">
              <path id="Trazado_183695" data-name="Trazado 183695" d="M86.578,148.863H74.327a1.4,1.4,0,0,0,0,2.8H86.578a1.4,1.4,0,1,0,0-2.8" transform="translate(-72.928 -148.863)" fill="#407bff"/>
            </g>
          </g>
        </g>
        <rect id="Rectángulo_37171" data-name="Rectángulo 37171" width="5.115" height="2.798" transform="translate(78.196 133.543)" fill="#ebebeb"/>
        <rect id="Rectángulo_37172" data-name="Rectángulo 37172" width="5.115" height="2.798" transform="translate(78.196 129.909)" fill="#407bff"/>
        <rect id="Rectángulo_37173" data-name="Rectángulo 37173" width="5.115" height="2.798" transform="translate(78.196 126.273)" fill="#ebebeb"/>
        <rect id="Rectángulo_37174" data-name="Rectángulo 37174" width="5.115" height="2.798" transform="translate(84.147 133.543)" fill="#407bff"/>
        <rect id="Rectángulo_37175" data-name="Rectángulo 37175" width="5.115" height="2.798" transform="translate(84.147 129.909)" fill="#ebebeb"/>
        <rect id="Rectángulo_37176" data-name="Rectángulo 37176" width="5.115" height="2.798" transform="translate(84.147 126.273)" fill="#407bff"/>
        <g id="Grupo_141597" data-name="Grupo 141597" transform="translate(61.861 148.235)" opacity="0.6">
          <g id="Grupo_141596" data-name="Grupo 141596">
            <g id="Grupo_141595" data-name="Grupo 141595" clip-path="url(#clip-path-8)">
              <path id="Trazado_183696" data-name="Trazado 183696" d="M86.578,174.754H74.327a1.4,1.4,0,0,0,0,2.8H86.578a1.4,1.4,0,1,0,0-2.8" transform="translate(-72.928 -174.754)" fill="#407bff"/>
            </g>
          </g>
        </g>
        <g id="Grupo_141600" data-name="Grupo 141600" transform="translate(61.861 144.6)" opacity="0.6">
          <g id="Grupo_141599" data-name="Grupo 141599">
            <g id="Grupo_141598" data-name="Grupo 141598" clip-path="url(#clip-path-8)">
              <path id="Trazado_183697" data-name="Trazado 183697" d="M86.578,170.468H74.327a1.4,1.4,0,0,0,0,2.8H86.578a1.4,1.4,0,1,0,0-2.8" transform="translate(-72.928 -170.468)" fill="#407bff"/>
            </g>
          </g>
        </g>
        <g id="Grupo_141603" data-name="Grupo 141603" transform="translate(61.861 140.965)" opacity="0.6">
          <g id="Grupo_141602" data-name="Grupo 141602">
            <g id="Grupo_141601" data-name="Grupo 141601" clip-path="url(#clip-path-8)">
              <path id="Trazado_183698" data-name="Trazado 183698" d="M86.578,166.183H74.327a1.4,1.4,0,0,0,0,2.8H86.578a1.4,1.4,0,1,0,0-2.8" transform="translate(-72.928 -166.183)" fill="#407bff"/>
            </g>
          </g>
        </g>
        <rect id="Rectángulo_37180" data-name="Rectángulo 37180" width="5.115" height="2.798" transform="translate(78.196 148.235)" fill="#407bff"/>
        <rect id="Rectángulo_37181" data-name="Rectángulo 37181" width="5.115" height="2.798" transform="translate(78.196 144.6)" fill="#ebebeb"/>
        <rect id="Rectángulo_37182" data-name="Rectángulo 37182" width="5.115" height="2.798" transform="translate(78.196 140.965)" fill="#ebebeb"/>
        <rect id="Rectángulo_37183" data-name="Rectángulo 37183" width="5.115" height="2.798" transform="translate(84.147 148.235)" fill="#ebebeb"/>
        <rect id="Rectángulo_37184" data-name="Rectángulo 37184" width="5.115" height="2.798" transform="translate(84.147 144.6)" fill="#ebebeb"/>
        <rect id="Rectángulo_37185" data-name="Rectángulo 37185" width="5.115" height="2.798" transform="translate(84.147 140.965)" fill="#407bff"/>
        <path id="Trazado_183699" data-name="Trazado 183699" d="M166.849,52.5h19.887a5.551,5.551,0,0,1,5.551,5.551v98.052a5.551,5.551,0,0,1-5.551,5.551H166.849Z" transform="translate(-25.319 -7.967)" fill="#e0e0e0"/>
        <path id="Trazado_183700" data-name="Trazado 183700" d="M160.53,52.5H117.715a5.551,5.551,0,0,0-5.551,5.551v98.052a5.551,5.551,0,0,0,5.551,5.551H160.53a5.551,5.551,0,0,0,5.551-5.551V58.054A5.551,5.551,0,0,0,160.53,52.5" transform="translate(-17.021 -7.967)" fill="#fff"/>
        <rect id="Rectángulo_37186" data-name="Rectángulo 37186" width="53.916" height="1.014" transform="translate(95.143 131.047)" fill="#e0e0e0"/>
        <rect id="Rectángulo_37187" data-name="Rectángulo 37187" width="53.916" height="1.014" transform="translate(95.143 109.419)" fill="#e0e0e0"/>
        <rect id="Rectángulo_37188" data-name="Rectángulo 37188" width="53.916" height="1.014" transform="translate(95.143 87.791)" fill="#e0e0e0"/>
        <rect id="Rectángulo_37189" data-name="Rectángulo 37189" width="53.916" height="1.014" transform="translate(95.143 66.164)" fill="#e0e0e0"/>
        <g id="Grupo_141606" data-name="Grupo 141606" transform="translate(101.932 59.148)" opacity="0.6">
          <g id="Grupo_141605" data-name="Grupo 141605">
            <g id="Grupo_141604" data-name="Grupo 141604" clip-path="url(#clip-path-22)">
              <path id="Trazado_183701" data-name="Trazado 183701" d="M140.263,69.729H122.228a2.06,2.06,0,0,0,0,4.12h18.035a2.06,2.06,0,1,0,0-4.12" transform="translate(-120.167 -69.729)" fill="#407bff"/>
            </g>
          </g>
        </g>
        <g id="Grupo_141609" data-name="Grupo 141609" transform="translate(101.932 53.796)" opacity="0.6">
          <g id="Grupo_141608" data-name="Grupo 141608">
            <g id="Grupo_141607" data-name="Grupo 141607" clip-path="url(#clip-path-22)">
              <path id="Trazado_183702" data-name="Trazado 183702" d="M140.263,63.42H122.228a2.06,2.06,0,0,0,0,4.12h18.035a2.06,2.06,0,1,0,0-4.12" transform="translate(-120.167 -63.42)" fill="#407bff"/>
            </g>
          </g>
        </g>
        <g id="Grupo_141612" data-name="Grupo 141612" transform="translate(101.932 48.444)" opacity="0.6">
          <g id="Grupo_141611" data-name="Grupo 141611">
            <g id="Grupo_141610" data-name="Grupo 141610" clip-path="url(#clip-path-22)">
              <path id="Trazado_183703" data-name="Trazado 183703" d="M140.263,57.111H122.228a2.06,2.06,0,0,0,0,4.12h18.035a2.06,2.06,0,1,0,0-4.12" transform="translate(-120.167 -57.111)" fill="#407bff"/>
            </g>
          </g>
        </g>
        <rect id="Rectángulo_37193" data-name="Rectángulo 37193" width="7.53" height="4.12" transform="translate(125.98 59.148)" fill="#ebebeb"/>
        <rect id="Rectángulo_37194" data-name="Rectángulo 37194" width="7.53" height="4.12" transform="translate(125.98 53.796)" fill="#407bff"/>
        <rect id="Rectángulo_37195" data-name="Rectángulo 37195" width="7.53" height="4.12" transform="translate(125.98 48.444)" fill="#ebebeb"/>
        <rect id="Rectángulo_37196" data-name="Rectángulo 37196" width="7.53" height="4.12" transform="translate(134.742 59.148)" fill="#ebebeb"/>
        <rect id="Rectángulo_37197" data-name="Rectángulo 37197" width="7.53" height="4.12" transform="translate(134.742 53.796)" fill="#ebebeb"/>
        <rect id="Rectángulo_37198" data-name="Rectángulo 37198" width="7.53" height="4.12" transform="translate(134.742 48.444)" fill="#407bff"/>
        <g id="Grupo_141615" data-name="Grupo 141615" transform="translate(101.932 80.776)" opacity="0.6">
          <g id="Grupo_141614" data-name="Grupo 141614">
            <g id="Grupo_141613" data-name="Grupo 141613" clip-path="url(#clip-path-22)">
              <path id="Trazado_183704" data-name="Trazado 183704" d="M140.263,95.226H122.228a2.06,2.06,0,0,0,0,4.12h18.035a2.06,2.06,0,1,0,0-4.12" transform="translate(-120.167 -95.226)" fill="#407bff"/>
            </g>
          </g>
        </g>
        <g id="Grupo_141618" data-name="Grupo 141618" transform="translate(101.932 75.424)" opacity="0.6">
          <g id="Grupo_141617" data-name="Grupo 141617">
            <g id="Grupo_141616" data-name="Grupo 141616" clip-path="url(#clip-path-22)">
              <path id="Trazado_183705" data-name="Trazado 183705" d="M140.263,88.917H122.228a2.06,2.06,0,0,0,0,4.12h18.035a2.06,2.06,0,1,0,0-4.12" transform="translate(-120.167 -88.917)" fill="#407bff"/>
            </g>
          </g>
        </g>
        <g id="Grupo_141621" data-name="Grupo 141621" transform="translate(101.932 70.072)" opacity="0.6">
          <g id="Grupo_141620" data-name="Grupo 141620">
            <g id="Grupo_141619" data-name="Grupo 141619" clip-path="url(#clip-path-22)">
              <path id="Trazado_183706" data-name="Trazado 183706" d="M140.263,82.608H122.228a2.06,2.06,0,0,0,0,4.12h18.035a2.06,2.06,0,1,0,0-4.12" transform="translate(-120.167 -82.608)" fill="#407bff"/>
            </g>
          </g>
        </g>
        <rect id="Rectángulo_37202" data-name="Rectángulo 37202" width="7.53" height="4.12" transform="translate(125.98 80.775)" fill="#ebebeb"/>
        <rect id="Rectángulo_37203" data-name="Rectángulo 37203" width="7.53" height="4.12" transform="translate(125.98 75.424)" fill="#ebebeb"/>
        <rect id="Rectángulo_37204" data-name="Rectángulo 37204" width="7.53" height="4.12" transform="translate(125.98 70.072)" fill="#407bff"/>
        <rect id="Rectángulo_37205" data-name="Rectángulo 37205" width="7.53" height="4.12" transform="translate(134.742 80.775)" fill="#407bff"/>
        <rect id="Rectángulo_37206" data-name="Rectángulo 37206" width="7.53" height="4.12" transform="translate(134.742 75.424)" fill="#ebebeb"/>
        <rect id="Rectángulo_37207" data-name="Rectángulo 37207" width="7.53" height="4.12" transform="translate(134.742 70.072)" fill="#407bff"/>
        <g id="Grupo_141624" data-name="Grupo 141624" transform="translate(101.932 102.404)" opacity="0.6">
          <g id="Grupo_141623" data-name="Grupo 141623">
            <g id="Grupo_141622" data-name="Grupo 141622" clip-path="url(#clip-path-22)">
              <path id="Trazado_183707" data-name="Trazado 183707" d="M140.263,120.723H122.228a2.06,2.06,0,0,0,0,4.12h18.035a2.06,2.06,0,1,0,0-4.12" transform="translate(-120.167 -120.723)" fill="#407bff"/>
            </g>
          </g>
        </g>
        <g id="Grupo_141627" data-name="Grupo 141627" transform="translate(101.932 97.052)" opacity="0.6">
          <g id="Grupo_141626" data-name="Grupo 141626">
            <g id="Grupo_141625" data-name="Grupo 141625" clip-path="url(#clip-path-22)">
              <path id="Trazado_183708" data-name="Trazado 183708" d="M140.263,114.414H122.228a2.06,2.06,0,0,0,0,4.12h18.035a2.06,2.06,0,1,0,0-4.12" transform="translate(-120.167 -114.414)" fill="#407bff"/>
            </g>
          </g>
        </g>
        <g id="Grupo_141630" data-name="Grupo 141630" transform="translate(101.932 91.701)" opacity="0.6">
          <g id="Grupo_141629" data-name="Grupo 141629">
            <g id="Grupo_141628" data-name="Grupo 141628" clip-path="url(#clip-path-22)">
              <path id="Trazado_183709" data-name="Trazado 183709" d="M140.263,108.1H122.228a2.06,2.06,0,0,0,0,4.121h18.035a2.06,2.06,0,1,0,0-4.121" transform="translate(-120.167 -108.105)" fill="#407bff"/>
            </g>
          </g>
        </g>
        <rect id="Rectángulo_37211" data-name="Rectángulo 37211" width="7.53" height="4.12" transform="translate(125.98 102.403)" fill="#407bff"/>
        <rect id="Rectángulo_37212" data-name="Rectángulo 37212" width="7.53" height="4.12" transform="translate(125.98 97.052)" fill="#ebebeb"/>
        <rect id="Rectángulo_37213" data-name="Rectángulo 37213" width="7.53" height="4.12" transform="translate(125.98 91.7)" fill="#ebebeb"/>
        <rect id="Rectángulo_37214" data-name="Rectángulo 37214" width="7.53" height="4.12" transform="translate(134.742 102.403)" fill="#ebebeb"/>
        <rect id="Rectángulo_37215" data-name="Rectángulo 37215" width="7.53" height="4.12" transform="translate(134.742 97.052)" fill="#ebebeb"/>
        <rect id="Rectángulo_37216" data-name="Rectángulo 37216" width="7.53" height="4.12" transform="translate(134.742 91.7)" fill="#407bff"/>
        <g id="Grupo_141633" data-name="Grupo 141633" transform="translate(101.932 124.032)" opacity="0.6">
          <g id="Grupo_141632" data-name="Grupo 141632">
            <g id="Grupo_141631" data-name="Grupo 141631" clip-path="url(#clip-path-22)">
              <path id="Trazado_183710" data-name="Trazado 183710" d="M140.263,146.221H122.228a2.06,2.06,0,0,0,0,4.12h18.035a2.06,2.06,0,1,0,0-4.12" transform="translate(-120.167 -146.221)" fill="#407bff"/>
            </g>
          </g>
        </g>
        <path id="Trazado_183711" data-name="Trazado 183711" d="M140.263,139.912H122.228a2.06,2.06,0,0,0,0,4.12h18.035a2.06,2.06,0,1,0,0-4.12" transform="translate(-18.235 -21.232)" fill="#ebebeb"/>
        <g id="Grupo_141636" data-name="Grupo 141636" transform="translate(101.932 113.328)" opacity="0.6">
          <g id="Grupo_141635" data-name="Grupo 141635">
            <g id="Grupo_141634" data-name="Grupo 141634" clip-path="url(#clip-path-22)">
              <path id="Trazado_183712" data-name="Trazado 183712" d="M140.263,133.6H122.228a2.06,2.06,0,0,0,0,4.12h18.035a2.06,2.06,0,1,0,0-4.12" transform="translate(-120.167 -133.603)" fill="#407bff"/>
            </g>
          </g>
        </g>
        <rect id="Rectángulo_37219" data-name="Rectángulo 37219" width="7.53" height="4.12" transform="translate(125.98 124.032)" fill="#ebebeb"/>
        <rect id="Rectángulo_37220" data-name="Rectángulo 37220" width="7.53" height="4.12" transform="translate(125.98 118.68)" fill="#407bff"/>
        <rect id="Rectángulo_37221" data-name="Rectángulo 37221" width="7.53" height="4.12" transform="translate(125.98 113.329)" fill="#ebebeb"/>
        <rect id="Rectángulo_37222" data-name="Rectángulo 37222" width="7.53" height="4.12" transform="translate(134.742 124.032)" fill="#407bff"/>
        <rect id="Rectángulo_37223" data-name="Rectángulo 37223" width="7.53" height="4.12" transform="translate(134.742 118.68)" fill="#407bff"/>
        <rect id="Rectángulo_37224" data-name="Rectángulo 37224" width="7.53" height="4.12" transform="translate(134.742 113.329)" fill="#ebebeb"/>
        <g id="Grupo_141639" data-name="Grupo 141639" transform="translate(101.932 145.66)" opacity="0.6">
          <g id="Grupo_141638" data-name="Grupo 141638">
            <g id="Grupo_141637" data-name="Grupo 141637" clip-path="url(#clip-path-22)">
              <path id="Trazado_183713" data-name="Trazado 183713" d="M140.263,171.718H122.228a2.06,2.06,0,0,0,0,4.12h18.035a2.06,2.06,0,1,0,0-4.12" transform="translate(-120.167 -171.718)" fill="#407bff"/>
            </g>
          </g>
        </g>
        <g id="Grupo_141642" data-name="Grupo 141642" transform="translate(101.932 140.308)" opacity="0.6">
          <g id="Grupo_141641" data-name="Grupo 141641">
            <g id="Grupo_141640" data-name="Grupo 141640" clip-path="url(#clip-path-22)">
              <path id="Trazado_183714" data-name="Trazado 183714" d="M140.263,165.409H122.228a2.06,2.06,0,0,0,0,4.12h18.035a2.06,2.06,0,1,0,0-4.12" transform="translate(-120.167 -165.409)" fill="#407bff"/>
            </g>
          </g>
        </g>
        <g id="Grupo_141645" data-name="Grupo 141645" transform="translate(101.932 134.956)" opacity="0.6">
          <g id="Grupo_141644" data-name="Grupo 141644">
            <g id="Grupo_141643" data-name="Grupo 141643" clip-path="url(#clip-path-22)">
              <path id="Trazado_183715" data-name="Trazado 183715" d="M140.263,159.1H122.228a2.06,2.06,0,0,0,0,4.12h18.035a2.06,2.06,0,1,0,0-4.12" transform="translate(-120.167 -159.1)" fill="#407bff"/>
            </g>
          </g>
        </g>
        <rect id="Rectángulo_37228" data-name="Rectángulo 37228" width="7.53" height="4.12" transform="translate(125.98 145.66)" fill="#ebebeb"/>
        <rect id="Rectángulo_37229" data-name="Rectángulo 37229" width="7.53" height="4.12" transform="translate(125.98 140.308)" fill="#ebebeb"/>
        <rect id="Rectángulo_37230" data-name="Rectángulo 37230" width="7.53" height="4.12" transform="translate(125.98 134.957)" fill="#ebebeb"/>
        <rect id="Rectángulo_37231" data-name="Rectángulo 37231" width="7.53" height="4.12" transform="translate(134.742 145.66)" fill="#ebebeb"/>
        <rect id="Rectángulo_37232" data-name="Rectángulo 37232" width="7.53" height="4.12" transform="translate(134.742 140.308)" fill="#ebebeb"/>
        <rect id="Rectángulo_37233" data-name="Rectángulo 37233" width="7.53" height="4.12" transform="translate(134.742 134.957)" fill="#407bff"/>
        <path id="Trazado_183716" data-name="Trazado 183716" d="M225.173,69.262h17.3A4.828,4.828,0,0,1,247.3,74.09v85.281a4.828,4.828,0,0,1-4.828,4.827h-17.3Z" transform="translate(-34.17 -10.51)" fill="#e0e0e0"/>
        <path id="Trazado_183717" data-name="Trazado 183717" d="M219.677,69.262H182.439a4.828,4.828,0,0,0-4.828,4.828v85.281a4.828,4.828,0,0,0,4.828,4.827h37.238a4.828,4.828,0,0,0,4.828-4.827V74.09a4.828,4.828,0,0,0-4.828-4.828" transform="translate(-26.952 -10.51)" fill="#fff"/>
        <rect id="Rectángulo_37234" data-name="Rectángulo 37234" width="46.894" height="0.881" transform="translate(150.659 133.996)" fill="#e0e0e0"/>
        <rect id="Rectángulo_37235" data-name="Rectángulo 37235" width="46.894" height="0.881" transform="translate(150.659 115.186)" fill="#e0e0e0"/>
        <rect id="Rectángulo_37236" data-name="Rectángulo 37236" width="46.894" height="0.881" transform="translate(150.659 96.374)" fill="#e0e0e0"/>
        <rect id="Rectángulo_37237" data-name="Rectángulo 37237" width="46.894" height="0.881" transform="translate(150.659 77.563)" fill="#e0e0e0"/>
        <g id="Grupo_141648" data-name="Grupo 141648" transform="translate(156.563 71.461)" opacity="0.6">
          <g id="Grupo_141647" data-name="Grupo 141647">
            <g id="Grupo_141646" data-name="Grupo 141646" clip-path="url(#clip-path-36)">
              <path id="Trazado_183718" data-name="Trazado 183718" d="M202.049,84.245H186.363a1.792,1.792,0,0,0,0,3.584h15.687a1.792,1.792,0,0,0,0-3.584" transform="translate(-184.572 -84.245)" fill="#407bff"/>
            </g>
          </g>
        </g>
        <g id="Grupo_141651" data-name="Grupo 141651" transform="translate(156.563 66.806)" opacity="0.6">
          <g id="Grupo_141650" data-name="Grupo 141650">
            <g id="Grupo_141649" data-name="Grupo 141649" clip-path="url(#clip-path-36)">
              <path id="Trazado_183719" data-name="Trazado 183719" d="M202.049,78.757H186.363a1.792,1.792,0,0,0,0,3.585h15.687a1.792,1.792,0,0,0,0-3.585" transform="translate(-184.572 -78.757)" fill="#407bff"/>
            </g>
          </g>
        </g>
        <g id="Grupo_141654" data-name="Grupo 141654" transform="translate(156.563 62.151)" opacity="0.6">
          <g id="Grupo_141653" data-name="Grupo 141653">
            <g id="Grupo_141652" data-name="Grupo 141652" clip-path="url(#clip-path-36)">
              <path id="Trazado_183720" data-name="Trazado 183720" d="M202.049,73.27H186.363a1.792,1.792,0,0,0,0,3.584h15.687a1.792,1.792,0,0,0,0-3.584" transform="translate(-184.572 -73.27)" fill="#407bff"/>
            </g>
          </g>
        </g>
        <rect id="Rectángulo_37241" data-name="Rectángulo 37241" width="6.549" height="3.584" transform="translate(177.479 137.396)" fill="#ebebeb"/>
        <rect id="Rectángulo_37242" data-name="Rectángulo 37242" width="6.549" height="3.584" transform="translate(177.479 142.051)" fill="#407bff"/>
        <rect id="Rectángulo_37243" data-name="Rectángulo 37243" width="6.549" height="3.584" transform="translate(177.479 146.705)" fill="#ebebeb"/>
        <rect id="Rectángulo_37244" data-name="Rectángulo 37244" width="6.549" height="3.584" transform="translate(185.099 137.396)" fill="#ebebeb"/>
        <rect id="Rectángulo_37245" data-name="Rectángulo 37245" width="6.549" height="3.584" transform="translate(185.099 142.051)" fill="#ebebeb"/>
        <rect id="Rectángulo_37246" data-name="Rectángulo 37246" width="6.549" height="3.584" transform="translate(185.099 146.705)" fill="#407bff"/>
        <path id="Trazado_183721" data-name="Trazado 183721" d="M202.049,106.421H186.363a1.792,1.792,0,0,0,0,3.584h15.687a1.792,1.792,0,0,0,0-3.584" transform="translate(-28.009 -16.149)" fill="#ebebeb"/>
        <g id="Grupo_141657" data-name="Grupo 141657" transform="translate(156.563 85.617)" opacity="0.6">
          <g id="Grupo_141656" data-name="Grupo 141656">
            <g id="Grupo_141655" data-name="Grupo 141655" clip-path="url(#clip-path-36)">
              <path id="Trazado_183722" data-name="Trazado 183722" d="M202.049,100.934H186.363a1.792,1.792,0,0,0,0,3.584h15.687a1.792,1.792,0,0,0,0-3.584" transform="translate(-184.572 -100.934)" fill="#407bff"/>
            </g>
          </g>
        </g>
        <g id="Grupo_141660" data-name="Grupo 141660" transform="translate(156.563 80.963)" opacity="0.6">
          <g id="Grupo_141659" data-name="Grupo 141659">
            <g id="Grupo_141658" data-name="Grupo 141658" clip-path="url(#clip-path-36)">
              <path id="Trazado_183723" data-name="Trazado 183723" d="M202.049,95.447H186.363a1.792,1.792,0,0,0,0,3.584h15.687a1.792,1.792,0,0,0,0-3.584" transform="translate(-184.572 -95.447)" fill="#407bff"/>
            </g>
          </g>
        </g>
        <rect id="Rectángulo_37249" data-name="Rectángulo 37249" width="6.549" height="3.584" transform="translate(177.479 118.585)" fill="#ebebeb"/>
        <rect id="Rectángulo_37250" data-name="Rectángulo 37250" width="6.549" height="3.584" transform="translate(177.479 123.239)" fill="#ebebeb"/>
        <rect id="Rectángulo_37251" data-name="Rectángulo 37251" width="6.549" height="3.584" transform="translate(177.479 127.894)" fill="#407bff"/>
        <rect id="Rectángulo_37252" data-name="Rectángulo 37252" width="6.549" height="3.584" transform="translate(185.099 118.585)" fill="#407bff"/>
        <rect id="Rectángulo_37253" data-name="Rectángulo 37253" width="6.549" height="3.584" transform="translate(185.099 123.239)" fill="#ebebeb"/>
        <rect id="Rectángulo_37254" data-name="Rectángulo 37254" width="6.549" height="3.584" transform="translate(185.099 127.894)" fill="#407bff"/>
        <g id="Grupo_141663" data-name="Grupo 141663" transform="translate(156.563 109.083)" opacity="0.6">
          <g id="Grupo_141662" data-name="Grupo 141662">
            <g id="Grupo_141661" data-name="Grupo 141661" clip-path="url(#clip-path-36)">
              <path id="Trazado_183724" data-name="Trazado 183724" d="M202.049,128.6H186.363a1.792,1.792,0,0,0,0,3.584h15.687a1.792,1.792,0,0,0,0-3.584" transform="translate(-184.572 -128.598)" fill="#407bff"/>
            </g>
          </g>
        </g>
        <g id="Grupo_141666" data-name="Grupo 141666" transform="translate(156.563 104.428)" opacity="0.6">
          <g id="Grupo_141665" data-name="Grupo 141665">
            <g id="Grupo_141664" data-name="Grupo 141664" clip-path="url(#clip-path-36)">
              <path id="Trazado_183725" data-name="Trazado 183725" d="M202.049,123.11H186.363a1.792,1.792,0,0,0,0,3.584h15.687a1.792,1.792,0,0,0,0-3.584" transform="translate(-184.572 -123.11)" fill="#407bff"/>
            </g>
          </g>
        </g>
        <g id="Grupo_141669" data-name="Grupo 141669" transform="translate(156.563 99.774)" opacity="0.6">
          <g id="Grupo_141668" data-name="Grupo 141668">
            <g id="Grupo_141667" data-name="Grupo 141667" clip-path="url(#clip-path-36)">
              <path id="Trazado_183726" data-name="Trazado 183726" d="M202.049,117.623H186.363a1.792,1.792,0,0,0,0,3.584h15.687a1.792,1.792,0,0,0,0-3.584" transform="translate(-184.572 -117.623)" fill="#407bff"/>
            </g>
          </g>
        </g>
        <rect id="Rectángulo_37258" data-name="Rectángulo 37258" width="6.549" height="3.584" transform="translate(177.479 99.774)" fill="#407bff"/>
        <rect id="Rectángulo_37259" data-name="Rectángulo 37259" width="6.549" height="3.584" transform="translate(177.479 104.428)" fill="#ebebeb"/>
        <rect id="Rectángulo_37260" data-name="Rectángulo 37260" width="6.549" height="3.584" transform="translate(177.479 109.082)" fill="#ebebeb"/>
        <rect id="Rectángulo_37261" data-name="Rectángulo 37261" width="6.549" height="3.584" transform="translate(185.099 99.774)" fill="#ebebeb"/>
        <rect id="Rectángulo_37262" data-name="Rectángulo 37262" width="6.549" height="3.584" transform="translate(185.099 104.428)" fill="#ebebeb"/>
        <rect id="Rectángulo_37263" data-name="Rectángulo 37263" width="6.549" height="3.584" transform="translate(185.099 109.082)" fill="#407bff"/>
        <g id="Grupo_141672" data-name="Grupo 141672" transform="translate(156.563 127.894)" opacity="0.6">
          <g id="Grupo_141671" data-name="Grupo 141671">
            <g id="Grupo_141670" data-name="Grupo 141670" clip-path="url(#clip-path-36)">
              <path id="Trazado_183727" data-name="Trazado 183727" d="M202.049,150.774H186.363a1.792,1.792,0,0,0,0,3.584h15.687a1.792,1.792,0,0,0,0-3.584" transform="translate(-184.572 -150.774)" fill="#407bff"/>
            </g>
          </g>
        </g>
        <g id="Grupo_141675" data-name="Grupo 141675" transform="translate(156.563 123.24)" opacity="0.6">
          <g id="Grupo_141674" data-name="Grupo 141674">
            <g id="Grupo_141673" data-name="Grupo 141673" clip-path="url(#clip-path-36)">
              <path id="Trazado_183728" data-name="Trazado 183728" d="M202.049,145.287H186.363a1.792,1.792,0,0,0,0,3.584h15.687a1.792,1.792,0,0,0,0-3.584" transform="translate(-184.572 -145.287)" fill="#407bff"/>
            </g>
          </g>
        </g>
        <g id="Grupo_141678" data-name="Grupo 141678" transform="translate(156.563 118.585)" opacity="0.6">
          <g id="Grupo_141677" data-name="Grupo 141677">
            <g id="Grupo_141676" data-name="Grupo 141676" clip-path="url(#clip-path-36)">
              <path id="Trazado_183729" data-name="Trazado 183729" d="M202.049,139.8H186.363a1.792,1.792,0,0,0,0,3.585h15.687a1.792,1.792,0,0,0,0-3.585" transform="translate(-184.572 -139.799)" fill="#407bff"/>
            </g>
          </g>
        </g>
        <rect id="Rectángulo_37267" data-name="Rectángulo 37267" width="6.549" height="3.584" transform="translate(177.479 80.962)" fill="#ebebeb"/>
        <rect id="Rectángulo_37268" data-name="Rectángulo 37268" width="6.549" height="3.584" transform="translate(177.479 85.616)" fill="#407bff"/>
        <rect id="Rectángulo_37269" data-name="Rectángulo 37269" width="6.549" height="3.584" transform="translate(177.479 90.272)" fill="#ebebeb"/>
        <rect id="Rectángulo_37270" data-name="Rectángulo 37270" width="6.549" height="3.584" transform="translate(185.099 80.962)" fill="#407bff"/>
        <rect id="Rectángulo_37271" data-name="Rectángulo 37271" width="6.549" height="3.584" transform="translate(185.099 85.616)" fill="#ebebeb"/>
        <rect id="Rectángulo_37272" data-name="Rectángulo 37272" width="6.549" height="3.584" transform="translate(185.099 90.272)" fill="#ebebeb"/>
        <g id="Grupo_141681" data-name="Grupo 141681" transform="translate(156.563 146.705)" opacity="0.6">
          <g id="Grupo_141680" data-name="Grupo 141680">
            <g id="Grupo_141679" data-name="Grupo 141679" clip-path="url(#clip-path-36)">
              <path id="Trazado_183730" data-name="Trazado 183730" d="M202.049,172.95H186.363a1.792,1.792,0,0,0,0,3.584h15.687a1.792,1.792,0,0,0,0-3.584" transform="translate(-184.572 -172.95)" fill="#407bff"/>
            </g>
          </g>
        </g>
        <g id="Grupo_141684" data-name="Grupo 141684" transform="translate(156.563 142.051)" opacity="0.6">
          <g id="Grupo_141683" data-name="Grupo 141683">
            <g id="Grupo_141682" data-name="Grupo 141682" clip-path="url(#clip-path-36)">
              <path id="Trazado_183731" data-name="Trazado 183731" d="M202.049,167.463H186.363a1.792,1.792,0,0,0,0,3.584h15.687a1.792,1.792,0,0,0,0-3.584" transform="translate(-184.572 -167.463)" fill="#407bff"/>
            </g>
          </g>
        </g>
        <g id="Grupo_141687" data-name="Grupo 141687" transform="translate(156.563 137.396)" opacity="0.6">
          <g id="Grupo_141686" data-name="Grupo 141686">
            <g id="Grupo_141685" data-name="Grupo 141685" clip-path="url(#clip-path-49)">
              <path id="Trazado_183732" data-name="Trazado 183732" d="M202.049,161.976H186.363a1.792,1.792,0,0,0,0,3.584h15.687a1.792,1.792,0,0,0,0-3.584" transform="translate(-184.572 -161.976)" fill="#407bff"/>
            </g>
          </g>
        </g>
        <rect id="Rectángulo_37276" data-name="Rectángulo 37276" width="6.549" height="3.584" transform="translate(177.479 62.151)" fill="#407bff"/>
        <rect id="Rectángulo_37277" data-name="Rectángulo 37277" width="6.549" height="3.584" transform="translate(177.479 66.806)" fill="#ebebeb"/>
        <rect id="Rectángulo_37278" data-name="Rectángulo 37278" width="6.549" height="3.584" transform="translate(177.479 71.46)" fill="#ebebeb"/>
        <rect id="Rectángulo_37279" data-name="Rectángulo 37279" width="6.549" height="3.584" transform="translate(185.099 62.151)" fill="#ebebeb"/>
        <rect id="Rectángulo_37280" data-name="Rectángulo 37280" width="6.549" height="3.584" transform="translate(185.099 66.806)" fill="#ebebeb"/>
        <rect id="Rectángulo_37281" data-name="Rectángulo 37281" width="6.549" height="3.584" transform="translate(185.099 71.46)" fill="#407bff"/>
      </g>
    </g>
  </g>
</svg>
