<svg xmlns="http://www.w3.org/2000/svg" xmlns:xlink="http://www.w3.org/1999/xlink" width="287.828" height="327.001" viewBox="0 0 287.828 327.001">
  <defs>
    <filter id="Trazado_183983" x="13.19" y="19.209" width="261.448" height="294.581" filterUnits="userSpaceOnUse">
      <feOffset dy="3" input="SourceAlpha"/>
      <feGaussianBlur stdDeviation="3" result="blur"/>
      <feFlood flood-opacity="0.161"/>
      <feComposite operator="in" in2="blur"/>
      <feComposite in="SourceGraphic"/>
    </filter>
    <clipPath id="clip-path">
      <rect id="Rectángulo_37448" data-name="Rectángulo 37448" width="125" height="106.926" fill="#039be5"/>
    </clipPath>
  </defs>
  <g id="img3" transform="translate(-2454.997 9109.059)">
    <path id="Trazado_183975" data-name="Trazado 183975" d="M236.6,0H90.4A17.306,17.306,0,0,0,75.416,8.653L2.319,135.261a17.3,17.3,0,0,0,0,17.306l73.1,126.608A17.307,17.307,0,0,0,90.4,287.828H236.6a17.306,17.306,0,0,0,14.987-8.653l73.1-126.608a17.3,17.3,0,0,0,0-17.306L251.585,8.653A17.305,17.305,0,0,0,236.6,0" transform="translate(2742.825 -9109.059) rotate(90)" fill="#039be5" fill-rule="evenodd"/>
    <g transform="matrix(1, 0, 0, 1, 2455, -9109.06)" filter="url(#Trazado_183983)">
      <path id="Trazado_183983-2" data-name="Trazado 183983" d="M200.117,0H76.464A14.638,14.638,0,0,0,63.788,7.319L1.961,114.405a14.637,14.637,0,0,0,0,14.638L63.788,236.13a14.639,14.639,0,0,0,12.677,7.319H200.117a14.638,14.638,0,0,0,12.676-7.319L274.62,129.043a14.637,14.637,0,0,0,0-14.638L212.793,7.319A14.637,14.637,0,0,0,200.117,0" transform="translate(265.64 25.21) rotate(90)" fill="#fff" fill-rule="evenodd"/>
    </g>
    <path id="Trazado_183987" data-name="Trazado 183987" d="M35.031,13.211A4.025,4.025,0,0,1,33.676,16.1a4.76,4.76,0,0,1-3.223,1.055,4.28,4.28,0,0,1-3.441-1.473,6.038,6.038,0,0,1-1.254-4.043v-.7a6.819,6.819,0,0,1,.578-2.891,4.332,4.332,0,0,1,1.652-1.918,4.629,4.629,0,0,1,2.5-.668,4.637,4.637,0,0,1,3.172,1.055,4.326,4.326,0,0,1,1.391,2.961H32.7a2.376,2.376,0,0,0-.613-1.6,2.271,2.271,0,0,0-1.605-.5,1.991,1.991,0,0,0-1.754.84,4.707,4.707,0,0,0-.6,2.605V11.7a5.038,5.038,0,0,0,.559,2.7,1.954,1.954,0,0,0,1.762.852,2.314,2.314,0,0,0,1.621-.5,2.241,2.241,0,0,0,.613-1.535ZM36.07,12.7a5.013,5.013,0,0,1,.484-2.242A3.546,3.546,0,0,1,37.949,8.93a4.069,4.069,0,0,1,2.113-.539,3.849,3.849,0,0,1,2.793,1.047,4.2,4.2,0,0,1,1.207,2.844l.016.578a4.418,4.418,0,0,1-1.086,3.121,4.209,4.209,0,0,1-5.832,0A4.5,4.5,0,0,1,36.07,12.8Zm2.258.16a3.16,3.16,0,0,0,.453,1.843,1.628,1.628,0,0,0,2.578.008,3.457,3.457,0,0,0,.461-2.015,3.128,3.128,0,0,0-.461-1.831,1.5,1.5,0,0,0-1.3-.649,1.474,1.474,0,0,0-1.281.646A3.516,3.516,0,0,0,38.328,12.856Zm11.719,1.808a.727.727,0,0,0-.41-.652,4.659,4.659,0,0,0-1.316-.426Q45.3,12.953,45.3,11.023a2.323,2.323,0,0,1,.934-1.879,3.766,3.766,0,0,1,2.441-.754,4.053,4.053,0,0,1,2.574.758,2.388,2.388,0,0,1,.965,1.969H49.961a1.092,1.092,0,0,0-.312-.8A1.322,1.322,0,0,0,48.672,10a1.351,1.351,0,0,0-.883.258.814.814,0,0,0-.312.656.7.7,0,0,0,.355.605,3.657,3.657,0,0,0,1.2.4,9.8,9.8,0,0,1,1.422.379,2.336,2.336,0,0,1,1.789,2.273,2.2,2.2,0,0,1-.992,1.871,4.28,4.28,0,0,1-2.562.715,4.47,4.47,0,0,1-1.887-.379,3.166,3.166,0,0,1-1.293-1.039,2.414,2.414,0,0,1-.469-1.426H47.18a1.179,1.179,0,0,0,.445.922,1.766,1.766,0,0,0,1.109.32,1.635,1.635,0,0,0,.98-.246A.766.766,0,0,0,50.047,14.664Zm6.352-8.2V8.547h1.445V10.2H56.4v4.219a1.007,1.007,0,0,0,.18.672.9.9,0,0,0,.688.2,3.6,3.6,0,0,0,.664-.055v1.711a4.648,4.648,0,0,1-1.367.2,2.156,2.156,0,0,1-2.422-2.4V10.2H52.906V8.547h1.234V6.469ZM58.516,12.7A5.013,5.013,0,0,1,59,10.453,3.546,3.546,0,0,1,60.395,8.93a4.069,4.069,0,0,1,2.113-.539A3.849,3.849,0,0,1,65.3,9.438a4.2,4.2,0,0,1,1.207,2.844l.016.578a4.418,4.418,0,0,1-1.086,3.121,4.209,4.209,0,0,1-5.832,0,4.5,4.5,0,0,1-1.09-3.187Zm2.258.16a3.16,3.16,0,0,0,.453,1.843,1.628,1.628,0,0,0,2.578.008,3.457,3.457,0,0,0,.461-2.015A3.128,3.128,0,0,0,63.8,10.86a1.5,1.5,0,0,0-1.3-.649,1.474,1.474,0,0,0-1.281.646A3.516,3.516,0,0,0,60.773,12.856Zm11.719,1.808a.727.727,0,0,0-.41-.652,4.659,4.659,0,0,0-1.316-.426q-3.016-.633-3.016-2.562a2.323,2.323,0,0,1,.934-1.879,3.766,3.766,0,0,1,2.441-.754,4.053,4.053,0,0,1,2.574.758,2.388,2.388,0,0,1,.965,1.969H72.406a1.092,1.092,0,0,0-.312-.8A1.322,1.322,0,0,0,71.117,10a1.351,1.351,0,0,0-.883.258.814.814,0,0,0-.312.656.7.7,0,0,0,.355.605,3.657,3.657,0,0,0,1.2.4A9.8,9.8,0,0,1,72.9,12.3a2.336,2.336,0,0,1,1.789,2.273,2.2,2.2,0,0,1-.992,1.871,4.28,4.28,0,0,1-2.562.715,4.47,4.47,0,0,1-1.887-.379,3.166,3.166,0,0,1-1.293-1.039,2.414,2.414,0,0,1-.469-1.426h2.141a1.179,1.179,0,0,0,.445.922,1.766,1.766,0,0,0,1.109.32,1.635,1.635,0,0,0,.98-.246A.766.766,0,0,0,72.492,14.664Zm9.75-6.117.07.945a2.971,2.971,0,0,1,2.43-1.1A2.255,2.255,0,0,1,86.984,9.68a2.9,2.9,0,0,1,2.539-1.289,2.521,2.521,0,0,1,2.047.8,3.681,3.681,0,0,1,.672,2.41V17H89.977V11.609a1.61,1.61,0,0,0-.281-1.051,1.246,1.246,0,0,0-.992-.332A1.409,1.409,0,0,0,87.3,11.2L87.3,17H85.047V11.617a1.59,1.59,0,0,0-.289-1.062,1.259,1.259,0,0,0-.984-.328,1.463,1.463,0,0,0-1.391.8V17H80.125V8.547ZM98.875,17a2.507,2.507,0,0,1-.227-.758,2.732,2.732,0,0,1-2.133.914,3,3,0,0,1-2.059-.719,2.312,2.312,0,0,1-.816-1.812,2.389,2.389,0,0,1,1-2.062,4.915,4.915,0,0,1,2.879-.727h1.039v-.484a1.393,1.393,0,0,0-.3-.937,1.183,1.183,0,0,0-.949-.352,1.345,1.345,0,0,0-.895.273.929.929,0,0,0-.324.75H93.828a2.268,2.268,0,0,1,.453-1.359,3,3,0,0,1,1.281-.98,4.669,4.669,0,0,1,1.859-.355,3.689,3.689,0,0,1,2.48.785,2.747,2.747,0,0,1,.918,2.207v3.664a4.041,4.041,0,0,0,.336,1.82V17Zm-1.867-1.57a1.945,1.945,0,0,0,.922-.223,1.462,1.462,0,0,0,.625-.6V13.156h-.844q-1.7,0-1.8,1.172l-.008.133a.9.9,0,0,0,.3.7A1.153,1.153,0,0,0,97.008,15.43ZM97.867,5h2.461L98.164,7.422H96.328Zm9.266,9.664a.727.727,0,0,0-.41-.652,4.659,4.659,0,0,0-1.316-.426q-3.016-.633-3.016-2.562a2.323,2.323,0,0,1,.934-1.879,3.766,3.766,0,0,1,2.441-.754,4.053,4.053,0,0,1,2.574.758,2.388,2.388,0,0,1,.965,1.969h-2.258a1.092,1.092,0,0,0-.312-.8,1.322,1.322,0,0,0-.977-.316,1.351,1.351,0,0,0-.883.258.814.814,0,0,0-.312.656.7.7,0,0,0,.355.605,3.657,3.657,0,0,0,1.2.4,9.8,9.8,0,0,1,1.422.379,2.336,2.336,0,0,1,1.789,2.273,2.2,2.2,0,0,1-.992,1.871,4.28,4.28,0,0,1-2.562.715,4.47,4.47,0,0,1-1.887-.379,3.166,3.166,0,0,1-1.293-1.039,2.414,2.414,0,0,1-.469-1.426h2.141a1.179,1.179,0,0,0,.445.922,1.766,1.766,0,0,0,1.109.32,1.635,1.635,0,0,0,.98-.246A.766.766,0,0,0,107.133,14.664ZM31.227,41V34.2H29.969V32.547h1.258v-.719a2.918,2.918,0,0,1,.816-2.207,3.162,3.162,0,0,1,2.285-.785,5.278,5.278,0,0,1,1.148.156l-.023,1.75a2.878,2.878,0,0,0-.687-.07q-1.273,0-1.273,1.2v.68h1.68V34.2h-1.68V41Zm10.016,0a2.507,2.507,0,0,1-.227-.758,2.732,2.732,0,0,1-2.133.914,3,3,0,0,1-2.059-.719,2.312,2.312,0,0,1-.816-1.812,2.389,2.389,0,0,1,1-2.062,4.915,4.915,0,0,1,2.879-.727h1.039v-.484a1.393,1.393,0,0,0-.3-.937,1.183,1.183,0,0,0-.949-.352,1.345,1.345,0,0,0-.895.273.929.929,0,0,0-.324.75H36.2a2.268,2.268,0,0,1,.453-1.359,3,3,0,0,1,1.281-.98,4.669,4.669,0,0,1,1.859-.355,3.689,3.689,0,0,1,2.48.785,2.747,2.747,0,0,1,.918,2.207v3.664a4.041,4.041,0,0,0,.336,1.82V41Zm-1.867-1.57a1.945,1.945,0,0,0,.922-.223,1.462,1.462,0,0,0,.625-.6V37.156h-.844q-1.7,0-1.8,1.172l-.008.133a.9.9,0,0,0,.3.7A1.153,1.153,0,0,0,39.375,39.43Zm8.594-1.187,1.57-5.7H51.9L49.047,41H46.891l-2.852-8.453H46.4ZM52.422,36.7a5.013,5.013,0,0,1,.484-2.242A3.546,3.546,0,0,1,54.3,32.93a4.069,4.069,0,0,1,2.113-.539,3.849,3.849,0,0,1,2.793,1.047,4.2,4.2,0,0,1,1.207,2.844l.016.578a4.418,4.418,0,0,1-1.086,3.121,4.209,4.209,0,0,1-5.832,0,4.5,4.5,0,0,1-1.09-3.187Zm2.258.16a3.16,3.16,0,0,0,.453,1.843,1.628,1.628,0,0,0,2.578.008,3.457,3.457,0,0,0,.461-2.015,3.128,3.128,0,0,0-.461-1.831,1.5,1.5,0,0,0-1.3-.649,1.474,1.474,0,0,0-1.281.646A3.516,3.516,0,0,0,54.68,36.856ZM66.57,34.664a6.134,6.134,0,0,0-.812-.062,1.654,1.654,0,0,0-1.68.867V41H61.82V32.547h2.133l.063,1.008A2.092,2.092,0,0,1,65.9,32.391a2.366,2.366,0,0,1,.7.1ZM72.32,41a2.507,2.507,0,0,1-.227-.758,2.732,2.732,0,0,1-2.133.914,3,3,0,0,1-2.059-.719,2.312,2.312,0,0,1-.816-1.812,2.389,2.389,0,0,1,1-2.062,4.915,4.915,0,0,1,2.879-.727H72v-.484a1.393,1.393,0,0,0-.3-.937,1.183,1.183,0,0,0-.949-.352,1.345,1.345,0,0,0-.895.273.929.929,0,0,0-.324.75H67.273a2.268,2.268,0,0,1,.453-1.359,3,3,0,0,1,1.281-.98,4.669,4.669,0,0,1,1.859-.355,3.689,3.689,0,0,1,2.48.785,2.747,2.747,0,0,1,.918,2.207v3.664a4.041,4.041,0,0,0,.336,1.82V41Zm-1.867-1.57a1.945,1.945,0,0,0,.922-.223,1.462,1.462,0,0,0,.625-.6V37.156h-.844q-1.7,0-1.8,1.172l-.008.133a.9.9,0,0,0,.3.7A1.153,1.153,0,0,0,70.453,39.43Zm13.164-2.578a5.119,5.119,0,0,1-.867,3.168,2.872,2.872,0,0,1-2.422,1.137,2.639,2.639,0,0,1-2.2-1.055l-.1.9H76V29h2.258v4.3a2.571,2.571,0,0,1,2.055-.914,2.9,2.9,0,0,1,2.426,1.137,5.126,5.126,0,0,1,.879,3.2Zm-2.258-.164a3.363,3.363,0,0,0-.406-1.871,1.374,1.374,0,0,0-1.211-.59,1.489,1.489,0,0,0-1.484.883v3.336a1.509,1.509,0,0,0,1.5.891A1.394,1.394,0,0,0,81.2,38.258,5.562,5.562,0,0,0,81.359,36.688ZM87.391,41H85.125V29h2.266Zm5.75.156a4.15,4.15,0,0,1-3.027-1.141,4.054,4.054,0,0,1-1.168-3.039v-.219a5.106,5.106,0,0,1,.492-2.277,3.612,3.612,0,0,1,1.395-1.547,3.914,3.914,0,0,1,2.059-.543,3.508,3.508,0,0,1,2.73,1.094,4.444,4.444,0,0,1,1,3.1v.922H91.234a2.1,2.1,0,0,0,.66,1.328,2,2,0,0,0,1.395.5,2.437,2.437,0,0,0,2.039-.945l1.109,1.242a3.389,3.389,0,0,1-1.375,1.121A4.511,4.511,0,0,1,93.141,41.156Zm-.258-6.945a1.411,1.411,0,0,0-1.09.455,2.357,2.357,0,0,0-.535,1.3H94.4v-.181a1.681,1.681,0,0,0-.406-1.165A1.456,1.456,0,0,0,92.883,34.211Zm9.594,4.453a.727.727,0,0,0-.41-.652,4.659,4.659,0,0,0-1.316-.426q-3.016-.633-3.016-2.562a2.323,2.323,0,0,1,.934-1.879,3.766,3.766,0,0,1,2.441-.754,4.053,4.053,0,0,1,2.574.758,2.388,2.388,0,0,1,.965,1.969h-2.258a1.092,1.092,0,0,0-.312-.8A1.322,1.322,0,0,0,101.1,34a1.351,1.351,0,0,0-.883.258.814.814,0,0,0-.312.656.7.7,0,0,0,.355.605,3.657,3.657,0,0,0,1.2.4,9.8,9.8,0,0,1,1.422.379,2.336,2.336,0,0,1,1.789,2.273,2.2,2.2,0,0,1-.992,1.871,4.28,4.28,0,0,1-2.562.715,4.47,4.47,0,0,1-1.887-.379,3.166,3.166,0,0,1-1.293-1.039,2.414,2.414,0,0,1-.469-1.426h2.141a1.179,1.179,0,0,0,.445.922,1.766,1.766,0,0,0,1.109.32,1.635,1.635,0,0,0,.98-.246A.766.766,0,0,0,102.477,38.664Z" transform="translate(2529 -8903.076)" fill="#12263f"/>
    <g id="Grupo_141831" data-name="Grupo 141831" transform="translate(2529 -9027.783)">
      <g id="Grupo_141814" data-name="Grupo 141814" clip-path="url(#clip-path)">
        <path id="Trazado_183868" data-name="Trazado 183868" d="M113.851,55.277c-.232-12.717-.267-26.7-.035-43.983.018-1.832.053-5.692-2.722-8.484C108.337,0,104.407,0,103.126,0h-.213C91.032.106,78.866.177,65.9.177,63.393.2,60.85.2,58.289.2,48.418.2,38.547.177,28.569.124c-2.241,0-5.513.285-7.95,2.793-2.455,2.472-2.685,5.763-2.65,8,.266,15.918.32,30.537.177,44.713-.035,2.312.249,5.674,2.775,8.217,2.508,2.525,5.8,2.827,8.057,2.827h.48c4.749-.089,9.942-.142,16.345-.142,3.45,0,6.9.018,10.333.035,1.476,0,2.952.018,4.411.018v.018h5.958c3.38,0,6.759-.018,10.12-.018,3.361-.018,6.723-.035,10.067-.035,6.047,0,10.955.035,15.455.142h.64c1.512,0,5.478,0,8.306-2.881,2.579-2.632,2.81-6.135,2.757-8.537m-11.579,5.46c-11.916-.267-23.85-.089-35.767-.089v-.035h-.6c-12.184,0-24.366-.143-36.549.089-3.878.089-5.283-.925-5.247-5q.241-22.437-.177-44.872c-.053-3.7,1.032-4.749,4.713-4.731q18.621.08,37.261.053,18.54-.027,37.065-.2c4.251-.035,4.926,1.512,4.873,5.265-.177,14.726-.231,29.452.053,44.179.09,4.518-1.458,5.425-5.62,5.336" transform="translate(-3.474)" fill="#039be5"/>
        <path id="Trazado_183869" data-name="Trazado 183869" d="M120.657,124.328H4.34A4.34,4.34,0,0,1,.462,118.05L13.286,92.386A4.341,4.341,0,0,1,17.163,90h90.244a4.312,4.312,0,0,1,3.841,2.33L124.517,118a4.347,4.347,0,0,1-3.86,6.331" transform="translate(0 -17.402)" fill="#039be5"/>
        <path id="Trazado_183870" data-name="Trazado 183870" d="M122.584,63.814c-2.828,2.881-6.794,2.881-8.306,2.881h-.64c-4.5-.106-9.409-.142-15.456-.142-3.344,0-6.7.018-10.066.035-3.361,0-6.741.018-10.12.018h-.6V60.612H78v.035c11.917,0,23.85-.177,35.767.09,4.162.089,5.709-.819,5.62-5.336-.285-14.726-.231-29.452-.053-44.179.053-3.753-.623-5.3-4.873-5.264q-18.542.186-37.065.2V.177C90.356.177,102.521.106,114.4,0h.213c1.281,0,5.211,0,7.968,2.81,2.775,2.793,2.739,6.652,2.722,8.484-.231,17.287-.2,31.267.035,43.983.053,2.4-.178,5.9-2.757,8.537" transform="translate(-14.964)" fill="#039be5"/>
        <path id="Trazado_183871" data-name="Trazado 183871" d="M135.621,124.328H77.391V90h44.98a4.312,4.312,0,0,1,3.841,2.33L139.48,118a4.347,4.347,0,0,1-3.86,6.331" transform="translate(-14.964 -17.402)" fill="#039be5"/>
      </g>
    </g>
  </g>
</svg>
