<svg xmlns="http://www.w3.org/2000/svg" xmlns:xlink="http://www.w3.org/1999/xlink" width="190" height="190" viewBox="0 0 190 190">
  <defs>
    <clipPath id="clip-path">
      <rect id="Rectángulo_36759" data-name="Rectángulo 36759" width="138.095" height="98.361" fill="#fff"/>
    </clipPath>
  </defs>
  <g id="img3" transform="translate(-285 -3055.508)">
    <circle id="Elipse_4101" data-name="Elipse 4101" cx="95" cy="95" r="95" transform="translate(285 3055.508)" fill="#4dd0e1"/>
    <g id="Grupo_141706" data-name="Grupo 141706" transform="translate(315.173 3106.82)">
      <g id="Grupo_130700" data-name="Grupo 130700" clip-path="url(#clip-path)">
        <path id="Trazado_146156" data-name="Trazado 146156" d="M57.184,245.638H1.132A1.132,1.132,0,0,1,0,244.506V229.992a1.132,1.132,0,0,1,1.132-1.132H57.184a1.132,1.132,0,0,1,1.132,1.132v14.514a1.132,1.132,0,0,1-1.132,1.132m-54.92-2.264H56.052v-12.25H2.264Z" transform="translate(0 -147.277)" fill="#fff"/>
        <path id="Trazado_146157" data-name="Trazado 146157" d="M57.184,216.966H1.134a1.132,1.132,0,0,1-.652-2.057L11.6,207.065a1.133,1.133,0,0,1,.652-.207H18.3a1.132,1.132,0,0,1,1.132,1.132v2.791H62.741a1.132,1.132,0,0,1,.653,2.057l-5.557,3.921a1.136,1.136,0,0,1-.653.207M4.7,214.7H56.825l2.348-1.657H18.3a1.132,1.132,0,0,1-1.132-1.132v-2.791H12.612Z" transform="translate(-0.002 -133.118)" fill="#fff"/>
        <path id="Trazado_146158" data-name="Trazado 146158" d="M158.368,238.933a1.131,1.131,0,0,1-1.132-1.132V223.289a1.131,1.131,0,0,1,.479-.925l5.557-3.921,1.3,1.85-5.078,3.582v11.742l8.856-6.244V219.368h2.263V229.96a1.131,1.131,0,0,1-.479.925l-11.119,7.841a1.131,1.131,0,0,1-.652.207" transform="translate(-101.185 -140.573)" fill="#fff"/>
        <path id="Trazado_146159" data-name="Trazado 146159" d="M105.334,193.925H49.281a1.132,1.132,0,0,1-1.131-1.132V178.278a1.132,1.132,0,0,1,1.131-1.132h56.052a1.132,1.132,0,0,1,1.131,1.132v14.515a1.132,1.132,0,0,1-1.131,1.132m-54.92-2.264H104.2V179.41H50.413Z" transform="translate(-30.986 -113.998)" fill="#fff"/>
        <path id="Trazado_146160" data-name="Trazado 146160" d="M105.333,165.251H49.281a1.132,1.132,0,0,1-.652-2.057l11.119-7.843a1.13,1.13,0,0,1,.652-.207h6.047a1.132,1.132,0,0,1,1.131,1.132v2.791H110.89a1.132,1.132,0,0,1,.652,2.057l-5.557,3.921a1.132,1.132,0,0,1-.652.207m-52.484-2.264h52.125l2.348-1.657H66.446a1.132,1.132,0,0,1-1.132-1.132v-2.79H60.758Z" transform="translate(-30.985 -99.839)" fill="#fff"/>
        <path id="Trazado_146161" data-name="Trazado 146161" d="M208.039,188.684l-1.3-1.85,10.639-7.505v-10h2.264v10.592a1.131,1.131,0,0,1-.479.925Z" transform="translate(-133.038 -108.964)" fill="#fff"/>
        <rect id="Rectángulo_36756" data-name="Rectángulo 36756" width="6.801" height="2.264" transform="matrix(0.817, -0.576, 0.576, 0.817, 73.695, 63.355)" fill="#fff"/>
        <path id="Trazado_146162" data-name="Trazado 146162" d="M153.486,142.21H97.434a1.132,1.132,0,0,1-1.132-1.132V126.564a1.132,1.132,0,0,1,1.132-1.132h56.052a1.132,1.132,0,0,1,1.132,1.132v14.514a1.132,1.132,0,0,1-1.132,1.132m-54.921-2.264h53.789V127.7H98.565Z" transform="translate(-61.973 -80.718)" fill="#fff"/>
        <path id="Trazado_146163" data-name="Trazado 146163" d="M153.485,113.537H97.433a1.132,1.132,0,0,1-.652-2.057l11.119-7.844a1.13,1.13,0,0,1,.652-.207H114.6a1.132,1.132,0,0,1,1.131,1.132v2.791h43.313a1.132,1.132,0,0,1,.652,2.057l-5.557,3.921a1.135,1.135,0,0,1-.653.207M101,111.273h52.125l2.348-1.657H114.6a1.132,1.132,0,0,1-1.132-1.132v-2.791H108.91Z" transform="translate(-61.972 -66.559)" fill="#fff"/>
        <path id="Trazado_146164" data-name="Trazado 146164" d="M256.192,136.969l-1.3-1.85,10.639-7.505v-10h2.263V128.2a1.131,1.131,0,0,1-.479.925Z" transform="translate(-164.026 -75.684)" fill="#fff"/>
        <rect id="Rectángulo_36757" data-name="Rectángulo 36757" width="6.801" height="2.264" transform="matrix(0.817, -0.576, 0.576, 0.817, 90.861, 44.92)" fill="#fff"/>
        <path id="Trazado_146165" data-name="Trazado 146165" d="M201.638,90.5H145.586a1.132,1.132,0,0,1-1.132-1.132V74.849a1.132,1.132,0,0,1,1.132-1.132h56.052a1.132,1.132,0,0,1,1.132,1.132V89.363a1.132,1.132,0,0,1-1.132,1.132m-54.92-2.264h53.789V75.981H146.718Z" transform="translate(-92.96 -47.439)" fill="#fff"/>
        <path id="Trazado_146166" data-name="Trazado 146166" d="M201.638,61.822H145.586a1.132,1.132,0,0,1-.652-2.057l11.119-7.843a1.13,1.13,0,0,1,.652-.207h6.046a1.132,1.132,0,0,1,1.131,1.132v2.791H207.2a1.132,1.132,0,0,1,.652,2.057l-5.557,3.921a1.135,1.135,0,0,1-.653.207m-52.484-2.264h52.125l2.348-1.657H162.751a1.132,1.132,0,0,1-1.132-1.132v-2.79h-4.556Z" transform="translate(-92.959 -33.28)" fill="#fff"/>
        <path id="Trazado_146167" data-name="Trazado 146167" d="M304.344,85.255l-1.3-1.85L313.678,75.9v-10h2.264V76.487a1.132,1.132,0,0,1-.479.925Z" transform="translate(-195.013 -42.405)" fill="#fff"/>
        <rect id="Rectángulo_36758" data-name="Rectángulo 36758" width="6.801" height="2.264" transform="matrix(0.817, -0.576, 0.576, 0.817, 108.026, 26.485)" fill="#fff"/>
        <path id="Trazado_146168" data-name="Trazado 146168" d="M249.791,38.781H193.738a1.132,1.132,0,0,1-1.131-1.132V23.134A1.132,1.132,0,0,1,193.738,22h56.053a1.132,1.132,0,0,1,1.131,1.132V37.648a1.132,1.132,0,0,1-1.131,1.132M194.87,36.517h53.789V24.266H194.87Z" transform="translate(-123.947 -14.159)" fill="#fff"/>
        <path id="Trazado_146169" data-name="Trazado 146169" d="M249.79,10.107H193.738a1.132,1.132,0,0,1-.652-2.057L204.2.207A1.132,1.132,0,0,1,204.857,0h56.052a1.132,1.132,0,0,1,.652,2.057L250.442,9.9a1.13,1.13,0,0,1-.652.207M197.306,7.843h52.125l7.91-5.579H205.215Z" transform="translate(-123.946)" fill="#fff"/>
        <path id="Trazado_146170" data-name="Trazado 146170" d="M352.5,24.415l-1.3-1.85,10.639-7.505V3.316L352.5,9.9l-1.3-1.85L362.311.207a1.132,1.132,0,0,1,1.784.925V15.646a1.131,1.131,0,0,1-.479.925Z" transform="translate(-226 0)" fill="#fff"/>
      </g>
    </g>
  </g>
</svg>
