<svg xmlns="http://www.w3.org/2000/svg" xmlns:xlink="http://www.w3.org/1999/xlink" width="287.828" height="327.001" viewBox="0 0 287.828 327.001">
  <defs>
    <filter id="Trazado_183984" x="13.19" y="19.209" width="261.448" height="294.581" filterUnits="userSpaceOnUse">
      <feOffset dy="3" input="SourceAlpha"/>
      <feGaussianBlur stdDeviation="3" result="blur"/>
      <feFlood flood-opacity="0.161"/>
      <feComposite operator="in" in2="blur"/>
      <feComposite in="SourceGraphic"/>
    </filter>
    <clipPath id="clip-path">
      <rect id="Rectángulo_37449" data-name="Rectángulo 37449" width="125" height="116.736" fill="#feca2e"/>
    </clipPath>
  </defs>
  <g id="img4" transform="translate(-2759 9109.059)">
    <path id="Trazado_183977" data-name="Trazado 183977" d="M236.6,0H90.4A17.306,17.306,0,0,0,75.416,8.653L2.319,135.261a17.3,17.3,0,0,0,0,17.306l73.1,126.608A17.307,17.307,0,0,0,90.4,287.828H236.6a17.306,17.306,0,0,0,14.987-8.653l73.1-126.608a17.3,17.3,0,0,0,0-17.306L251.585,8.653A17.305,17.305,0,0,0,236.6,0" transform="translate(3046.828 -9109.059) rotate(90)" fill="#feca2e" fill-rule="evenodd"/>
    <g transform="matrix(1, 0, 0, 1, 2759, -9109.06)" filter="url(#Trazado_183984)">
      <path id="Trazado_183984-2" data-name="Trazado 183984" d="M200.117,0H76.464A14.638,14.638,0,0,0,63.788,7.319L1.961,114.405a14.637,14.637,0,0,0,0,14.638L63.788,236.13a14.639,14.639,0,0,0,12.677,7.319H200.117a14.638,14.638,0,0,0,12.676-7.319L274.62,129.043a14.637,14.637,0,0,0,0-14.638L212.793,7.319A14.637,14.637,0,0,0,200.117,0" transform="translate(265.64 25.21) rotate(90)" fill="#fff" fill-rule="evenodd"/>
    </g>
    <path id="Trazado_183988" data-name="Trazado 183988" d="M22.327,5.625l2.922,8.25,2.906-8.25h3.078V17H28.882V13.891l.234-5.367L26.046,17H24.436L21.374,8.531l.234,5.359V17H19.264V5.625ZM38.03,17a2.507,2.507,0,0,1-.227-.758,2.732,2.732,0,0,1-2.133.914,3,3,0,0,1-2.059-.719,2.312,2.312,0,0,1-.816-1.812,2.389,2.389,0,0,1,1-2.062,4.915,4.915,0,0,1,2.879-.727H37.71v-.484a1.393,1.393,0,0,0-.3-.937,1.183,1.183,0,0,0-.949-.352,1.345,1.345,0,0,0-.895.273.929.929,0,0,0-.324.75H32.983a2.268,2.268,0,0,1,.453-1.359,3,3,0,0,1,1.281-.98,4.669,4.669,0,0,1,1.859-.355,3.689,3.689,0,0,1,2.48.785,2.747,2.747,0,0,1,.918,2.207v3.664a4.041,4.041,0,0,0,.336,1.82V17Zm-1.867-1.57a1.945,1.945,0,0,0,.922-.223,1.462,1.462,0,0,0,.625-.6V13.156h-.844q-1.7,0-1.8,1.172l-.008.133a.9.9,0,0,0,.3.7A1.153,1.153,0,0,0,36.163,15.43Zm8.7-1.625,1.563-5.258H48.85l-3.4,9.766-.187.445a2.577,2.577,0,0,1-2.5,1.656,3.552,3.552,0,0,1-1-.148V18.555l.344.008a1.857,1.857,0,0,0,.957-.2,1.283,1.283,0,0,0,.5-.648l.266-.7L40.866,8.547H43.3ZM49.389,12.7a5.013,5.013,0,0,1,.484-2.242A3.546,3.546,0,0,1,51.268,8.93a4.069,4.069,0,0,1,2.113-.539,3.849,3.849,0,0,1,2.793,1.047,4.2,4.2,0,0,1,1.207,2.844l.016.578a4.418,4.418,0,0,1-1.086,3.121,4.209,4.209,0,0,1-5.832,0,4.5,4.5,0,0,1-1.09-3.187Zm2.258.16A3.16,3.16,0,0,0,52.1,14.7a1.628,1.628,0,0,0,2.578.008,3.457,3.457,0,0,0,.461-2.015,3.128,3.128,0,0,0-.461-1.831,1.5,1.5,0,0,0-1.3-.649,1.474,1.474,0,0,0-1.281.646A3.516,3.516,0,0,0,51.647,12.856Zm11.891-2.192a6.134,6.134,0,0,0-.812-.062,1.654,1.654,0,0,0-1.68.867V17H58.788V8.547h2.133l.063,1.008a2.092,2.092,0,0,1,1.883-1.164,2.366,2.366,0,0,1,.7.1ZM10.425,38.242l1.57-5.7h2.359L11.5,41H9.346L6.495,32.547H8.854Zm8.813,2.914a4.15,4.15,0,0,1-3.027-1.141,4.054,4.054,0,0,1-1.168-3.039v-.219a5.106,5.106,0,0,1,.492-2.277,3.612,3.612,0,0,1,1.395-1.547,3.914,3.914,0,0,1,2.059-.543,3.508,3.508,0,0,1,2.73,1.094,4.444,4.444,0,0,1,1,3.1v.922H17.331a2.1,2.1,0,0,0,.66,1.328,2,2,0,0,0,1.395.5,2.437,2.437,0,0,0,2.039-.945l1.109,1.242a3.389,3.389,0,0,1-1.375,1.121A4.511,4.511,0,0,1,19.237,41.156Zm-.258-6.945a1.411,1.411,0,0,0-1.09.455,2.357,2.357,0,0,0-.535,1.3h3.141v-.181a1.681,1.681,0,0,0-.406-1.165A1.456,1.456,0,0,0,18.979,34.211ZM26.378,41H24.112V29h2.266Zm1.508-4.3a5.013,5.013,0,0,1,.484-2.242,3.546,3.546,0,0,1,1.395-1.523,4.069,4.069,0,0,1,2.113-.539,3.849,3.849,0,0,1,2.793,1.047,4.2,4.2,0,0,1,1.207,2.844l.016.578a4.418,4.418,0,0,1-1.086,3.121,3.775,3.775,0,0,1-2.914,1.176,3.793,3.793,0,0,1-2.918-1.172,4.5,4.5,0,0,1-1.09-3.187Zm2.258.16A3.16,3.16,0,0,0,30.6,38.7a1.628,1.628,0,0,0,2.578.008,3.457,3.457,0,0,0,.461-2.015,3.128,3.128,0,0,0-.461-1.831,1.5,1.5,0,0,0-1.3-.649,1.474,1.474,0,0,0-1.281.646A3.516,3.516,0,0,0,30.143,36.856ZM40.8,39.336a1.481,1.481,0,0,0,1.016-.344,1.2,1.2,0,0,0,.406-.914h2.117a2.9,2.9,0,0,1-.469,1.574,3.093,3.093,0,0,1-1.262,1.109,3.949,3.949,0,0,1-1.77.395A3.67,3.67,0,0,1,37.979,40a4.56,4.56,0,0,1-1.047-3.184v-.148a4.508,4.508,0,0,1,1.039-3.117,3.627,3.627,0,0,1,2.852-1.164,3.555,3.555,0,0,1,2.543.9,3.2,3.2,0,0,1,.973,2.4H42.221a1.551,1.551,0,0,0-.406-1.072,1.51,1.51,0,0,0-2.223.163,3.333,3.333,0,0,0-.4,1.866v.235a3.375,3.375,0,0,0,.4,1.878A1.377,1.377,0,0,0,40.8,39.336ZM48.011,41H45.745V32.547h2.266Zm-2.4-10.641a1.112,1.112,0,0,1,.34-.836,1.465,1.465,0,0,1,1.848,0,1.193,1.193,0,0,1,0,1.68,1.448,1.448,0,0,1-1.836,0A1.108,1.108,0,0,1,45.612,30.359Zm3.906,6.352a5.094,5.094,0,0,1,.887-3.148,2.877,2.877,0,0,1,2.426-1.172,2.589,2.589,0,0,1,2.039.922V29h2.266V41H55.1l-.109-.9a2.657,2.657,0,0,1-2.172,1.055,2.869,2.869,0,0,1-2.395-1.176A5.258,5.258,0,0,1,49.518,36.711Zm2.258.168A3.337,3.337,0,0,0,52.19,38.7a1.349,1.349,0,0,0,1.2.634,1.511,1.511,0,0,0,1.477-.884V35.111a1.489,1.489,0,0,0-1.461-.884Q51.776,34.227,51.776,36.879ZM63.784,41a2.507,2.507,0,0,1-.227-.758,2.732,2.732,0,0,1-2.133.914,3,3,0,0,1-2.059-.719,2.312,2.312,0,0,1-.816-1.812,2.389,2.389,0,0,1,1-2.062,4.915,4.915,0,0,1,2.879-.727h1.039v-.484a1.393,1.393,0,0,0-.3-.937,1.183,1.183,0,0,0-.949-.352,1.345,1.345,0,0,0-.895.273.929.929,0,0,0-.324.75H58.737a2.268,2.268,0,0,1,.453-1.359,3,3,0,0,1,1.281-.98,4.669,4.669,0,0,1,1.859-.355,3.689,3.689,0,0,1,2.48.785,2.747,2.747,0,0,1,.918,2.207v3.664a4.041,4.041,0,0,0,.336,1.82V41Zm-1.867-1.57a1.945,1.945,0,0,0,.922-.223,1.462,1.462,0,0,0,.625-.6V37.156H62.62q-1.7,0-1.8,1.172l-.008.133a.9.9,0,0,0,.3.7A1.153,1.153,0,0,0,61.917,39.43Zm5.2-2.719A5.094,5.094,0,0,1,68,33.563a2.877,2.877,0,0,1,2.426-1.172,2.589,2.589,0,0,1,2.039.922V29h2.266V41H72.69l-.109-.9a2.657,2.657,0,0,1-2.172,1.055,2.869,2.869,0,0,1-2.395-1.176A5.258,5.258,0,0,1,67.112,36.711Zm2.258.168a3.337,3.337,0,0,0,.414,1.823,1.349,1.349,0,0,0,1.2.634,1.511,1.511,0,0,0,1.477-.884V35.111A1.489,1.489,0,0,0,71,34.227Q69.37,34.227,69.37,36.879Z" transform="translate(2864 -8903.076)" fill="#12263f"/>
    <g id="Grupo_141832" data-name="Grupo 141832" transform="translate(2844 -9037.594)">
      <g id="Grupo_141816" data-name="Grupo 141816" clip-path="url(#clip-path)">
        <path id="Trazado_183872" data-name="Trazado 183872" d="M84.248,110.387A15.275,15.275,0,0,0,68.974,95.112v30.55a15.275,15.275,0,0,0,15.274-15.275" transform="translate(-6.473 -8.926)" fill="#feca2e"/>
        <path id="Trazado_183873" data-name="Trazado 183873" d="M52.117,110.387a15.274,15.274,0,0,0,15.274,15.275V95.112a15.274,15.274,0,0,0-15.274,15.275" transform="translate(-4.891 -8.926)" fill="#feca2e"/>
        <path id="Trazado_183874" data-name="Trazado 183874" d="M38.417,82.1a7.539,7.539,0,0,0,10.529,1.689,28.9,28.9,0,0,1,17.027-5.535V63.173a43.878,43.878,0,0,0-25.866,8.4A7.539,7.539,0,0,0,38.417,82.1" transform="translate(-3.471 -5.929)" fill="#feca2e"/>
        <path id="Trazado_183875" data-name="Trazado 183875" d="M86,83.79a7.541,7.541,0,0,0,8.837-12.221,43.889,43.889,0,0,0-25.864-8.4V78.255A28.9,28.9,0,0,1,86,83.79" transform="translate(-6.473 -5.929)" fill="#feca2e"/>
        <path id="Trazado_183876" data-name="Trazado 183876" d="M102.588,57.873a7.541,7.541,0,1,0,8.837-12.221,72.028,72.028,0,0,0-42.45-13.784V46.949a57.051,57.051,0,0,1,33.614,10.924" transform="translate(-6.473 -2.991)" fill="#feca2e"/>
        <path id="Trazado_183877" data-name="Trazado 183877" d="M20.111,56.18a7.54,7.54,0,0,0,10.529,1.693A57.042,57.042,0,0,1,64.254,46.948V31.867A72.024,72.024,0,0,0,21.8,45.651,7.54,7.54,0,0,0,20.111,56.18" transform="translate(-1.753 -2.991)" fill="#feca2e"/>
        <path id="Trazado_183878" data-name="Trazado 183878" d="M3.123,19.21a7.541,7.541,0,0,0,8.837,12.221A85.738,85.738,0,0,1,62.5,15.082V0A100.725,100.725,0,0,0,3.123,19.21" transform="translate(0)" fill="#feca2e"/>
        <path id="Trazado_183879" data-name="Trazado 183879" d="M128.35,19.21A100.724,100.724,0,0,0,68.974,0V15.082a85.739,85.739,0,0,1,50.54,16.35A7.541,7.541,0,0,0,128.35,19.21" transform="translate(-6.473)" fill="#feca2e"/>
      </g>
    </g>
  </g>
</svg>
