<svg xmlns="http://www.w3.org/2000/svg" xmlns:xlink="http://www.w3.org/1999/xlink" width="287.828" height="327.001" viewBox="0 0 287.828 327.001">
  <defs>
    <filter id="Trazado_183985" x="13.19" y="19.209" width="261.448" height="294.581" filterUnits="userSpaceOnUse">
      <feOffset dy="3" input="SourceAlpha"/>
      <feGaussianBlur stdDeviation="3" result="blur"/>
      <feFlood flood-opacity="0.161"/>
      <feComposite operator="in" in2="blur"/>
      <feComposite in="SourceGraphic"/>
    </filter>
    <clipPath id="clip-path">
      <rect id="Rectángulo_37450" data-name="Rectángulo 37450" width="98.235" height="98.275" fill="#039be5"/>
    </clipPath>
  </defs>
  <g id="img5" transform="translate(-3074 9109.059)">
    <path id="Trazado_183979" data-name="Trazado 183979" d="M236.6,0H90.4A17.306,17.306,0,0,0,75.416,8.653L2.319,135.261a17.3,17.3,0,0,0,0,17.306l73.1,126.608A17.307,17.307,0,0,0,90.4,287.828H236.6a17.306,17.306,0,0,0,14.987-8.653l73.1-126.608a17.3,17.3,0,0,0,0-17.306L251.585,8.653A17.305,17.305,0,0,0,236.6,0" transform="translate(3361.828 -9109.059) rotate(90)" fill="#039be5" fill-rule="evenodd"/>
    <g transform="matrix(1, 0, 0, 1, 3074, -9109.06)" filter="url(#Trazado_183985)">
      <path id="Trazado_183985-2" data-name="Trazado 183985" d="M200.117,0H76.464A14.638,14.638,0,0,0,63.788,7.319L1.961,114.405a14.637,14.637,0,0,0,0,14.638L63.788,236.13a14.639,14.639,0,0,0,12.677,7.319H200.117a14.638,14.638,0,0,0,12.676-7.319L274.62,129.043a14.637,14.637,0,0,0,0-14.638L212.793,7.319A14.637,14.637,0,0,0,200.117,0" transform="translate(265.64 25.21) rotate(90)" fill="#fff" fill-rule="evenodd"/>
    </g>
    <path id="Trazado_183989" data-name="Trazado 183989" d="M7.859,12.352h-4.5V17H1.016V5.625H8.422v1.9H3.359v2.938h4.5ZM12.016,17H9.75V5h2.266Zm5.75.156a4.15,4.15,0,0,1-3.027-1.141,4.054,4.054,0,0,1-1.168-3.039v-.219a5.106,5.106,0,0,1,.492-2.277,3.612,3.612,0,0,1,1.395-1.547,3.914,3.914,0,0,1,2.059-.543,3.508,3.508,0,0,1,2.73,1.094,4.444,4.444,0,0,1,1,3.1v.922H15.859a2.1,2.1,0,0,0,.66,1.328,2,2,0,0,0,1.395.5,2.437,2.437,0,0,0,2.039-.945l1.109,1.242a3.389,3.389,0,0,1-1.375,1.121A4.511,4.511,0,0,1,17.766,17.156Zm-.258-6.945a1.411,1.411,0,0,0-1.09.455,2.357,2.357,0,0,0-.535,1.3h3.141v-.181a1.681,1.681,0,0,0-.406-1.165A1.456,1.456,0,0,0,17.508,10.211Zm8.234.859,1.422-2.523h2.414l-2.406,4.141L29.68,17H27.258L25.75,14.344,24.25,17H21.82l2.508-4.312-2.4-4.141h2.422Zm7.3,5.93H30.781V8.547h2.266Zm-2.4-10.641a1.112,1.112,0,0,1,.34-.836,1.465,1.465,0,0,1,1.848,0,1.105,1.105,0,0,1,.344.836,1.108,1.108,0,0,1-.348.844A1.448,1.448,0,0,1,31,7.2,1.108,1.108,0,0,1,30.648,6.359Zm11.875,6.492a5.119,5.119,0,0,1-.867,3.168,2.872,2.872,0,0,1-2.422,1.137,2.639,2.639,0,0,1-2.2-1.055l-.1.9H34.906V5h2.258V9.3a2.571,2.571,0,0,1,2.055-.914,2.9,2.9,0,0,1,2.426,1.137,5.126,5.126,0,0,1,.879,3.2Zm-2.258-.164a3.363,3.363,0,0,0-.406-1.871,1.374,1.374,0,0,0-1.211-.59,1.489,1.489,0,0,0-1.484.883v3.336a1.509,1.509,0,0,0,1.5.891A1.394,1.394,0,0,0,40.1,14.258,5.562,5.562,0,0,0,40.266,12.688ZM46.3,17H44.031V8.547H46.3ZM43.9,6.359a1.112,1.112,0,0,1,.34-.836,1.465,1.465,0,0,1,1.848,0,1.105,1.105,0,0,1,.344.836,1.108,1.108,0,0,1-.348.844,1.448,1.448,0,0,1-1.836,0A1.108,1.108,0,0,1,43.9,6.359ZM50.539,17H48.273V5h2.266Zm4.242,0H52.516V8.547h2.266Zm-2.4-10.641a1.112,1.112,0,0,1,.34-.836,1.465,1.465,0,0,1,1.848,0,1.105,1.105,0,0,1,.344.836,1.108,1.108,0,0,1-.348.844,1.448,1.448,0,0,1-1.836,0A1.108,1.108,0,0,1,52.383,6.359Zm3.906,6.352a5.094,5.094,0,0,1,.887-3.148A2.877,2.877,0,0,1,59.6,8.391a2.589,2.589,0,0,1,2.039.922V5h2.266V17H61.867l-.109-.9a2.657,2.657,0,0,1-2.172,1.055,2.869,2.869,0,0,1-2.395-1.176A5.258,5.258,0,0,1,56.289,12.711Zm2.258.168a3.337,3.337,0,0,0,.414,1.823,1.349,1.349,0,0,0,1.2.634,1.511,1.511,0,0,0,1.477-.884V11.111a1.489,1.489,0,0,0-1.461-.884Q58.547,10.227,58.547,12.879ZM70.555,17a2.507,2.507,0,0,1-.227-.758,2.732,2.732,0,0,1-2.133.914,3,3,0,0,1-2.059-.719,2.312,2.312,0,0,1-.816-1.812,2.389,2.389,0,0,1,1-2.062,4.915,4.915,0,0,1,2.879-.727h1.039v-.484a1.393,1.393,0,0,0-.3-.937,1.183,1.183,0,0,0-.949-.352,1.345,1.345,0,0,0-.895.273.929.929,0,0,0-.324.75H65.508a2.268,2.268,0,0,1,.453-1.359,3,3,0,0,1,1.281-.98A4.669,4.669,0,0,1,69.1,8.391a3.689,3.689,0,0,1,2.48.785,2.747,2.747,0,0,1,.918,2.207v3.664a4.041,4.041,0,0,0,.336,1.82V17Zm-1.867-1.57a1.945,1.945,0,0,0,.922-.223,1.462,1.462,0,0,0,.625-.6V13.156h-.844q-1.7,0-1.8,1.172l-.008.133a.9.9,0,0,0,.3.7A1.153,1.153,0,0,0,68.688,15.43Zm5.2-2.719a5.094,5.094,0,0,1,.887-3.148A2.877,2.877,0,0,1,77.2,8.391a2.589,2.589,0,0,1,2.039.922V5H81.5V17H79.461l-.109-.9a2.657,2.657,0,0,1-2.172,1.055,2.869,2.869,0,0,1-2.395-1.176A5.258,5.258,0,0,1,73.883,12.711Zm2.258.168a3.337,3.337,0,0,0,.414,1.823,1.349,1.349,0,0,0,1.2.634,1.511,1.511,0,0,0,1.477-.884V11.111a1.489,1.489,0,0,0-1.461-.884Q76.141,10.227,76.141,12.879Z" transform="translate(3177 -8891.076)" fill="#12263f"/>
    <g id="Grupo_141833" data-name="Grupo 141833" transform="translate(3156.62 -9028.445)">
      <g id="Grupo_141818" data-name="Grupo 141818" clip-path="url(#clip-path)">
        <path id="Trazado_183880" data-name="Trazado 183880" d="M98.169,5.376,84.351,88.283a4.612,4.612,0,0,1-6.336,3.482l-23.9-10.013-.516.629L41.929,96.587a4.6,4.6,0,0,1-8.158-3.031V78.109L53.6,53.94,80,21.789a1.15,1.15,0,0,0-1.645-1.6L53.6,42.008,23.21,68.79l-20.4-8.562a4.61,4.61,0,0,1-.419-8.288L53.6,22.386,91.332.619a4.611,4.611,0,0,1,6.837,4.756" transform="translate(0 0)" fill="#039be5"/>
        <path id="Trazado_183881" data-name="Trazado 183881" d="M117.866,5.376,104.048,88.283a4.612,4.612,0,0,1-6.337,3.482l-23.9-10.013-.516.629V53.94L99.695,21.789a1.15,1.15,0,0,0-1.645-1.6L73.3,42.008V22.386L111.03.619a4.611,4.611,0,0,1,6.837,4.756" transform="translate(-19.698 0)" fill="#039be5"/>
      </g>
    </g>
  </g>
</svg>
