<svg xmlns="http://www.w3.org/2000/svg" xmlns:xlink="http://www.w3.org/1999/xlink" width="287.828" height="327.001" viewBox="0 0 287.828 327.001">
  <defs>
    <filter id="Trazado_183986" x="13.19" y="19.209" width="261.448" height="294.581" filterUnits="userSpaceOnUse">
      <feOffset dy="3" input="SourceAlpha"/>
      <feGaussianBlur stdDeviation="3" result="blur"/>
      <feFlood flood-opacity="0.161"/>
      <feComposite operator="in" in2="blur"/>
      <feComposite in="SourceGraphic"/>
    </filter>
    <clipPath id="clip-path">
      <rect id="Rectángulo_37451" data-name="Rectángulo 37451" width="115.958" height="115.37" fill="#feca2e"/>
    </clipPath>
  </defs>
  <g id="img6" transform="translate(-3389 9109.059)">
    <path id="Trazado_183981" data-name="Trazado 183981" d="M236.6,0H90.4A17.306,17.306,0,0,0,75.416,8.653L2.319,135.261a17.3,17.3,0,0,0,0,17.306l73.1,126.608A17.307,17.307,0,0,0,90.4,287.828H236.6a17.306,17.306,0,0,0,14.987-8.653l73.1-126.608a17.3,17.3,0,0,0,0-17.306L251.585,8.653A17.305,17.305,0,0,0,236.6,0" transform="translate(3676.828 -9109.059) rotate(90)" fill="#feca2e" fill-rule="evenodd"/>
    <g transform="matrix(1, 0, 0, 1, 3389, -9109.06)" filter="url(#Trazado_183986)">
      <path id="Trazado_183986-2" data-name="Trazado 183986" d="M200.117,0H76.464A14.638,14.638,0,0,0,63.788,7.319L1.961,114.405a14.637,14.637,0,0,0,0,14.638L63.788,236.13a14.639,14.639,0,0,0,12.677,7.319H200.117a14.638,14.638,0,0,0,12.676-7.319L274.62,129.043a14.637,14.637,0,0,0,0-14.638L212.793,7.319A14.637,14.637,0,0,0,200.117,0" transform="translate(265.64 25.21) rotate(90)" fill="#fff" fill-rule="evenodd"/>
    </g>
    <path id="Trazado_183990" data-name="Trazado 183990" d="M37.066,14.656H32.957L32.176,17H29.684L33.918,5.625H36.09L40.348,17H37.855Zm-3.477-1.9h2.844L35,8.5Zm11.188,2.578a1.481,1.481,0,0,0,1.016-.344,1.2,1.2,0,0,0,.406-.914h2.117a2.9,2.9,0,0,1-.469,1.574,3.093,3.093,0,0,1-1.262,1.109,3.949,3.949,0,0,1-1.77.395A3.67,3.67,0,0,1,41.957,16,4.56,4.56,0,0,1,40.91,12.82v-.148a4.508,4.508,0,0,1,1.039-3.117A3.627,3.627,0,0,1,44.8,8.391a3.555,3.555,0,0,1,2.543.9,3.2,3.2,0,0,1,.973,2.4H46.2a1.551,1.551,0,0,0-.406-1.072,1.51,1.51,0,0,0-2.223.163,3.333,3.333,0,0,0-.4,1.866v.235a3.375,3.375,0,0,0,.4,1.878A1.377,1.377,0,0,0,44.777,15.336Zm8.344,0a1.481,1.481,0,0,0,1.016-.344,1.2,1.2,0,0,0,.406-.914H56.66a2.9,2.9,0,0,1-.469,1.574,3.093,3.093,0,0,1-1.262,1.109,3.949,3.949,0,0,1-1.77.395A3.67,3.67,0,0,1,50.3,16a4.56,4.56,0,0,1-1.047-3.184v-.148a4.508,4.508,0,0,1,1.039-3.117,3.627,3.627,0,0,1,2.852-1.164,3.555,3.555,0,0,1,2.543.9,3.2,3.2,0,0,1,.973,2.4H54.543a1.551,1.551,0,0,0-.406-1.072,1.51,1.51,0,0,0-2.223.163,3.333,3.333,0,0,0-.4,1.866v.235a3.375,3.375,0,0,0,.4,1.878A1.377,1.377,0,0,0,53.121,15.336Zm8.719,1.82a4.15,4.15,0,0,1-3.027-1.141,4.054,4.054,0,0,1-1.168-3.039v-.219a5.106,5.106,0,0,1,.492-2.277,3.612,3.612,0,0,1,1.395-1.547,3.914,3.914,0,0,1,2.059-.543,3.508,3.508,0,0,1,2.73,1.094,4.444,4.444,0,0,1,1,3.1v.922H59.934a2.1,2.1,0,0,0,.66,1.328,2,2,0,0,0,1.395.5,2.437,2.437,0,0,0,2.039-.945l1.109,1.242a3.389,3.389,0,0,1-1.375,1.121A4.511,4.511,0,0,1,61.84,17.156Zm-.258-6.945a1.411,1.411,0,0,0-1.09.455,2.357,2.357,0,0,0-.535,1.3H63.1v-.181a1.681,1.681,0,0,0-.406-1.165A1.456,1.456,0,0,0,61.582,10.211Zm9.594,4.453a.727.727,0,0,0-.41-.652,4.659,4.659,0,0,0-1.316-.426q-3.016-.633-3.016-2.562a2.323,2.323,0,0,1,.934-1.879,3.766,3.766,0,0,1,2.441-.754,4.053,4.053,0,0,1,2.574.758,2.388,2.388,0,0,1,.965,1.969H71.09a1.092,1.092,0,0,0-.312-.8A1.322,1.322,0,0,0,69.8,10a1.351,1.351,0,0,0-.883.258.814.814,0,0,0-.312.656.7.7,0,0,0,.355.605,3.657,3.657,0,0,0,1.2.4,9.8,9.8,0,0,1,1.422.379,2.336,2.336,0,0,1,1.789,2.273,2.2,2.2,0,0,1-.992,1.871,4.28,4.28,0,0,1-2.562.715,4.47,4.47,0,0,1-1.887-.379,3.166,3.166,0,0,1-1.293-1.039,2.414,2.414,0,0,1-.469-1.426h2.141a1.179,1.179,0,0,0,.445.922,1.766,1.766,0,0,0,1.109.32,1.635,1.635,0,0,0,.98-.246A.766.766,0,0,0,71.176,14.664Zm3.3-1.969a5.013,5.013,0,0,1,.484-2.242A3.546,3.546,0,0,1,76.352,8.93a4.069,4.069,0,0,1,2.113-.539,3.849,3.849,0,0,1,2.793,1.047,4.2,4.2,0,0,1,1.207,2.844l.016.578a4.418,4.418,0,0,1-1.086,3.121,4.209,4.209,0,0,1-5.832,0,4.5,4.5,0,0,1-1.09-3.187Zm2.258.16a3.16,3.16,0,0,0,.453,1.843,1.628,1.628,0,0,0,2.578.008,3.457,3.457,0,0,0,.461-2.015,3.128,3.128,0,0,0-.461-1.831,1.5,1.5,0,0,0-1.3-.649,1.474,1.474,0,0,0-1.281.646A3.516,3.516,0,0,0,76.73,12.856ZM92.754,17a2.507,2.507,0,0,1-.227-.758,2.732,2.732,0,0,1-2.133.914,3,3,0,0,1-2.059-.719,2.312,2.312,0,0,1-.816-1.812,2.389,2.389,0,0,1,1-2.062,4.915,4.915,0,0,1,2.879-.727h1.039v-.484a1.393,1.393,0,0,0-.3-.937,1.183,1.183,0,0,0-.949-.352,1.345,1.345,0,0,0-.895.273.929.929,0,0,0-.324.75H87.707a2.268,2.268,0,0,1,.453-1.359,3,3,0,0,1,1.281-.98A4.669,4.669,0,0,1,91.3,8.391a3.689,3.689,0,0,1,2.48.785,2.747,2.747,0,0,1,.918,2.207v3.664a4.041,4.041,0,0,0,.336,1.82V17Zm-1.867-1.57a1.945,1.945,0,0,0,.922-.223,1.462,1.462,0,0,0,.625-.6V13.156H91.59q-1.7,0-1.8,1.172l-.008.133a.9.9,0,0,0,.3.7A1.153,1.153,0,0,0,90.887,15.43ZM102.8,17h-2.266V5H102.8Zm6.758,0a2.507,2.507,0,0,1-.227-.758,2.732,2.732,0,0,1-2.133.914,3,3,0,0,1-2.059-.719,2.312,2.312,0,0,1-.816-1.812,2.389,2.389,0,0,1,1-2.062,4.915,4.915,0,0,1,2.879-.727h1.039v-.484a1.393,1.393,0,0,0-.3-.937,1.183,1.183,0,0,0-.949-.352,1.345,1.345,0,0,0-.895.273.929.929,0,0,0-.324.75h-2.258a2.268,2.268,0,0,1,.453-1.359,3,3,0,0,1,1.281-.98,4.669,4.669,0,0,1,1.859-.355,3.689,3.689,0,0,1,2.48.785,2.747,2.747,0,0,1,.918,2.207v3.664a4.041,4.041,0,0,0,.336,1.82V17Zm-1.867-1.57a1.945,1.945,0,0,0,.922-.223,1.462,1.462,0,0,0,.625-.6V13.156h-.844q-1.7,0-1.8,1.172l-.008.133a.9.9,0,0,0,.3.7A1.153,1.153,0,0,0,107.691,15.43ZM30.828,41H28.563V32.547h2.266Zm-2.4-10.641a1.112,1.112,0,0,1,.34-.836,1.465,1.465,0,0,1,1.848,0,1.193,1.193,0,0,1,0,1.68,1.448,1.448,0,0,1-1.836,0A1.108,1.108,0,0,1,28.43,30.359Zm6.336,2.188.07.977a2.951,2.951,0,0,1,2.43-1.133,2.453,2.453,0,0,1,2,.789,3.682,3.682,0,0,1,.672,2.359V41H37.68V35.594a1.465,1.465,0,0,0-.312-1.043,1.4,1.4,0,0,0-1.039-.324,1.553,1.553,0,0,0-1.43.813V41H32.641V32.547ZM42.266,41V34.2H41.008V32.547h1.258v-.719a2.918,2.918,0,0,1,.816-2.207,3.162,3.162,0,0,1,2.285-.785,5.278,5.278,0,0,1,1.148.156l-.023,1.75a2.878,2.878,0,0,0-.687-.07q-1.273,0-1.273,1.2v.68h1.68V34.2h-1.68V41Zm4.766-4.3a5.013,5.013,0,0,1,.484-2.242A3.546,3.546,0,0,1,48.91,32.93a4.069,4.069,0,0,1,2.113-.539,3.849,3.849,0,0,1,2.793,1.047,4.2,4.2,0,0,1,1.207,2.844l.016.578a4.418,4.418,0,0,1-1.086,3.121,4.209,4.209,0,0,1-5.832,0,4.5,4.5,0,0,1-1.09-3.187Zm2.258.16a3.16,3.16,0,0,0,.453,1.843,1.628,1.628,0,0,0,2.578.008,3.457,3.457,0,0,0,.461-2.015,3.128,3.128,0,0,0-.461-1.831,1.5,1.5,0,0,0-1.3-.649,1.474,1.474,0,0,0-1.281.646A3.516,3.516,0,0,0,49.289,36.856ZM61.18,34.664a6.134,6.134,0,0,0-.812-.062,1.654,1.654,0,0,0-1.68.867V41H56.43V32.547h2.133l.063,1.008a2.092,2.092,0,0,1,1.883-1.164,2.366,2.366,0,0,1,.7.1Zm3.2-2.117.07.945a2.971,2.971,0,0,1,2.43-1.1,2.255,2.255,0,0,1,2.242,1.289,2.9,2.9,0,0,1,2.539-1.289,2.521,2.521,0,0,1,2.047.8,3.681,3.681,0,0,1,.672,2.41V41H72.117V35.609a1.61,1.61,0,0,0-.281-1.051,1.246,1.246,0,0,0-.992-.332,1.409,1.409,0,0,0-1.406.969l.008,5.8H67.188V35.617a1.59,1.59,0,0,0-.289-1.062,1.259,1.259,0,0,0-.984-.328,1.463,1.463,0,0,0-1.391.8V41H62.266V32.547ZM81.016,41a2.507,2.507,0,0,1-.227-.758,2.732,2.732,0,0,1-2.133.914,3,3,0,0,1-2.059-.719,2.312,2.312,0,0,1-.816-1.812,2.389,2.389,0,0,1,1-2.062,4.915,4.915,0,0,1,2.879-.727H80.7v-.484a1.393,1.393,0,0,0-.3-.937,1.183,1.183,0,0,0-.949-.352,1.345,1.345,0,0,0-.895.273.929.929,0,0,0-.324.75H75.969a2.268,2.268,0,0,1,.453-1.359,3,3,0,0,1,1.281-.98,4.669,4.669,0,0,1,1.859-.355,3.689,3.689,0,0,1,2.48.785,2.747,2.747,0,0,1,.918,2.207v3.664a4.041,4.041,0,0,0,.336,1.82V41Zm-1.867-1.57a1.945,1.945,0,0,0,.922-.223,1.462,1.462,0,0,0,.625-.6V37.156h-.844q-1.7,0-1.8,1.172l-.008.133a.9.9,0,0,0,.3.7A1.153,1.153,0,0,0,79.148,39.43Zm9.063-.094a1.481,1.481,0,0,0,1.016-.344,1.2,1.2,0,0,0,.406-.914H91.75a2.9,2.9,0,0,1-.469,1.574,3.093,3.093,0,0,1-1.262,1.109,3.949,3.949,0,0,1-1.77.395A3.67,3.67,0,0,1,85.391,40a4.56,4.56,0,0,1-1.047-3.184v-.148a4.508,4.508,0,0,1,1.039-3.117,3.627,3.627,0,0,1,2.852-1.164,3.555,3.555,0,0,1,2.543.9,3.2,3.2,0,0,1,.973,2.4H89.633a1.551,1.551,0,0,0-.406-1.072A1.51,1.51,0,0,0,87,34.786a3.333,3.333,0,0,0-.4,1.866v.235a3.375,3.375,0,0,0,.4,1.878A1.377,1.377,0,0,0,88.211,39.336ZM95.422,41H93.156V32.547h2.266Zm-2.4-10.641a1.112,1.112,0,0,1,.34-.836,1.465,1.465,0,0,1,1.848,0,1.193,1.193,0,0,1,0,1.68,1.448,1.448,0,0,1-1.836,0A1.108,1.108,0,0,1,93.023,30.359ZM96.93,36.7a5.013,5.013,0,0,1,.484-2.242,3.546,3.546,0,0,1,1.395-1.523,4.069,4.069,0,0,1,2.113-.539,3.849,3.849,0,0,1,2.793,1.047,4.2,4.2,0,0,1,1.207,2.844l.016.578a4.418,4.418,0,0,1-1.086,3.121,4.209,4.209,0,0,1-5.832,0A4.5,4.5,0,0,1,96.93,36.8Zm2.258.16a3.16,3.16,0,0,0,.453,1.843,1.628,1.628,0,0,0,2.578.008,3.457,3.457,0,0,0,.461-2.015,3.128,3.128,0,0,0-.461-1.831,1.5,1.5,0,0,0-1.3-.649,1.474,1.474,0,0,0-1.281.646A3.516,3.516,0,0,0,99.188,36.856ZM101.367,29h2.461l-2.164,2.422H99.828Zm7.039,3.547.07.977a2.951,2.951,0,0,1,2.43-1.133,2.453,2.453,0,0,1,2,.789,3.682,3.682,0,0,1,.672,2.359V41H111.32V35.594a1.465,1.465,0,0,0-.312-1.043,1.4,1.4,0,0,0-1.039-.324,1.553,1.553,0,0,0-1.43.813V41h-2.258V32.547Z" transform="translate(3457 -8903.076)" fill="#12263f"/>
    <g id="Grupo_141834" data-name="Grupo 141834" transform="translate(3474 -9028.445)">
      <g id="Grupo_141820" data-name="Grupo 141820" clip-path="url(#clip-path)">
        <path id="Trazado_183882" data-name="Trazado 183882" d="M57.694,100.156a129.956,129.956,0,0,1-14.423.79c-16.944,0-33.962-3.065-43.271-9.61v9.61C0,108.9,19.388,115.37,43.271,115.37a120.757,120.757,0,0,0,14.423-.828c16.794-1.974,28.848-7.333,28.848-13.6v-9.61C79.9,96,69.354,98.9,57.694,100.156M100.044,3.4c-.151-.038-.32-.094-.489-.131-.9-.245-1.824-.47-2.784-.7a.548.548,0,0,1-.169-.038A106.8,106.8,0,0,0,76.217.076L73.942.019C73.19,0,72.419,0,71.648,0c-1.11,0-2.219.019-3.291.056-3.7.095-7.278.357-10.663.771-.319.038-.639.076-.94.113C40.45,3.009,28.847,8.275,28.847,14.424s11.6,11.414,27.907,13.483c.3.038.621.076.94.113a120.965,120.965,0,0,0,14.424.827c23.883,0,43.252-6.469,43.252-14.423,0-4.4-5.943-8.369-15.327-11.02M57.694,78.343a104.344,104.344,0,0,1-14.423.977C26.346,79.32,9.309,75.352,0,67.7V79.32c0,7.955,19.388,14.424,43.271,14.424a120.757,120.757,0,0,0,14.423-.828c16.794-1.974,28.848-7.333,28.848-13.6V67.7C79.9,73.152,69.334,76.744,57.694,78.343m36.05-22.51v14.33c12.919-2.5,21.626-7.146,21.626-12.487V48.067c-5.228,3.685-12.9,6.224-21.626,7.766M57.694,37.084A97.622,97.622,0,0,0,43.271,36.05C19.388,36.05,0,44.117,0,54.084,0,64.032,19.388,72.1,43.271,72.1a97.619,97.619,0,0,0,14.423-1.035c16.794-2.463,28.848-9.14,28.848-16.981,0-7.86-12.054-14.536-28.848-17M79.17,35.843c6.638,3.234,11.528,7.559,13.521,12.9C106.212,46.3,115.37,41.522,115.37,36.05V26.422c-7.992,5.66-21.739,8.706-36.2,9.421" fill="#feca2e"/>
        <path id="Trazado_183883" data-name="Trazado 183883" d="M96.493,60.48c0,7.842-12.054,14.517-28.848,16.981V43.48c16.794,2.463,28.848,9.14,28.848,17" transform="translate(-9.951 -6.396)" fill="#feca2e"/>
        <path id="Trazado_183884" data-name="Trazado 183884" d="M67.645,90.018c11.64-1.6,22.209-5.19,28.848-10.643V91c0,6.262-12.054,11.622-28.848,13.6Z" transform="translate(-9.951 -11.676)" fill="#feca2e"/>
        <path id="Trazado_183885" data-name="Trazado 183885" d="M67.645,115.91c11.659-1.26,22.209-4.156,28.848-8.82v9.61c0,6.262-12.054,11.622-28.848,13.6Z" transform="translate(-9.951 -15.753)" fill="#feca2e"/>
        <path id="Trazado_183886" data-name="Trazado 183886" d="M125.158,14.423c0,7.955-19.369,14.423-43.252,14.423a120.772,120.772,0,0,1-14.423-.827c-.32-.038-.64-.075-.941-.113V.846a112.516,112.516,0,0,1,11.6-.79C79.217.019,80.327,0,81.436,0c.771,0,1.542,0,2.294.019l2.276.056A112.5,112.5,0,0,1,106.39,2.538a.558.558,0,0,0,.17.038c.959.226,1.9.452,2.783.7.17.038.339.094.489.132,9.384,2.651,15.327,6.619,15.327,11.019" transform="translate(-9.789 0)" fill="#feca2e"/>
        <path id="Trazado_183887" data-name="Trazado 183887" d="M92.135,40.28c14.932-.738,29.126-3.883,37.377-9.728v9.941c0,5.65-9.456,10.583-23.416,13.106-2.059-5.514-7.107-9.98-13.961-13.32" transform="translate(-13.553 -4.494)" fill="#feca2e"/>
        <path id="Trazado_183888" data-name="Trazado 183888" d="M109.912,64.122c8.726-1.542,16.4-4.081,21.626-7.766v9.61c0,5.341-8.707,9.986-21.626,12.486Z" transform="translate(-16.169 -8.29)" fill="#feca2e"/>
      </g>
    </g>
  </g>
</svg>
