<svg xmlns="http://www.w3.org/2000/svg" xmlns:xlink="http://www.w3.org/1999/xlink" width="559.048" height="367.657" viewBox="0 0 559.048 367.657">
  <defs>
    <filter id="Trazado_183738" x="97.808" y="9.68" width="169.403" height="190.009" filterUnits="userSpaceOnUse">
      <feOffset dy="3" input="SourceAlpha"/>
      <feGaussianBlur stdDeviation="3" result="blur"/>
      <feFlood flood-opacity="0.161"/>
      <feComposite operator="in" in2="blur"/>
      <feComposite in="SourceGraphic"/>
    </filter>
    <filter id="Trazado_183739" x="286.965" y="9.679" width="169.403" height="190.009" filterUnits="userSpaceOnUse">
      <feOffset dy="3" input="SourceAlpha"/>
      <feGaussianBlur stdDeviation="3" result="blur-2"/>
      <feFlood flood-opacity="0.161"/>
      <feComposite operator="in" in2="blur-2"/>
      <feComposite in="SourceGraphic"/>
    </filter>
    <filter id="Trazado_183740" x="197.463" y="173.971" width="169.403" height="190.009" filterUnits="userSpaceOnUse">
      <feOffset dy="3" input="SourceAlpha"/>
      <feGaussianBlur stdDeviation="3" result="blur-3"/>
      <feFlood flood-opacity="0.161"/>
      <feComposite operator="in" in2="blur-3"/>
      <feComposite in="SourceGraphic"/>
    </filter>
    <filter id="Trazado_183741" x="4.799" y="173.971" width="169.403" height="190.009" filterUnits="userSpaceOnUse">
      <feOffset dy="3" input="SourceAlpha"/>
      <feGaussianBlur stdDeviation="3" result="blur-4"/>
      <feFlood flood-opacity="0.161"/>
      <feComposite operator="in" in2="blur-4"/>
      <feComposite in="SourceGraphic"/>
    </filter>
    <filter id="Trazado_183742" x="384.844" y="173.971" width="169.403" height="190.009" filterUnits="userSpaceOnUse">
      <feOffset dy="3" input="SourceAlpha"/>
      <feGaussianBlur stdDeviation="3" result="blur-5"/>
      <feFlood flood-opacity="0.161"/>
      <feComposite operator="in" in2="blur-5"/>
      <feComposite in="SourceGraphic"/>
    </filter>
    <clipPath id="clip-path">
      <rect id="Rectángulo_37284" data-name="Rectángulo 37284" width="63.954" height="48.666" fill="#4dd0e1"/>
    </clipPath>
    <clipPath id="clip-path-2">
      <rect id="Rectángulo_37285" data-name="Rectángulo 37285" width="65.5" height="53.197" fill="#1565c0"/>
    </clipPath>
    <clipPath id="clip-path-3">
      <rect id="Rectángulo_37286" data-name="Rectángulo 37286" width="67.397" height="54.788" fill="#4dd0e1"/>
    </clipPath>
    <clipPath id="clip-path-4">
      <rect id="Rectángulo_37287" data-name="Rectángulo 37287" width="80" height="46.439" transform="translate(0 0)" fill="#feca2e"/>
    </clipPath>
    <clipPath id="clip-path-5">
      <rect id="Rectángulo_37288" data-name="Rectángulo 37288" width="67.846" height="47.852" fill="#1565c0"/>
    </clipPath>
  </defs>
  <g id="infografia1" transform="translate(-475.001 -2432.605)">
    <path id="Trazado_183733" data-name="Trazado 183733" d="M147.143,0H56.223A10.763,10.763,0,0,0,46.9,5.381L1.442,84.12a10.762,10.762,0,0,0,0,10.763L46.9,173.622A10.763,10.763,0,0,0,56.223,179h90.92a10.763,10.763,0,0,0,9.321-5.381l45.46-78.739a10.762,10.762,0,0,0,0-10.763L156.464,5.381A10.762,10.762,0,0,0,147.143,0" transform="translate(747.012 2432.605) rotate(90)" fill="#4dd0e1" fill-rule="evenodd"/>
    <g transform="matrix(1, 0, 0, 1, 475, 2432.61)" filter="url(#Trazado_183738)">
      <path id="Trazado_183738-2" data-name="Trazado 183738" d="M124.455,0h-76.9A9.1,9.1,0,0,0,39.67,4.552L1.22,71.15a9.1,9.1,0,0,0,0,9.1l38.451,66.6a9.1,9.1,0,0,0,7.884,4.552h76.9a9.1,9.1,0,0,0,7.884-4.552l38.45-66.6a9.1,9.1,0,0,0,0-9.1l-38.45-66.6A9.1,9.1,0,0,0,124.455,0" transform="translate(258.21 15.68) rotate(90)" fill="#fff" fill-rule="evenodd"/>
    </g>
    <path id="Trazado_183735" data-name="Trazado 183735" d="M147.143,0H56.223A10.763,10.763,0,0,0,46.9,5.381L1.442,84.12a10.762,10.762,0,0,0,0,10.763L46.9,173.622A10.763,10.763,0,0,0,56.223,179h90.92a10.763,10.763,0,0,0,9.321-5.381l45.46-78.739a10.762,10.762,0,0,0,0-10.763L156.464,5.381A10.762,10.762,0,0,0,147.143,0" transform="translate(654.003 2596.897) rotate(90)" fill="#1565c0" fill-rule="evenodd"/>
    <path id="Trazado_183736" data-name="Trazado 183736" d="M147.143,0H56.223A10.763,10.763,0,0,0,46.9,5.381L1.442,84.12a10.762,10.762,0,0,0,0,10.763L46.9,173.622A10.763,10.763,0,0,0,56.223,179h90.92a10.763,10.763,0,0,0,9.321-5.381l45.46-78.739a10.762,10.762,0,0,0,0-10.763L156.464,5.381A10.762,10.762,0,0,0,147.143,0" transform="translate(846.667 2596.897) rotate(90)" fill="#feca2e" fill-rule="evenodd"/>
    <path id="Trazado_183737" data-name="Trazado 183737" d="M147.143,0H56.223A10.763,10.763,0,0,0,46.9,5.381L1.442,84.12a10.762,10.762,0,0,0,0,10.763L46.9,173.622A10.763,10.763,0,0,0,56.223,179h90.92a10.763,10.763,0,0,0,9.321-5.381l45.46-78.739a10.762,10.762,0,0,0,0-10.763L156.464,5.381A10.762,10.762,0,0,0,147.143,0" transform="translate(1034.049 2596.897) rotate(90)" fill="#4dd0e1" fill-rule="evenodd"/>
    <path id="Trazado_183734" data-name="Trazado 183734" d="M147.143,0H56.223A10.763,10.763,0,0,0,46.9,5.381L1.442,84.12a10.762,10.762,0,0,0,0,10.763L46.9,173.622A10.763,10.763,0,0,0,56.223,179h90.92a10.763,10.763,0,0,0,9.321-5.381l45.46-78.739a10.762,10.762,0,0,0,0-10.763L156.464,5.381A10.762,10.762,0,0,0,147.143,0" transform="translate(936.169 2432.605) rotate(90)" fill="#1565c0" fill-rule="evenodd"/>
    <g transform="matrix(1, 0, 0, 1, 475, 2432.61)" filter="url(#Trazado_183739)">
      <path id="Trazado_183739-2" data-name="Trazado 183739" d="M124.455,0h-76.9A9.1,9.1,0,0,0,39.67,4.552L1.22,71.15a9.1,9.1,0,0,0,0,9.1l38.451,66.6a9.1,9.1,0,0,0,7.884,4.552h76.9a9.1,9.1,0,0,0,7.884-4.552l38.45-66.6a9.1,9.1,0,0,0,0-9.1l-38.45-66.6A9.1,9.1,0,0,0,124.455,0" transform="translate(447.37 15.68) rotate(90)" fill="#fff" fill-rule="evenodd"/>
    </g>
    <g transform="matrix(1, 0, 0, 1, 475, 2432.61)" filter="url(#Trazado_183740)">
      <path id="Trazado_183740-2" data-name="Trazado 183740" d="M124.455,0h-76.9A9.1,9.1,0,0,0,39.67,4.552L1.22,71.15a9.1,9.1,0,0,0,0,9.1l38.451,66.6a9.1,9.1,0,0,0,7.884,4.552h76.9a9.1,9.1,0,0,0,7.884-4.552l38.45-66.6a9.1,9.1,0,0,0,0-9.1l-38.45-66.6A9.1,9.1,0,0,0,124.455,0" transform="translate(357.87 179.97) rotate(90)" fill="#fff" fill-rule="evenodd"/>
    </g>
    <g transform="matrix(1, 0, 0, 1, 475, 2432.61)" filter="url(#Trazado_183741)">
      <path id="Trazado_183741-2" data-name="Trazado 183741" d="M124.455,0h-76.9A9.1,9.1,0,0,0,39.67,4.552L1.22,71.15a9.1,9.1,0,0,0,0,9.1l38.451,66.6a9.1,9.1,0,0,0,7.884,4.552h76.9a9.1,9.1,0,0,0,7.884-4.552l38.45-66.6a9.1,9.1,0,0,0,0-9.1l-38.45-66.6A9.1,9.1,0,0,0,124.455,0" transform="translate(165.2 179.97) rotate(90)" fill="#fff" fill-rule="evenodd"/>
    </g>
    <g transform="matrix(1, 0, 0, 1, 475, 2432.61)" filter="url(#Trazado_183742)">
      <path id="Trazado_183742-2" data-name="Trazado 183742" d="M124.455,0h-76.9A9.1,9.1,0,0,0,39.67,4.552L1.22,71.15a9.1,9.1,0,0,0,0,9.1l38.451,66.6a9.1,9.1,0,0,0,7.884,4.552h76.9a9.1,9.1,0,0,0,7.884-4.552l38.45-66.6a9.1,9.1,0,0,0,0-9.1l-38.45-66.6A9.1,9.1,0,0,0,124.455,0" transform="translate(545.25 179.97) rotate(90)" fill="#fff" fill-rule="evenodd"/>
    </g>
    <path id="Trazado_183890" data-name="Trazado 183890" d="M9.18,6.852H5.523V17H4.031V6.852H.383V5.625h8.8ZM14.977,17a3.036,3.036,0,0,1-.2-.891,3.225,3.225,0,0,1-2.406,1.047,2.984,2.984,0,0,1-2.051-.707,2.287,2.287,0,0,1-.8-1.793,2.39,2.39,0,0,1,1-2.051,4.733,4.733,0,0,1,2.824-.73H14.75v-.664A1.623,1.623,0,0,0,14.3,10a1.821,1.821,0,0,0-1.336-.449,2.107,2.107,0,0,0-1.3.391,1.151,1.151,0,0,0-.523.945H9.688a2,2,0,0,1,.449-1.223,3.066,3.066,0,0,1,1.219-.934,4.1,4.1,0,0,1,1.691-.344,3.342,3.342,0,0,1,2.289.73,2.635,2.635,0,0,1,.859,2.012v3.891a4.757,4.757,0,0,0,.3,1.852V17Zm-2.4-1.1a2.54,2.54,0,0,0,1.289-.352,2.127,2.127,0,0,0,.883-.914V12.9H13.617q-2.656,0-2.656,1.555a1.316,1.316,0,0,0,.453,1.063A1.742,1.742,0,0,0,12.578,15.9Zm9.969-6.055a4.331,4.331,0,0,0-.711-.055A1.9,1.9,0,0,0,19.906,11v6H18.461V8.547h1.406l.023.977a2.251,2.251,0,0,1,2.016-1.133,1.477,1.477,0,0,1,.641.109Zm2.82-1.3v9.43q0,2.438-2.211,2.438a2.7,2.7,0,0,1-.883-.14V19.125a2.794,2.794,0,0,0,.656.063.982.982,0,0,0,.738-.262,1.3,1.3,0,0,0,.254-.911V8.547ZM23.773,6.3a.867.867,0,0,1,.215-.59.79.79,0,0,1,.629-.246.819.819,0,0,1,.641.242.854.854,0,0,1,.219.594.826.826,0,0,1-.219.586.834.834,0,0,1-.641.234.808.808,0,0,1-.633-.234A.843.843,0,0,1,23.773,6.3ZM31.2,17.156a3.693,3.693,0,0,1-2.8-1.129,4.19,4.19,0,0,1-1.078-3.02v-.266a5.073,5.073,0,0,1,.48-2.246,3.748,3.748,0,0,1,1.344-1.547,3.378,3.378,0,0,1,1.871-.559,3.166,3.166,0,0,1,2.563,1.086,4.7,4.7,0,0,1,.914,3.109v.6H28.773a3,3,0,0,0,.73,2.02,2.3,2.3,0,0,0,1.777.77,2.517,2.517,0,0,0,1.3-.312,3.259,3.259,0,0,0,.93-.828l.883.688A3.55,3.55,0,0,1,31.2,17.156Zm-.18-7.578a1.928,1.928,0,0,0-1.469.637A3.1,3.1,0,0,0,28.82,12h4.234v-.109a2.753,2.753,0,0,0-.594-1.707A1.815,1.815,0,0,0,31.023,9.578ZM38.133,6.5V8.547h1.578V9.664H38.133v5.249a1.173,1.173,0,0,0,.211.763.888.888,0,0,0,.719.254,3.5,3.5,0,0,0,.688-.094V17a4.215,4.215,0,0,1-1.109.155,1.8,1.8,0,0,1-1.461-.586,2.517,2.517,0,0,1-.492-1.664V9.664H35.148V8.547h1.539V6.5ZM46.617,17a3.036,3.036,0,0,1-.2-.891,3.225,3.225,0,0,1-2.406,1.047,2.984,2.984,0,0,1-2.051-.707,2.287,2.287,0,0,1-.8-1.793,2.39,2.39,0,0,1,1-2.051,4.733,4.733,0,0,1,2.824-.73h1.406v-.664A1.623,1.623,0,0,0,45.938,10,1.821,1.821,0,0,0,44.6,9.555a2.107,2.107,0,0,0-1.3.391,1.151,1.151,0,0,0-.523.945H41.328a2,2,0,0,1,.449-1.223A3.066,3.066,0,0,1,43,8.734a4.1,4.1,0,0,1,1.691-.344,3.342,3.342,0,0,1,2.289.73,2.635,2.635,0,0,1,.859,2.012v3.891a4.757,4.757,0,0,0,.3,1.852V17Zm-2.4-1.1a2.54,2.54,0,0,0,1.289-.352,2.127,2.127,0,0,0,.883-.914V12.9H45.258q-2.656,0-2.656,1.555a1.316,1.316,0,0,0,.453,1.063A1.742,1.742,0,0,0,44.219,15.9Zm9.492-3.2a4.952,4.952,0,0,1,.922-3.129A3.137,3.137,0,0,1,59.4,9.406V5h1.445V17H59.516l-.07-.906a2.943,2.943,0,0,1-2.414,1.063,2.887,2.887,0,0,1-2.395-1.2,5.008,5.008,0,0,1-.926-3.141Zm1.445.164a3.749,3.749,0,0,0,.594,2.25,1.92,1.92,0,0,0,1.641.813A2.108,2.108,0,0,0,59.4,14.7V10.813a2.125,2.125,0,0,0-1.992-1.2,1.929,1.929,0,0,0-1.656.82A4.128,4.128,0,0,0,55.156,12.867Zm11.438,4.289a3.693,3.693,0,0,1-2.8-1.129,4.19,4.19,0,0,1-1.078-3.02v-.266A5.073,5.073,0,0,1,63.2,10.5a3.748,3.748,0,0,1,1.344-1.547,3.378,3.378,0,0,1,1.871-.559,3.166,3.166,0,0,1,2.563,1.086,4.7,4.7,0,0,1,.914,3.109v.6H64.164a3,3,0,0,0,.73,2.02,2.3,2.3,0,0,0,1.777.77,2.517,2.517,0,0,0,1.3-.312,3.259,3.259,0,0,0,.93-.828l.883.688A3.55,3.55,0,0,1,66.594,17.156Zm-.18-7.578a1.928,1.928,0,0,0-1.469.637A3.1,3.1,0,0,0,64.211,12h4.234v-.109a2.753,2.753,0,0,0-.594-1.707A1.815,1.815,0,0,0,66.414,9.578Zm13.2.266a4.331,4.331,0,0,0-.711-.055A1.9,1.9,0,0,0,76.969,11v6H75.523V8.547H76.93l.023.977a2.251,2.251,0,0,1,2.016-1.133,1.477,1.477,0,0,1,.641.109Zm4.836,7.313a3.693,3.693,0,0,1-2.8-1.129,4.19,4.19,0,0,1-1.078-3.02v-.266a5.073,5.073,0,0,1,.48-2.246,3.748,3.748,0,0,1,1.344-1.547,3.378,3.378,0,0,1,1.871-.559,3.166,3.166,0,0,1,2.563,1.086,4.7,4.7,0,0,1,.914,3.109v.6H82.016a3,3,0,0,0,.73,2.02,2.3,2.3,0,0,0,1.777.77,2.517,2.517,0,0,0,1.3-.312,3.259,3.259,0,0,0,.93-.828l.883.688A3.55,3.55,0,0,1,84.445,17.156Zm-.18-7.578a1.928,1.928,0,0,0-1.469.637A3.1,3.1,0,0,0,82.063,12H86.3v-.109a2.753,2.753,0,0,0-.594-1.707A1.815,1.815,0,0,0,84.266,9.578Zm4.8,3.125a4.952,4.952,0,0,1,.922-3.129,3.137,3.137,0,0,1,4.766-.168V5H96.2V17H94.867l-.07-.906a2.943,2.943,0,0,1-2.414,1.063,2.887,2.887,0,0,1-2.395-1.2,5.008,5.008,0,0,1-.926-3.141Zm1.445.164a3.749,3.749,0,0,0,.594,2.25,1.92,1.92,0,0,0,1.641.813A2.108,2.108,0,0,0,94.75,14.7V10.813a2.125,2.125,0,0,0-1.992-1.2,1.929,1.929,0,0,0-1.656.82A4.128,4.128,0,0,0,90.508,12.867Z" transform="translate(602 2552)" fill="#12263f"/>
    <path id="Trazado_183891" data-name="Trazado 183891" d="M9.688,13.391a4.185,4.185,0,0,1-1.332,2.785,4.365,4.365,0,0,1-2.98.98,4.008,4.008,0,0,1-3.23-1.445A5.815,5.815,0,0,1,.93,11.844V10.75A6.481,6.481,0,0,1,1.5,7.961,4.231,4.231,0,0,1,3.1,6.113a4.47,4.47,0,0,1,2.406-.645A4.11,4.11,0,0,1,8.414,6.48a4.235,4.235,0,0,1,1.273,2.8H8.18a3.268,3.268,0,0,0-.848-1.975A2.565,2.565,0,0,0,5.508,6.7,2.684,2.684,0,0,0,3.254,7.759a4.882,4.882,0,0,0-.816,3.026v1.1a5.018,5.018,0,0,0,.773,2.948A2.5,2.5,0,0,0,5.375,15.93a2.887,2.887,0,0,0,1.918-.566,3.143,3.143,0,0,0,.887-1.973ZM16.727,17a3.036,3.036,0,0,1-.2-.891,3.225,3.225,0,0,1-2.406,1.047,2.984,2.984,0,0,1-2.051-.707,2.287,2.287,0,0,1-.8-1.793,2.39,2.39,0,0,1,1-2.051,4.733,4.733,0,0,1,2.824-.73H16.5v-.664A1.623,1.623,0,0,0,16.047,10a1.821,1.821,0,0,0-1.336-.449,2.107,2.107,0,0,0-1.3.391,1.151,1.151,0,0,0-.523.945H11.438a2,2,0,0,1,.449-1.223,3.066,3.066,0,0,1,1.219-.934A4.1,4.1,0,0,1,14.8,8.391a3.342,3.342,0,0,1,2.289.73,2.635,2.635,0,0,1,.859,2.012v3.891a4.757,4.757,0,0,0,.3,1.852V17Zm-2.4-1.1a2.54,2.54,0,0,0,1.289-.352,2.127,2.127,0,0,0,.883-.914V12.9H15.367q-2.656,0-2.656,1.555a1.316,1.316,0,0,0,.453,1.063A1.742,1.742,0,0,0,14.328,15.9Zm13.039-3.031a5.026,5.026,0,0,1-.891,3.113,2.846,2.846,0,0,1-2.391,1.176,2.947,2.947,0,0,1-2.477-1.133l-.07.977H20.211V5h1.445V9.477A2.93,2.93,0,0,1,24.07,8.391a2.863,2.863,0,0,1,2.418,1.164,5.177,5.177,0,0,1,.879,3.188ZM25.922,12.7a3.906,3.906,0,0,0-.57-2.281,1.888,1.888,0,0,0-1.641-.8,2.122,2.122,0,0,0-2.055,1.328V14.6a2.181,2.181,0,0,0,2.07,1.328,1.878,1.878,0,0,0,1.617-.8A4.153,4.153,0,0,0,25.922,12.7ZM30.758,17H29.313V5h1.445Zm5.82.156a3.693,3.693,0,0,1-2.8-1.129,4.19,4.19,0,0,1-1.078-3.02v-.266a5.073,5.073,0,0,1,.48-2.246,3.748,3.748,0,0,1,1.344-1.547A3.378,3.378,0,0,1,36.4,8.391a3.166,3.166,0,0,1,2.563,1.086,4.7,4.7,0,0,1,.914,3.109v.6H34.148a3,3,0,0,0,.73,2.02,2.3,2.3,0,0,0,1.777.77,2.517,2.517,0,0,0,1.3-.312,3.259,3.259,0,0,0,.93-.828l.883.688A3.55,3.55,0,0,1,36.578,17.156ZM36.4,9.578a1.928,1.928,0,0,0-1.469.637A3.1,3.1,0,0,0,34.2,12H38.43v-.109a2.753,2.753,0,0,0-.594-1.707A1.815,1.815,0,0,0,36.4,9.578Zm10.07,5.18a1.064,1.064,0,0,0-.441-.91,4.249,4.249,0,0,0-1.539-.559,7.277,7.277,0,0,1-1.742-.562,2.479,2.479,0,0,1-.953-.781,1.869,1.869,0,0,1-.309-1.078,2.193,2.193,0,0,1,.879-1.758,3.432,3.432,0,0,1,2.246-.719,3.532,3.532,0,0,1,2.332.742,2.357,2.357,0,0,1,.895,1.9H46.383a1.3,1.3,0,0,0-.5-1.023,1.888,1.888,0,0,0-1.27-.43,1.976,1.976,0,0,0-1.234.344,1.082,1.082,0,0,0-.445.9.877.877,0,0,0,.414.789,5.1,5.1,0,0,0,1.5.508,7.8,7.8,0,0,1,1.754.578,2.558,2.558,0,0,1,1,.809,1.988,1.988,0,0,1,.324,1.152,2.163,2.163,0,0,1-.906,1.816,3.8,3.8,0,0,1-2.352.684,4.257,4.257,0,0,1-1.8-.359,2.922,2.922,0,0,1-1.223-1A2.42,2.42,0,0,1,41.2,14.4h1.445a1.5,1.5,0,0,0,.582,1.152,2.258,2.258,0,0,0,1.434.426,2.331,2.331,0,0,0,1.316-.332A1.02,1.02,0,0,0,46.469,14.758Z" transform="translate(822 2555)" fill="#12263f"/>
    <path id="Trazado_183892" data-name="Trazado 183892" d="M5.352,12.406H2.727L1.93,17H.453L2.43,5.625l3.422.008a3.814,3.814,0,0,1,2.727.907,2.83,2.83,0,0,1,.789,2.448,3.241,3.241,0,0,1-.777,1.885A4.247,4.247,0,0,1,6.75,12.1l1.766,4.8-.008.1H6.945ZM2.938,11.172l2.156.008a3.012,3.012,0,0,0,1.9-.6,2.326,2.326,0,0,0,.906-1.6,1.837,1.837,0,0,0-.391-1.531,2.087,2.087,0,0,0-1.547-.586L3.688,6.859ZM14.57,8.391a3.047,3.047,0,0,1,1.82.578,3.285,3.285,0,0,1,1.121,1.551,4.8,4.8,0,0,1,.246,2.16l-.016.172a5.685,5.685,0,0,1-.734,2.23,4.309,4.309,0,0,1-1.516,1.551,3.7,3.7,0,0,1-2.039.523,3.052,3.052,0,0,1-1.816-.578,3.21,3.21,0,0,1-1.113-1.531,4.931,4.931,0,0,1-.25-2.133,5.76,5.76,0,0,1,.711-2.359,4.409,4.409,0,0,1,1.527-1.621A3.652,3.652,0,0,1,14.57,8.391ZM11.7,12.922a4.8,4.8,0,0,0,0,1.023,2.507,2.507,0,0,0,.551,1.469,1.653,1.653,0,0,0,1.262.57,2.253,2.253,0,0,0,1.3-.348,2.919,2.919,0,0,0,1-1.121,4.721,4.721,0,0,0,.523-1.664,7.494,7.494,0,0,0,.023-1.211,2.6,2.6,0,0,0-.57-1.492,1.69,1.69,0,0,0-1.266-.578,2.3,2.3,0,0,0-1.859.859,4.245,4.245,0,0,0-.945,2.313Zm12.477,3.242a3.265,3.265,0,0,1-2.523.992,2.107,2.107,0,0,1-1.793-.867,3.317,3.317,0,0,1-.434-2.281l.906-5.461h1.414l-.914,5.484a3.643,3.643,0,0,0-.016.672,1.4,1.4,0,0,0,.336.883,1.146,1.146,0,0,0,.828.344A2.537,2.537,0,0,0,24.32,14.7l1.063-6.156H26.8L25.328,17H23.992Zm7-9.664-.359,2.047h1.539l-.2,1.117H30.625l-.883,5.258a1.833,1.833,0,0,0-.008.375.6.6,0,0,0,.664.609,4.05,4.05,0,0,0,.688-.078l-.109,1.18a3.847,3.847,0,0,1-1.031.141,1.476,1.476,0,0,1-1.266-.621,2.4,2.4,0,0,1-.328-1.629l.859-5.234H27.719l.2-1.117h1.492L29.766,6.5Zm5.07,10.656a3.048,3.048,0,0,1-2.469-1.164,4.006,4.006,0,0,1-.75-2.9l.039-.336a5.624,5.624,0,0,1,.746-2.3,4.339,4.339,0,0,1,1.5-1.566,3.491,3.491,0,0,1,1.906-.5,2.688,2.688,0,0,1,2.047.867,3.566,3.566,0,0,1,.813,2.266,6.621,6.621,0,0,1-.031,1.016l-.086.648H34.43a2.856,2.856,0,0,0,.379,1.953,1.8,1.8,0,0,0,1.551.836,3.007,3.007,0,0,0,2.313-1.125l.813.688a3.718,3.718,0,0,1-1.371,1.2A3.886,3.886,0,0,1,36.242,17.156Zm.9-7.586a2.066,2.066,0,0,0-1.527.594A4.22,4.22,0,0,0,34.578,12l4.109.008.031-.125a2.313,2.313,0,0,0-.316-1.637A1.488,1.488,0,0,0,37.141,9.57Zm9,.266-.664-.07a2.42,2.42,0,0,0-2.141,1.227L42.3,17H40.883l1.469-8.453,1.367-.008-.211.984a2.527,2.527,0,0,1,2.117-1.148,2.594,2.594,0,0,1,.672.117Z" transform="translate(539 2725)" fill="#12263f"/>
    <path id="Trazado_183893" data-name="Trazado 183893" d="M8.953,17H7.484L8.4,11.742H2.844L1.93,17H.461L2.438,5.625H3.906l-.852,4.891H8.6l.852-4.891H10.93Zm7.8-.836a3.265,3.265,0,0,1-2.523.992,2.107,2.107,0,0,1-1.793-.867A3.317,3.317,0,0,1,12,14.008l.906-5.461H14.32l-.914,5.484a3.643,3.643,0,0,0-.016.672,1.4,1.4,0,0,0,.336.883,1.146,1.146,0,0,0,.828.344A2.537,2.537,0,0,0,16.9,14.7l1.063-6.156h1.414L17.906,17H16.57Zm10.938-3.352a6.586,6.586,0,0,1-.711,2.336,3.982,3.982,0,0,1-1.344,1.539,3.058,3.058,0,0,1-1.75.477,2.61,2.61,0,0,1-2.273-1.148L21.32,17h-1.3L22.1,5h1.414l-.852,4.484a3.107,3.107,0,0,1,2.469-1.094,2.358,2.358,0,0,1,1.9.9,3.954,3.954,0,0,1,.719,2.391,7.362,7.362,0,0,1-.047.969ZM26.344,12a3.009,3.009,0,0,0-.383-1.744,1.465,1.465,0,0,0-1.242-.636,2.574,2.574,0,0,0-2.234,1.327l-.633,3.675a1.8,1.8,0,0,0,1.758,1.319,2.054,2.054,0,0,0,1.449-.492A3.212,3.212,0,0,0,26,13.983,6.578,6.578,0,0,0,26.344,12Z" transform="translate(739 2725)" fill="#12263f"/>
    <path id="Trazado_183894" data-name="Trazado 183894" d="M8.961,15.5A3.6,3.6,0,0,1,7.3,16.738a6.491,6.491,0,0,1-2.488.418,3.9,3.9,0,0,1-1.953-.523A3.454,3.454,0,0,1,1.547,15.2,5.3,5.3,0,0,1,1,13.078a11.28,11.28,0,0,1,.23-2.516,7.835,7.835,0,0,1,1-2.742A4.991,4.991,0,0,1,4,6.055a4.667,4.667,0,0,1,2.441-.586,3.59,3.59,0,0,1,2.527.941,3.847,3.847,0,0,1,1.074,2.559H8.594a2.6,2.6,0,0,0-.648-1.662A2.166,2.166,0,0,0,6.391,6.7,2.994,2.994,0,0,0,3.934,7.752,6.136,6.136,0,0,0,2.633,11l-.148,1.1-.023.595a3.9,3.9,0,0,0,.633,2.383,2.131,2.131,0,0,0,1.773.857,3.684,3.684,0,0,0,2.617-.812l.469-2.555H5.391l.219-1.227h4Zm7.1,1.5a1.893,1.893,0,0,1-.055-.445l.023-.445a3.465,3.465,0,0,1-2.469,1.047,2.526,2.526,0,0,1-1.816-.707,2.14,2.14,0,0,1-.637-1.73,2.6,2.6,0,0,1,1.176-2.1,5.005,5.005,0,0,1,2.887-.754l1.477.008.094-.672a1.545,1.545,0,0,0-.293-1.2,1.414,1.414,0,0,0-1.113-.457,2.181,2.181,0,0,0-1.285.355,1.513,1.513,0,0,0-.684.98l-1.422.008a2.266,2.266,0,0,1,.578-1.316,3.363,3.363,0,0,1,1.3-.891,4.215,4.215,0,0,1,1.648-.3,2.8,2.8,0,0,1,2.055.8,2.484,2.484,0,0,1,.617,2.043l-.687,4.188-.039.6a2.949,2.949,0,0,0,.094.852L17.5,17Zm-2.219-1.094a2.466,2.466,0,0,0,1.285-.324,3.254,3.254,0,0,0,1.043-.941l.3-1.742-1.07-.008a4.054,4.054,0,0,0-2.047.422,1.554,1.554,0,0,0-.8,1.2,1.21,1.21,0,0,0,.277.988A1.321,1.321,0,0,0,13.844,15.906Zm9.3-9.406-.359,2.047h1.539l-.2,1.117H22.6l-.883,5.258a1.833,1.833,0,0,0-.008.375.6.6,0,0,0,.664.609,4.05,4.05,0,0,0,.688-.078l-.109,1.18a3.847,3.847,0,0,1-1.031.141,1.476,1.476,0,0,1-1.266-.621,2.4,2.4,0,0,1-.328-1.629l.859-5.234H19.7l.2-1.117h1.492L21.742,6.5Zm5.07,10.656a3.048,3.048,0,0,1-2.469-1.164,4.006,4.006,0,0,1-.75-2.9l.039-.336a5.624,5.624,0,0,1,.746-2.3,4.339,4.339,0,0,1,1.5-1.566,3.491,3.491,0,0,1,1.906-.5,2.688,2.688,0,0,1,2.047.867,3.566,3.566,0,0,1,.813,2.266,6.621,6.621,0,0,1-.031,1.016l-.086.648H26.406a2.856,2.856,0,0,0,.379,1.953,1.8,1.8,0,0,0,1.551.836,3.007,3.007,0,0,0,2.313-1.125l.813.688a3.718,3.718,0,0,1-1.371,1.2A3.886,3.886,0,0,1,28.219,17.156Zm.9-7.586a2.066,2.066,0,0,0-1.527.594A4.22,4.22,0,0,0,26.555,12l4.109.008.031-.125a2.313,2.313,0,0,0-.316-1.637A1.488,1.488,0,0,0,29.117,9.57ZM40.445,15l2.7-6.453H44.6L40.75,17H39.6l-.875-6.391L35.68,17H34.531l-.914-8.453h1.352l.516,6.3,3-6.3h1.141Zm9.328,2a1.894,1.894,0,0,1-.055-.445l.023-.445a3.465,3.465,0,0,1-2.469,1.047,2.526,2.526,0,0,1-1.816-.707,2.14,2.14,0,0,1-.637-1.73A2.6,2.6,0,0,1,46,12.621a5.005,5.005,0,0,1,2.887-.754l1.477.008.094-.672A1.545,1.545,0,0,0,50.16,10a1.414,1.414,0,0,0-1.113-.457,2.181,2.181,0,0,0-1.285.355,1.513,1.513,0,0,0-.684.98l-1.422.008a2.266,2.266,0,0,1,.578-1.316,3.363,3.363,0,0,1,1.3-.891,4.215,4.215,0,0,1,1.648-.3,2.8,2.8,0,0,1,2.055.8,2.484,2.484,0,0,1,.617,2.043l-.687,4.188-.039.6a2.949,2.949,0,0,0,.094.852L51.211,17Zm-2.219-1.094a2.466,2.466,0,0,0,1.285-.324,3.254,3.254,0,0,0,1.043-.941l.3-1.742-1.07-.008a4.054,4.054,0,0,0-2.047.422,1.554,1.554,0,0,0-.8,1.2,1.21,1.21,0,0,0,.277.988A1.321,1.321,0,0,0,47.555,15.906Zm8.6-1.039,3.008-6.32h1.563l-5.016,9.859q-1.047,2.055-2.687,2.031a4.605,4.605,0,0,1-.852-.141l.125-1.172.367.039a1.853,1.853,0,0,0,1.16-.3,2.772,2.772,0,0,0,.863-1.074l.508-.969L53.734,8.547h1.477Z" transform="translate(914 2720)" fill="#12263f"/>
    <g id="Grupo_141693" data-name="Grupo 141693" transform="translate(622.027 2486.834)">
      <g id="Grupo_141692" data-name="Grupo 141692" transform="translate(0 0)" clip-path="url(#clip-path)">
        <path id="Trazado_183743" data-name="Trazado 183743" d="M59.2,1.651H54.777V1.116A1.116,1.116,0,0,0,53.661,0H50.155A1.116,1.116,0,0,0,49.04,1.116v.535H44.62V1.116A1.116,1.116,0,0,0,43.505,0H40a1.116,1.116,0,0,0-1.115,1.116v.535H4.757A4.763,4.763,0,0,0,0,6.408v37.5a4.763,4.763,0,0,0,4.757,4.757H59.2a4.763,4.763,0,0,0,4.757-4.757V6.408A4.763,4.763,0,0,0,59.2,1.651M49.88,6.113h4.057v.6H49.88Zm-10.157,0H43.78v.6H39.723Zm19.769,37.8a.3.3,0,0,1-.3.3H4.757a.3.3,0,0,1-.295-.3V6.408a.3.3,0,0,1,.295-.295H22.982V7.1A1.115,1.115,0,0,0,24.1,8.216h3.386A1.115,1.115,0,0,0,28.6,7.1V6.113h1.639V7.1a1.115,1.115,0,0,0,1.115,1.115h3.386A1.115,1.115,0,0,0,35.854,7.1V6.113h1.638V7.827a1.116,1.116,0,0,0,1.115,1.115H44.9a1.116,1.116,0,0,0,1.115-1.115V6.113h1.638V7.827a1.116,1.116,0,0,0,1.116,1.115h6.288a1.116,1.116,0,0,0,1.115-1.115V6.113H59.2a.3.3,0,0,1,.3.295Z" transform="translate(0 0)" fill="#4dd0e1"/>
        <path id="Trazado_183744" data-name="Trazado 183744" d="M60.176,23.261H54.91a1.864,1.864,0,0,0-1.862,1.862v5.266A1.863,1.863,0,0,0,54.91,32.25h5.266a1.864,1.864,0,0,0,1.862-1.862V25.123a1.864,1.864,0,0,0-1.862-1.862" transform="translate(-10.64 -4.665)" fill="#4dd0e1"/>
        <path id="Trazado_183745" data-name="Trazado 183745" d="M65.826,23.266a1.116,1.116,0,0,0,0-2.231h-.98v-.609a3.292,3.292,0,0,0-3.289-3.288h-.61V16.114a1.115,1.115,0,1,0-2.23,0v1.023H57V16.114a1.116,1.116,0,0,0-2.231,0v1.023H53.051V16.114a1.116,1.116,0,0,0-2.231,0v1.023h-.61a3.292,3.292,0,0,0-3.288,3.288v.609H45.893a1.116,1.116,0,0,0,0,2.231h1.029v1.718H45.893a1.115,1.115,0,1,0,0,2.23h1.029v1.718H45.893a1.115,1.115,0,1,0,0,2.23h1.029v.61A3.292,3.292,0,0,0,50.21,35.06h.61v.986a1.116,1.116,0,1,0,2.231,0V35.06h1.717v.986a1.116,1.116,0,1,0,2.231,0V35.06h1.717v.986a1.115,1.115,0,1,0,2.23,0V35.06h.61a3.292,3.292,0,0,0,3.289-3.288v-.61h.98a1.115,1.115,0,0,0,0-2.23h-.98V27.214h.98a1.115,1.115,0,0,0,0-2.23h-.98V23.266Zm-3.211,8.507a1.058,1.058,0,0,1-1.058,1.057H50.21a1.059,1.059,0,0,1-1.058-1.057V20.425a1.059,1.059,0,0,1,1.058-1.057H61.557a1.058,1.058,0,0,1,1.058,1.057Z" transform="translate(-8.982 -3.008)" fill="#4dd0e1"/>
        <path id="Trazado_183746" data-name="Trazado 183746" d="M57.205,46.186H33.735a1.116,1.116,0,0,0,0,2.231h23.47a1.116,1.116,0,0,0,0-2.231" transform="translate(-6.543 -9.264)" fill="#4dd0e1"/>
        <path id="Trazado_183747" data-name="Trazado 183747" d="M57.205,50.747H33.735a1.116,1.116,0,0,0,0,2.231h23.47a1.116,1.116,0,0,0,0-2.231" transform="translate(-6.543 -10.179)" fill="#4dd0e1"/>
        <path id="Trazado_183748" data-name="Trazado 183748" d="M10.578,26.387a1.115,1.115,0,0,0,1.114-1.115V15.815a1.115,1.115,0,1,0-2.23,0v9.457a1.116,1.116,0,0,0,1.116,1.115" transform="translate(-1.898 -2.948)" fill="#4dd0e1"/>
        <path id="Trazado_183749" data-name="Trazado 183749" d="M15.115,26.387a1.116,1.116,0,0,0,1.115-1.115V15.815a1.115,1.115,0,1,0-2.23,0v9.457a1.116,1.116,0,0,0,1.115,1.115" transform="translate(-2.808 -2.948)" fill="#4dd0e1"/>
        <path id="Trazado_183750" data-name="Trazado 183750" d="M10.578,47.117a1.116,1.116,0,0,0-1.116,1.115v2.9a1.115,1.115,0,1,0,2.23,0v-2.9a1.115,1.115,0,0,0-1.114-1.115" transform="translate(-1.898 -9.45)" fill="#4dd0e1"/>
        <path id="Trazado_183751" data-name="Trazado 183751" d="M14.208,47.117a1.116,1.116,0,0,0-1.115,1.115v2.9a1.115,1.115,0,1,0,2.23,0v-2.9a1.116,1.116,0,0,0-1.115-1.115" transform="translate(-2.626 -9.45)" fill="#4dd0e1"/>
        <path id="Trazado_183752" data-name="Trazado 183752" d="M17.838,47.117a1.116,1.116,0,0,0-1.115,1.115v2.9a1.115,1.115,0,1,0,2.23,0v-2.9a1.116,1.116,0,0,0-1.115-1.115" transform="translate(-3.354 -9.45)" fill="#4dd0e1"/>
        <path id="Trazado_183753" data-name="Trazado 183753" d="M21.469,47.117a1.116,1.116,0,0,0-1.115,1.115v2.9a1.115,1.115,0,1,0,2.23,0v-2.9a1.116,1.116,0,0,0-1.115-1.115" transform="translate(-4.083 -9.45)" fill="#4dd0e1"/>
        <path id="Trazado_183754" data-name="Trazado 183754" d="M12.762,35.924a3.413,3.413,0,1,0,3.413,3.413,3.417,3.417,0,0,0-3.413-3.413" transform="translate(-1.875 -7.205)" fill="#4dd0e1"/>
        <path id="Trazado_183755" data-name="Trazado 183755" d="M10.578,33.393a1.115,1.115,0,0,0,1.114-1.115v-.843a1.115,1.115,0,0,0-2.23,0v.843a1.115,1.115,0,0,0,1.116,1.115" transform="translate(-1.898 -6.081)" fill="#4dd0e1"/>
        <path id="Trazado_183756" data-name="Trazado 183756" d="M15.115,33.393a1.115,1.115,0,0,0,1.115-1.115v-.843a1.115,1.115,0,0,0-2.23,0v.843a1.115,1.115,0,0,0,1.115,1.115" transform="translate(-2.808 -6.081)" fill="#4dd0e1"/>
        <path id="Trazado_183757" data-name="Trazado 183757" d="M29.287,46.186H28.2a1.116,1.116,0,0,0,0,2.231h1.088a1.116,1.116,0,0,0,0-2.231" transform="translate(-5.433 -9.264)" fill="#4dd0e1"/>
        <path id="Trazado_183758" data-name="Trazado 183758" d="M29.287,50.747H28.2a1.116,1.116,0,0,0,0,2.231h1.088a1.116,1.116,0,0,0,0-2.231" transform="translate(-5.433 -10.179)" fill="#4dd0e1"/>
        <path id="Trazado_183759" data-name="Trazado 183759" d="M22.514,17.611H32.649a1.116,1.116,0,0,0,0-2.231H22.514a1.116,1.116,0,0,0,0,2.231" transform="translate(-4.292 -3.085)" fill="#4dd0e1"/>
        <path id="Trazado_183760" data-name="Trazado 183760" d="M22.514,22.149H32.649a1.116,1.116,0,0,0,0-2.231H22.514a1.116,1.116,0,0,0,0,2.231" transform="translate(-4.292 -3.995)" fill="#4dd0e1"/>
        <path id="Trazado_183761" data-name="Trazado 183761" d="M68.357,46.186H67.269a1.116,1.116,0,0,0,0,2.231h1.088a1.116,1.116,0,0,0,0-2.231" transform="translate(-13.269 -9.264)" fill="#4dd0e1"/>
        <path id="Trazado_183762" data-name="Trazado 183762" d="M68.357,50.747H67.269a1.116,1.116,0,0,0,0,2.231h1.088a1.116,1.116,0,0,0,0-2.231" transform="translate(-13.269 -10.179)" fill="#4dd0e1"/>
        <path id="Trazado_183763" data-name="Trazado 183763" d="M10.578,12.928a1.115,1.115,0,0,0,1.114-1.115V10.97a1.115,1.115,0,1,0-2.23,0v.843a1.116,1.116,0,0,0,1.116,1.115" transform="translate(-1.898 -1.976)" fill="#4dd0e1"/>
        <path id="Trazado_183764" data-name="Trazado 183764" d="M15.115,12.928a1.116,1.116,0,0,0,1.115-1.115V10.97a1.115,1.115,0,1,0-2.23,0v.843a1.116,1.116,0,0,0,1.115,1.115" transform="translate(-2.808 -1.976)" fill="#4dd0e1"/>
        <path id="Trazado_183765" data-name="Trazado 183765" d="M33.988,36.6v-6.65a2.266,2.266,0,0,0-2.264-2.264h-8.1a2.266,2.266,0,0,0-2.264,2.264V36.6a2.266,2.266,0,0,0,2.264,2.265h8.1A2.266,2.266,0,0,0,33.988,36.6m-8.125-.391h-.576a1.116,1.116,0,0,1,0-2.231h.576a1.116,1.116,0,0,1,0,2.231m0-3.637h-.576a1.116,1.116,0,0,1,0-2.231h.576a1.116,1.116,0,0,1,0,2.231m4.2,3.637h-.576a1.116,1.116,0,1,1,0-2.231h.576a1.116,1.116,0,0,1,0,2.231m0-3.637h-.576a1.116,1.116,0,1,1,0-2.231h.576a1.116,1.116,0,0,1,0,2.231" transform="translate(-4.284 -5.553)" fill="#4dd0e1"/>
      </g>
    </g>
    <g id="Grupo_141695" data-name="Grupo 141695" transform="translate(814.75 2481.048)">
      <g id="Grupo_141694" data-name="Grupo 141694" transform="translate(0 0)" clip-path="url(#clip-path-2)">
        <path id="Trazado_183766" data-name="Trazado 183766" d="M15.148,7.819A1.183,1.183,0,0,0,13.964,9v1.955H11.546a1.184,1.184,0,1,0,0,2.367h3.6a1.183,1.183,0,0,0,1.184-1.184V9a1.183,1.183,0,0,0-1.184-1.184" transform="translate(-1.878 -1.417)" fill="#1565c0"/>
        <path id="Trazado_183767" data-name="Trazado 183767" d="M25.174,7.819A1.183,1.183,0,0,0,23.99,9v1.955H21.572a1.184,1.184,0,1,0,0,2.367h3.6a1.183,1.183,0,0,0,1.184-1.184V9a1.183,1.183,0,0,0-1.184-1.184" transform="translate(-3.695 -1.417)" fill="#1565c0"/>
        <path id="Trazado_183768" data-name="Trazado 183768" d="M27.661,16.432V5.076A5.081,5.081,0,0,0,22.585,0H8.562A5.08,5.08,0,0,0,3.487,5.076V16.432A4.283,4.283,0,0,0,0,20.634V32.987a4.284,4.284,0,0,0,4.28,4.279h5.908V52.014A1.183,1.183,0,0,0,11.372,53.2h8.4a1.183,1.183,0,0,0,1.183-1.184V37.266h5.909a4.284,4.284,0,0,0,4.28-4.279V20.634a4.283,4.283,0,0,0-3.486-4.2m-2.368-.077H5.854V5.076A2.711,2.711,0,0,1,8.562,2.368H22.585a2.711,2.711,0,0,1,2.708,2.708Z" transform="translate(0 0)" fill="#1565c0"/>
        <path id="Trazado_183769" data-name="Trazado 183769" d="M69.618,16.432V5.076A5.08,5.08,0,0,0,64.543,0H50.52a5.081,5.081,0,0,0-5.075,5.075V16.432a4.283,4.283,0,0,0-3.486,4.2v5.458a4.649,4.649,0,0,0,.38,1.845l4.778,11.137a4.677,4.677,0,0,0,4.3,2.835h.729v10.1A1.183,1.183,0,0,0,53.33,53.2h8.4a1.183,1.183,0,0,0,1.184-1.184V41.91h.729a4.675,4.675,0,0,0,4.3-2.835l4.779-11.137a4.659,4.659,0,0,0,.379-1.845V20.634a4.283,4.283,0,0,0-3.487-4.2M63.352,35.882a1.184,1.184,0,1,1-2.367,0V31.245a3.453,3.453,0,1,0-6.907,0v4.637a1.184,1.184,0,0,1-2.368,0V31.245a5.821,5.821,0,0,1,11.642,0Zm3.9-19.526H47.812V5.076a2.7,2.7,0,0,1,2.564-2.693V12.948a1.184,1.184,0,1,0,2.368,0V2.368h1.613v10.58a1.184,1.184,0,1,0,2.368,0V2.368h1.613v10.58a1.184,1.184,0,1,0,2.367,0V2.368h1.613v10.58a1.184,1.184,0,0,0,2.368,0V2.383a2.7,2.7,0,0,1,2.565,2.693Z" transform="translate(-7.605 0)" fill="#1565c0"/>
      </g>
    </g>
    <g id="Grupo_141697" data-name="Grupo 141697" transform="translate(910.849 2649.457)">
      <g id="Grupo_141696" data-name="Grupo 141696" transform="translate(0 0)" clip-path="url(#clip-path-3)">
        <path id="Trazado_183770" data-name="Trazado 183770" d="M23.344,14.688a1.624,1.624,0,0,0,2.3-.054,7.462,7.462,0,0,0,0-10.3,1.624,1.624,0,0,0-2.352,2.241,4.212,4.212,0,0,1,0,5.816,1.623,1.623,0,0,0,.055,2.3" transform="translate(-3.598 -0.604)" fill="#4dd0e1"/>
        <path id="Trazado_183771" data-name="Trazado 183771" d="M9.1,14.631a1.624,1.624,0,0,0,2.35-2.242,4.212,4.212,0,0,1,0-5.815A1.624,1.624,0,0,0,9.108,4.331a7.461,7.461,0,0,0,0,10.3" transform="translate(-1.11 -0.603)" fill="#4dd0e1"/>
        <path id="Trazado_183772" data-name="Trazado 183772" d="M29.756,8.88A8.838,8.838,0,0,1,27.3,15.012a1.624,1.624,0,0,0,2.35,2.243A12.131,12.131,0,0,0,29.648.5,1.624,1.624,0,1,0,27.3,2.746,8.842,8.842,0,0,1,29.756,8.88" transform="translate(-4.23 0)" fill="#4dd0e1"/>
        <path id="Trazado_183773" data-name="Trazado 183773" d="M6.028,17.756A1.624,1.624,0,0,0,7.2,15.011a8.882,8.882,0,0,1,0-12.263A1.624,1.624,0,0,0,4.855.505a12.131,12.131,0,0,0,0,16.748,1.62,1.62,0,0,0,1.175.5" transform="translate(-0.236 0)" fill="#4dd0e1"/>
        <path id="Trazado_183774" data-name="Trazado 183774" d="M67.687,14.688a1.622,1.622,0,0,0,2.3-.053,7.461,7.461,0,0,0,0-10.3,1.624,1.624,0,0,0-2.35,2.242,4.213,4.213,0,0,1,0,5.816,1.624,1.624,0,0,0,.053,2.3" transform="translate(-10.584 -0.604)" fill="#4dd0e1"/>
        <path id="Trazado_183775" data-name="Trazado 183775" d="M53.448,14.631A1.624,1.624,0,0,0,55.8,12.39a4.212,4.212,0,0,1,0-5.816,1.624,1.624,0,0,0-2.349-2.243,7.461,7.461,0,0,0,0,10.3" transform="translate(-8.095 -0.603)" fill="#4dd0e1"/>
        <path id="Trazado_183776" data-name="Trazado 183776" d="M74.1,8.88a8.841,8.841,0,0,1-2.457,6.132,1.624,1.624,0,0,0,2.35,2.243A12.132,12.132,0,0,0,73.992.5a1.624,1.624,0,1,0-2.349,2.243A8.842,8.842,0,0,1,74.1,8.88" transform="translate(-11.215 0)" fill="#4dd0e1"/>
        <path id="Trazado_183777" data-name="Trazado 183777" d="M50.373,17.756a1.624,1.624,0,0,0,1.175-2.746,8.88,8.88,0,0,1,0-12.263A1.624,1.624,0,1,0,49.2.505a12.129,12.129,0,0,0,0,16.748,1.62,1.62,0,0,0,1.175.5" transform="translate(-7.222 0)" fill="#4dd0e1"/>
        <path id="Trazado_183778" data-name="Trazado 183778" d="M62.121,31.921H56.326L54.911,9.8a2.551,2.551,0,0,0-5.074.064L48.429,31.921H18.967L17.553,9.8a2.552,2.552,0,0,0-5.075.064L11.07,31.921H5.275A5.283,5.283,0,0,0,0,37.2V47.09a5.283,5.283,0,0,0,5.276,5.276H6.452v2.393A1.218,1.218,0,0,0,7.67,55.977h4.948a1.219,1.219,0,0,0,1.218-1.218V52.366H53.56v2.393a1.219,1.219,0,0,0,1.218,1.218h4.949a1.218,1.218,0,0,0,1.217-1.218V52.366h1.176A5.282,5.282,0,0,0,67.4,47.09V37.2a5.282,5.282,0,0,0-5.276-5.276M11.4,53.541H8.887V52.366H11.4Zm12.779-7.286H22.566a1.218,1.218,0,0,1,0-2.436h1.612a1.218,1.218,0,0,1,0,2.436m5.163,0H27.729a1.218,1.218,0,1,1,0-2.436h1.613a1.218,1.218,0,1,1,0,2.436m5.163,0H32.891a1.218,1.218,0,1,1,0-2.436H34.5a1.218,1.218,0,1,1,0,2.436m5.163,0H38.054a1.218,1.218,0,0,1,0-2.436h1.613a1.218,1.218,0,0,1,0,2.436m5.163,0H43.217a1.218,1.218,0,0,1,0-2.436H44.83a1.218,1.218,0,0,1,0,2.436m13.679,7.286H56V52.366h2.512Zm6.452-15.763H2.435V37.2a2.843,2.843,0,0,1,2.84-2.84H62.121a2.843,2.843,0,0,1,2.84,2.84Z" transform="translate(0 -1.189)" fill="#4dd0e1"/>
      </g>
    </g>
    <g id="Grupo_141699" data-name="Grupo 141699" transform="translate(717.166 2657.806)">
      <g id="Grupo_141698" data-name="Grupo 141698" clip-path="url(#clip-path-4)">
        <path id="Trazado_183779" data-name="Trazado 183779" d="M2.782,25.035c8.36-.015,66.075-.015,74.435,0a.576.576,0,0,0,.493-.872L64.927,2.406A5.635,5.635,0,0,0,60.294,0H19.706a5.655,5.655,0,0,0-4.672,2.468L2.289,24.163a.576.576,0,0,0,.493.872" fill="#feca2e"/>
        <path id="Trazado_183780" data-name="Trazado 183780" d="M79.183,27.89a3.189,3.189,0,0,0-2.414-1.083H3.231A3.229,3.229,0,0,0,.023,30.414L1.572,43.588A3.231,3.231,0,0,0,4.78,46.439H75.22a3.231,3.231,0,0,0,3.208-2.852l1.549-13.173a3.193,3.193,0,0,0-.794-2.524M62.727,41.428h-2.6a1.559,1.559,0,1,1,0-3.117h2.6a1.559,1.559,0,1,1,0,3.117m9.091,0h-2.6a1.559,1.559,0,1,1,0-3.117h2.6a1.559,1.559,0,0,1,0,3.117" fill="#feca2e"/>
      </g>
    </g>
    <g id="Grupo_141701" data-name="Grupo 141701" transform="translate(530.579 2651.148)">
      <g id="Grupo_141700" data-name="Grupo 141700" transform="translate(0 0)" clip-path="url(#clip-path-5)">
        <path id="Trazado_183781" data-name="Trazado 183781" d="M41.55,17.291a2.424,2.424,0,0,0,1.728-4.122,10.211,10.211,0,0,0-14.58,0,2.422,2.422,0,1,0,3.454,3.4,5.5,5.5,0,0,1,7.671,0,2.411,2.411,0,0,0,1.727.725M41.282,31.7a3.231,3.231,0,1,0,3.231,3.231A3.231,3.231,0,0,0,41.282,31.7M50.419,6.012a20.325,20.325,0,0,0-28.862,0A2.423,2.423,0,0,0,25,9.426a15.481,15.481,0,0,1,21.984,0,2.423,2.423,0,1,0,3.439-3.413" transform="translate(12.833 0.001)" fill="#1565c0"/>
        <path id="Trazado_183782" data-name="Trazado 183782" d="M61.384,13.623H6.461A6.462,6.462,0,0,0,0,20.084V33.007a6.462,6.462,0,0,0,6.461,6.461H61.384a6.462,6.462,0,0,0,6.461-6.461V20.084a6.462,6.462,0,0,0-6.461-6.461M11.308,29.777a3.231,3.231,0,1,1,3.231-3.231,3.231,3.231,0,0,1-3.231,3.231m11.308,0a3.231,3.231,0,1,1,3.231-3.231,3.231,3.231,0,0,1-3.231,3.231m31.5,3.231a6.461,6.461,0,1,1,6.461-6.461,6.468,6.468,0,0,1-6.461,6.461" transform="translate(0 8.384)" fill="#1565c0"/>
      </g>
    </g>
  </g>
</svg>
