<svg xmlns="http://www.w3.org/2000/svg" xmlns:xlink="http://www.w3.org/1999/xlink" width="315" height="282" viewBox="0 0 315 282">
  <defs>
    <clipPath id="clip-path">
      <rect id="Rectángulo_36798" data-name="Rectángulo 36798" width="63" height="52" transform="translate(0.236 -0.308)" fill="none"/>
    </clipPath>
    <clipPath id="clip-path-2">
      <rect id="Rectángulo_36798-2" data-name="Rectángulo 36798" width="63" height="52" transform="translate(0 -0.166)" fill="none"/>
    </clipPath>
    <clipPath id="clip-path-3">
      <rect id="Rectángulo_36798-3" data-name="Rectángulo 36798" width="63" height="50" transform="translate(-0.19 0.302)" fill="none"/>
    </clipPath>
    <clipPath id="clip-path-4">
      <rect id="Rectángulo_36798-4" data-name="Rectángulo 36798" width="63" height="51" transform="translate(-0.381 0.39)" fill="none"/>
    </clipPath>
    <clipPath id="clip-path-5">
      <rect id="Rectángulo_36798-5" data-name="Rectángulo 36798" width="62" height="51" transform="translate(0.368 0.39)" fill="none"/>
    </clipPath>
    <clipPath id="clip-path-6">
      <rect id="Rectángulo_36801" data-name="Rectángulo 36801" width="76" height="29" transform="translate(-0.103 -0.492)" fill="none"/>
    </clipPath>
  </defs>
  <g id="slider8" transform="translate(-1020 -6737.871)">
    <g id="Grupo_141721" data-name="Grupo 141721" transform="translate(1142.764 6738.179)">
      <g id="Grupo_130744" data-name="Grupo 130744" transform="translate(0 0)" clip-path="url(#clip-path)">
        <path id="Trazado_146203" data-name="Trazado 146203" d="M47.969,0H28.5A1.5,1.5,0,0,0,27,1.5V13.48H49.467V1.5a1.5,1.5,0,0,0-1.5-1.5" transform="translate(13.11 0.153)" fill="#173042"/>
        <path id="Trazado_146204" data-name="Trazado 146204" d="M40.44,17.973V49.492a1.466,1.466,0,0,0,1.5,1.432H61.409a1.466,1.466,0,0,0,1.5-1.432V17.973ZM51.673,43.435a3,3,0,1,1,3-3,2.995,2.995,0,0,1-3,3M36.7,5.991V1.5A5.166,5.166,0,0,1,36.94,0H3A3,3,0,0,0,0,3V37.444a3,3,0,0,0,3,3H19.221l-1,5.991H12.731a2.247,2.247,0,0,0,0,4.493H36.925a5.05,5.05,0,0,1-.229-1.432V46.431H32.7l-1-5.991H36.7V34.449H5.991V5.991Z" transform="translate(-0.33 0.153)" fill="#173042"/>
      </g>
    </g>
    <g id="Grupo_141722" data-name="Grupo 141722" transform="translate(1020 6800.037)">
      <g id="Grupo_130744-2" data-name="Grupo 130744" transform="translate(0 0)" clip-path="url(#clip-path-2)">
        <path id="Trazado_146203-2" data-name="Trazado 146203" d="M47.969,0H28.5A1.5,1.5,0,0,0,27,1.5V13.48H49.467V1.5a1.5,1.5,0,0,0-1.5-1.5" transform="translate(13.44 0.106)" fill="#173042"/>
        <path id="Trazado_146204-2" data-name="Trazado 146204" d="M40.44,17.973V49.492a1.466,1.466,0,0,0,1.5,1.432H61.409a1.466,1.466,0,0,0,1.5-1.432V17.973ZM51.673,43.435a3,3,0,1,1,3-3,2.995,2.995,0,0,1-3,3M36.7,5.991V1.5A5.166,5.166,0,0,1,36.94,0H3A3,3,0,0,0,0,3V37.444a3,3,0,0,0,3,3H19.221l-1,5.991H12.731a2.247,2.247,0,0,0,0,4.493H36.925a5.05,5.05,0,0,1-.229-1.432V46.431H32.7l-1-5.991H36.7V34.449H5.991V5.991Z" transform="translate(0 0.106)" fill="#173042"/>
      </g>
    </g>
    <g id="Grupo_141723" data-name="Grupo 141723" transform="translate(1272.19 6789.568)">
      <g id="Grupo_130744-3" data-name="Grupo 130744" transform="translate(0 0)" clip-path="url(#clip-path-3)">
        <path id="Trazado_146203-3" data-name="Trazado 146203" d="M47.969,0H28.5A1.5,1.5,0,0,0,27,1.5V13.48H49.467V1.5a1.5,1.5,0,0,0-1.5-1.5" transform="translate(13.25 -0.123)" fill="#173042"/>
        <path id="Trazado_146204-3" data-name="Trazado 146204" d="M40.44,17.973V49.492a1.466,1.466,0,0,0,1.5,1.432H61.409a1.466,1.466,0,0,0,1.5-1.432V17.973ZM51.673,43.435a3,3,0,1,1,3-3,2.995,2.995,0,0,1-3,3M36.7,5.991V1.5A5.166,5.166,0,0,1,36.94,0H3A3,3,0,0,0,0,3V37.444a3,3,0,0,0,3,3H19.221l-1,5.991H12.731a2.247,2.247,0,0,0,0,4.493H36.925a5.05,5.05,0,0,1-.229-1.432V46.431H32.7l-1-5.991H36.7V34.449H5.991V5.991Z" transform="translate(-0.19 -0.123)" fill="#173042"/>
      </g>
    </g>
    <g id="Grupo_141724" data-name="Grupo 141724" transform="translate(1241.381 6968.481)">
      <g id="Grupo_130744-4" data-name="Grupo 130744" transform="translate(0 0)" clip-path="url(#clip-path-4)">
        <path id="Trazado_146203-4" data-name="Trazado 146203" d="M47.969,0H28.5A1.5,1.5,0,0,0,27,1.5V13.48H49.467V1.5a1.5,1.5,0,0,0-1.5-1.5" transform="translate(13.059 0.455)" fill="#173042"/>
        <path id="Trazado_146204-4" data-name="Trazado 146204" d="M40.44,17.973V49.492a1.466,1.466,0,0,0,1.5,1.432H61.409a1.466,1.466,0,0,0,1.5-1.432V17.973ZM51.673,43.435a3,3,0,1,1,3-3,2.995,2.995,0,0,1-3,3M36.7,5.991V1.5A5.166,5.166,0,0,1,36.94,0H3A3,3,0,0,0,0,3V37.444a3,3,0,0,0,3,3H19.221l-1,5.991H12.731a2.247,2.247,0,0,0,0,4.493H36.925a5.05,5.05,0,0,1-.229-1.432V46.431H32.7l-1-5.991H36.7V34.449H5.991V5.991Z" transform="translate(-0.381 0.455)" fill="#173042"/>
      </g>
    </g>
    <g id="Grupo_141725" data-name="Grupo 141725" transform="translate(1057.631 6968.481)">
      <g id="Grupo_130744-5" data-name="Grupo 130744" transform="translate(0 0)" clip-path="url(#clip-path-5)">
        <path id="Trazado_146203-5" data-name="Trazado 146203" d="M47.969,0H28.5A1.5,1.5,0,0,0,27,1.5V13.48H49.467V1.5a1.5,1.5,0,0,0-1.5-1.5" transform="translate(13.167 0.455)" fill="#173042"/>
        <path id="Trazado_146204-5" data-name="Trazado 146204" d="M40.44,17.973V49.492a1.466,1.466,0,0,0,1.5,1.432H61.409a1.466,1.466,0,0,0,1.5-1.432V17.973ZM51.673,43.435a3,3,0,1,1,3-3,2.995,2.995,0,0,1-3,3M36.7,5.991V1.5A5.166,5.166,0,0,1,36.94,0H3A3,3,0,0,0,0,3V37.444a3,3,0,0,0,3,3H19.221l-1,5.991H12.731a2.247,2.247,0,0,0,0,4.493H36.925a5.05,5.05,0,0,1-.229-1.432V46.431H32.7l-1-5.991H36.7V34.449H5.991V5.991Z" transform="translate(-0.273 0.455)" fill="#173042"/>
      </g>
    </g>
    <line id="Línea_258" data-name="Línea 258" y1="88" transform="translate(1174.5 6786.371)" fill="none" stroke="#1c6bf7" stroke-linecap="round" stroke-width="4"/>
    <line id="Línea_259" data-name="Línea 259" y1="177" x2="214" transform="translate(1058 6792.871)" fill="none" stroke="#1c6bf7" stroke-linecap="round" stroke-width="4"/>
    <line id="Línea_260" data-name="Línea 260" x1="216" y1="166" transform="translate(1083.5 6803.371)" fill="none" stroke="#1c6bf7" stroke-linecap="round" stroke-width="4"/>
    <rect id="Rectángulo_37313" data-name="Rectángulo 37313" width="73" height="29" rx="7" transform="translate(1135 6870.871)" fill="#fff"/>
    <g id="Grupo_141737" data-name="Grupo 141737" transform="translate(1134.103 6871.363)">
      <g id="Grupo_130759" data-name="Grupo 130759" transform="translate(0 0)" clip-path="url(#clip-path-6)">
        <path id="Trazado_146213" data-name="Trazado 146213" d="M35.118,6a3.618,3.618,0,1,0,3.618,3.618A3.617,3.617,0,0,0,35.118,6" transform="translate(25.877 4.573)" fill="#173042"/>
        <path id="Trazado_146214" data-name="Trazado 146214" d="M68.749,0H7.237A7.237,7.237,0,0,0,0,7.237V21.71a7.237,7.237,0,0,0,7.237,7.237H68.749a7.237,7.237,0,0,0,7.237-7.237V7.237A7.237,7.237,0,0,0,68.749,0M12.664,18.092a3.618,3.618,0,1,1,3.618-3.618,3.619,3.619,0,0,1-3.618,3.618m12.664,0a3.618,3.618,0,1,1,3.618-3.618,3.619,3.619,0,0,1-3.618,3.618M60.607,21.71a7.237,7.237,0,1,1,7.237-7.237,7.244,7.244,0,0,1-7.237,7.237" transform="translate(0.388 -0.282)" fill="#173042"/>
      </g>
    </g>
    <rect id="Rectángulo_37321" data-name="Rectángulo 37321" width="32" height="30" transform="translate(1025 6805.871)" fill="#fff"/>
    <rect id="Rectángulo_37322" data-name="Rectángulo 37322" width="32" height="30" transform="translate(1147 6743.871)" fill="#fff"/>
    <rect id="Rectángulo_37323" data-name="Rectángulo 37323" width="32" height="30" transform="translate(1278 6795.871)" fill="#fff"/>
    <rect id="Rectángulo_37324" data-name="Rectángulo 37324" width="32" height="30" transform="translate(1246 6973.871)" fill="#fff"/>
    <rect id="Rectángulo_37325" data-name="Rectángulo 37325" width="32" height="30" transform="translate(1062 6973.871)" fill="#fff"/>
  </g>
</svg>
