<svg xmlns="http://www.w3.org/2000/svg" xmlns:xlink="http://www.w3.org/1999/xlink" width="418" height="374" viewBox="0 0 418 374">
  <defs>
    <filter id="Rectángulo_36797" x="0" y="0" width="418" height="374" filterUnits="userSpaceOnUse">
      <feOffset dy="3" input="SourceAlpha"/>
      <feGaussianBlur stdDeviation="3" result="blur"/>
      <feFlood flood-opacity="0.161"/>
      <feComposite operator="in" in2="blur"/>
      <feComposite in="SourceGraphic"/>
    </filter>
  </defs>
  <g id="slider5" transform="translate(6218 6206)">
    <g transform="matrix(1, 0, 0, 1, -6218, -6206)" filter="url(#Rectángulo_36797)">
      <rect id="Rectángulo_36797-2" data-name="Rectángulo 36797" width="400" height="356" rx="33" transform="translate(9 6)" fill="#f6f6f6"/>
    </g>
    <path id="Trazado_183916" data-name="Trazado 183916" d="M5.019-12.8l2.856,8.9,2.848-8.9h4.061V0H11.689V-2.988l.3-6.117L8.895,0H6.855l-3.1-9.114.3,6.126V0H.967V-12.8ZM21.964,0a3.344,3.344,0,0,1-.281-.853A2.754,2.754,0,0,1,19.4.176a3.374,3.374,0,0,1-2.285-.813,2.588,2.588,0,0,1-.94-2.043,2.66,2.66,0,0,1,1.143-2.338,5.821,5.821,0,0,1,3.322-.791h.914v-.5q0-1.316-1.134-1.316a.927.927,0,0,0-1.055,1.042H16.4a2.655,2.655,0,0,1,1.173-2.239,4.931,4.931,0,0,1,2.993-.86A4.323,4.323,0,0,1,23.44-8.8a3.086,3.086,0,0,1,1.081,2.435v4.21a4.311,4.311,0,0,0,.4,2V0ZM20.109-1.934a1.652,1.652,0,0,0,.918-.237,1.487,1.487,0,0,0,.523-.536V-4.228h-.861q-1.547,0-1.547,1.389a.848.848,0,0,0,.272.655A.986.986,0,0,0,20.109-1.934ZM29.285,0H26.314V-13.5h2.971Zm4.948,0H31.263V-13.5h2.971Zm7.181,0a3.344,3.344,0,0,1-.281-.853A2.754,2.754,0,0,1,38.848.176a3.374,3.374,0,0,1-2.285-.813,2.588,2.588,0,0,1-.94-2.043,2.66,2.66,0,0,1,1.143-2.338,5.821,5.821,0,0,1,3.322-.791H41v-.5q0-1.316-1.134-1.316a.927.927,0,0,0-1.055,1.042H35.851a2.655,2.655,0,0,1,1.173-2.239,4.931,4.931,0,0,1,2.993-.86,4.323,4.323,0,0,1,2.874.888,3.086,3.086,0,0,1,1.081,2.435v4.21a4.311,4.311,0,0,0,.4,2V0ZM39.56-1.934a1.652,1.652,0,0,0,.918-.237A1.487,1.487,0,0,0,41-2.707V-4.228H40.14q-1.547,0-1.547,1.389a.848.848,0,0,0,.272.655A.986.986,0,0,0,39.56-1.934Z" transform="translate(-6025 -5894)" fill="#12263f"/>
    <g id="Grupo_130743" data-name="Grupo 130743" transform="translate(2273 -232.556)">
      <line id="Línea_243" data-name="Línea 243" x2="70.557" y2="121.598" transform="translate(-8318.277 -5889.547)" fill="none" stroke="#707070" stroke-width="2"/>
      <line id="Línea_244" data-name="Línea 244" x2="156.126" transform="translate(-8358.81 -5829.499)" fill="none" stroke="#707070" stroke-width="2"/>
      <line id="Línea_245" data-name="Línea 245" x1="100.581" y2="58.547" transform="translate(-8352.806 -5895.552)" fill="none" stroke="#707070" stroke-width="2"/>
      <line id="Línea_246" data-name="Línea 246" x2="103.584" y2="60.049" transform="translate(-8355.807 -5824.995)" fill="none" stroke="#707070" stroke-width="2"/>
      <line id="Línea_247" data-name="Línea 247" y1="55.545" x2="28.523" transform="translate(-8231.207 -5820.491)" fill="none" stroke="#707070" stroke-width="2"/>
      <line id="Línea_248" data-name="Línea 248" y1="58.547" x2="102.083" transform="translate(-8313.772 -5826.496)" fill="none" stroke="#707070" stroke-width="2"/>
      <line id="Línea_249" data-name="Línea 249" x2="34.528" y2="55.545" transform="translate(-8360.311 -5817.489)" fill="none" stroke="#707070" stroke-width="2"/>
      <line id="Línea_250" data-name="Línea 250" y1="46.538" x2="28.523" transform="translate(-8357.309 -5888.045)" fill="none" stroke="#707070" stroke-width="2"/>
      <circle id="Elipse_4087" data-name="Elipse 4087" cx="24.5" cy="24.5" r="24.5" transform="translate(-8264 -5922.444)" fill="#039be5"/>
      <circle id="Elipse_4088" data-name="Elipse 4088" cx="24.5" cy="24.5" r="24.5" transform="translate(-8348 -5922.444)" fill="#039be5"/>
      <circle id="Elipse_4089" data-name="Elipse 4089" cx="24.5" cy="24.5" r="24.5" transform="translate(-8264 -5782.444)" fill="#039be5"/>
      <circle id="Elipse_4090" data-name="Elipse 4090" cx="24.5" cy="24.5" r="24.5" transform="translate(-8348 -5782.444)" fill="#039be5"/>
      <ellipse id="Elipse_4091" data-name="Elipse 4091" cx="24.5" cy="24" rx="24.5" ry="24" transform="translate(-8391 -5854.444)" fill="#039be5"/>
      <ellipse id="Elipse_4092" data-name="Elipse 4092" cx="24.5" cy="24" rx="24.5" ry="24" transform="translate(-8222 -5854.444)" fill="#039be5"/>
      <line id="Línea_251" data-name="Línea 251" x1="36.029" transform="translate(-8298.762 -5900.055)" fill="none" stroke="#707070" stroke-width="2"/>
    </g>
  </g>
</svg>
