<svg xmlns="http://www.w3.org/2000/svg" xmlns:xlink="http://www.w3.org/1999/xlink" width="466" height="332" viewBox="0 0 466 332">
  <defs>
    <clipPath id="clip-path">
      <rect id="Rectángulo_36798" data-name="Rectángulo 36798" width="85" height="70" transform="translate(0 0)" fill="none"/>
    </clipPath>
  </defs>
  <g id="slider9" transform="translate(-869 -7299.871)">
    <g id="Grupo_141726" data-name="Grupo 141726" transform="translate(1071 7299.871)">
      <g id="Grupo_130744" data-name="Grupo 130744" transform="translate(0 0)" clip-path="url(#clip-path)">
        <path id="Trazado_146203" data-name="Trazado 146203" d="M55.853,0H29.061A2.062,2.062,0,0,0,27,2.061V18.548H57.913V2.061A2.062,2.062,0,0,0,55.853,0" transform="translate(27.762 0.09)" fill="#173042"/>
        <path id="Trazado_146204" data-name="Trazado 146204" d="M55.644,24.731V68.1a2.017,2.017,0,0,0,2.061,1.97H84.5a2.017,2.017,0,0,0,2.061-1.97V24.731ZM71.1,59.766a4.122,4.122,0,1,1,4.122-4.122A4.121,4.121,0,0,1,71.1,59.766M50.492,8.244V2.061A7.108,7.108,0,0,1,50.828,0H4.122A4.121,4.121,0,0,0,0,4.122v47.4a4.121,4.121,0,0,0,4.122,4.122H26.448l-1.373,8.244H17.518a3.091,3.091,0,0,0,0,6.183h33.29a6.949,6.949,0,0,1-.315-1.97V63.888H45l-1.373-8.244h6.869V47.4H8.244V8.244Z" transform="translate(-0.883 0.09)" fill="#173042"/>
      </g>
    </g>
    <g id="Grupo_141728" data-name="Grupo 141728" transform="translate(869 7437.872)">
      <g id="Grupo_130744-2" data-name="Grupo 130744" transform="translate(0 0)" clip-path="url(#clip-path)">
        <path id="Trazado_146203-2" data-name="Trazado 146203" d="M55.853,0H29.061A2.062,2.062,0,0,0,27,2.061V18.548H57.913V2.061A2.062,2.062,0,0,0,55.853,0" transform="translate(27.762 0.09)" fill="#173042"/>
        <path id="Trazado_146204-2" data-name="Trazado 146204" d="M55.644,24.731V68.1a2.017,2.017,0,0,0,2.061,1.97H84.5a2.017,2.017,0,0,0,2.061-1.97V24.731ZM71.1,59.766a4.122,4.122,0,1,1,4.122-4.122A4.121,4.121,0,0,1,71.1,59.766M50.492,8.244V2.061A7.108,7.108,0,0,1,50.828,0H4.122A4.121,4.121,0,0,0,0,4.122v47.4a4.121,4.121,0,0,0,4.122,4.122H26.448l-1.373,8.244H17.518a3.091,3.091,0,0,0,0,6.183h33.29a6.949,6.949,0,0,1-.315-1.97V63.888H45l-1.373-8.244h6.869V47.4H8.244V8.244Z" transform="translate(-0.883 0.09)" fill="#173042"/>
      </g>
    </g>
    <g id="Grupo_141730" data-name="Grupo 141730" transform="translate(966 7561.871)">
      <g id="Grupo_130744-3" data-name="Grupo 130744" transform="translate(0 0)" clip-path="url(#clip-path)">
        <path id="Trazado_146203-3" data-name="Trazado 146203" d="M55.853,0H29.061A2.062,2.062,0,0,0,27,2.061V18.548H57.913V2.061A2.062,2.062,0,0,0,55.853,0" transform="translate(27.762 0.09)" fill="#173042"/>
        <path id="Trazado_146204-3" data-name="Trazado 146204" d="M55.644,24.731V68.1a2.017,2.017,0,0,0,2.061,1.97H84.5a2.017,2.017,0,0,0,2.061-1.97V24.731ZM71.1,59.766a4.122,4.122,0,1,1,4.122-4.122A4.121,4.121,0,0,1,71.1,59.766M50.492,8.244V2.061A7.108,7.108,0,0,1,50.828,0H4.122A4.121,4.121,0,0,0,0,4.122v47.4a4.121,4.121,0,0,0,4.122,4.122H26.448l-1.373,8.244H17.518a3.091,3.091,0,0,0,0,6.183h33.29a6.949,6.949,0,0,1-.315-1.97V63.888H45l-1.373-8.244h6.869V47.4H8.244V8.244Z" transform="translate(-0.883 0.09)" fill="#173042"/>
      </g>
    </g>
    <g id="Grupo_141732" data-name="Grupo 141732" transform="translate(1156 7561.871)">
      <g id="Grupo_130744-4" data-name="Grupo 130744" transform="translate(0 0)" clip-path="url(#clip-path)">
        <path id="Trazado_146203-4" data-name="Trazado 146203" d="M55.853,0H29.061A2.062,2.062,0,0,0,27,2.061V18.548H57.913V2.061A2.062,2.062,0,0,0,55.853,0" transform="translate(27.762 0.09)" fill="#173042"/>
        <path id="Trazado_146204-4" data-name="Trazado 146204" d="M55.644,24.731V68.1a2.017,2.017,0,0,0,2.061,1.97H84.5a2.017,2.017,0,0,0,2.061-1.97V24.731ZM71.1,59.766a4.122,4.122,0,1,1,4.122-4.122A4.121,4.121,0,0,1,71.1,59.766M50.492,8.244V2.061A7.108,7.108,0,0,1,50.828,0H4.122A4.121,4.121,0,0,0,0,4.122v47.4a4.121,4.121,0,0,0,4.122,4.122H26.448l-1.373,8.244H17.518a3.091,3.091,0,0,0,0,6.183h33.29a6.949,6.949,0,0,1-.315-1.97V63.888H45l-1.373-8.244h6.869V47.4H8.244V8.244Z" transform="translate(-0.883 0.09)" fill="#173042"/>
      </g>
    </g>
    <rect id="Rectángulo_37326" data-name="Rectángulo 37326" width="44" height="41" transform="translate(1077 7306.871)" fill="#fff"/>
    <rect id="Rectángulo_37328" data-name="Rectángulo 37328" width="44" height="41" transform="translate(875 7444.872)" fill="#fff"/>
    <rect id="Rectángulo_37330" data-name="Rectángulo 37330" width="44" height="41" transform="translate(972 7568.871)" fill="#fff"/>
    <rect id="Rectángulo_37332" data-name="Rectángulo 37332" width="44" height="41" transform="translate(1162 7568.871)" fill="#fff"/>
    <line id="Línea_261" data-name="Línea 261" y2="168" transform="translate(1113.5 7370.371)" fill="none" stroke="#1c6bf7" stroke-linecap="round" stroke-width="4"/>
    <path id="Trazado_183810" data-name="Trazado 183810" d="M-6869-3963v-23.651h210V-3963" transform="translate(7869 11524.871)" fill="none" stroke="#1c6bf7" stroke-linecap="round" stroke-width="4"/>
    <path id="Trazado_183811" data-name="Trazado 183811" d="M-6869-3963v-23.651h377.5V-3963" transform="translate(7784 11400.871)" fill="none" stroke="#1c6bf7" stroke-linecap="round" stroke-width="4"/>
    <g id="Grupo_141744" data-name="Grupo 141744" transform="translate(1071 7437.872)">
      <g id="Grupo_130744-5" data-name="Grupo 130744" transform="translate(0 0)" clip-path="url(#clip-path)">
        <path id="Trazado_146203-5" data-name="Trazado 146203" d="M55.853,0H29.061A2.062,2.062,0,0,0,27,2.061V18.548H57.913V2.061A2.062,2.062,0,0,0,55.853,0" transform="translate(27.762 0.09)" fill="#173042"/>
        <path id="Trazado_146204-5" data-name="Trazado 146204" d="M55.644,24.731V68.1a2.017,2.017,0,0,0,2.061,1.97H84.5a2.017,2.017,0,0,0,2.061-1.97V24.731ZM71.1,59.766a4.122,4.122,0,1,1,4.122-4.122A4.121,4.121,0,0,1,71.1,59.766M50.492,8.244V2.061A7.108,7.108,0,0,1,50.828,0H4.122A4.121,4.121,0,0,0,0,4.122v47.4a4.121,4.121,0,0,0,4.122,4.122H26.448l-1.373,8.244H17.518a3.091,3.091,0,0,0,0,6.183h33.29a6.949,6.949,0,0,1-.315-1.97V63.888H45l-1.373-8.244h6.869V47.4H8.244V8.244Z" transform="translate(-0.883 0.09)" fill="#173042"/>
      </g>
    </g>
    <g id="Grupo_141746" data-name="Grupo 141746" transform="translate(1250 7437.872)">
      <g id="Grupo_130744-6" data-name="Grupo 130744" transform="translate(0 0)" clip-path="url(#clip-path)">
        <path id="Trazado_146203-6" data-name="Trazado 146203" d="M55.853,0H29.061A2.062,2.062,0,0,0,27,2.061V18.548H57.913V2.061A2.062,2.062,0,0,0,55.853,0" transform="translate(27.762 0.09)" fill="#173042"/>
        <path id="Trazado_146204-6" data-name="Trazado 146204" d="M55.644,24.731V68.1a2.017,2.017,0,0,0,2.061,1.97H84.5a2.017,2.017,0,0,0,2.061-1.97V24.731ZM71.1,59.766a4.122,4.122,0,1,1,4.122-4.122A4.121,4.121,0,0,1,71.1,59.766M50.492,8.244V2.061A7.108,7.108,0,0,1,50.828,0H4.122A4.121,4.121,0,0,0,0,4.122v47.4a4.121,4.121,0,0,0,4.122,4.122H26.448l-1.373,8.244H17.518a3.091,3.091,0,0,0,0,6.183h33.29a6.949,6.949,0,0,1-.315-1.97V63.888H45l-1.373-8.244h6.869V47.4H8.244V8.244Z" transform="translate(-0.883 0.09)" fill="#173042"/>
      </g>
    </g>
    <rect id="Rectángulo_37336" data-name="Rectángulo 37336" width="44" height="41" transform="translate(1077 7444.872)" fill="#fff"/>
    <rect id="Rectángulo_37338" data-name="Rectángulo 37338" width="44" height="41" transform="translate(1256 7444.872)" fill="#fff"/>
  </g>
</svg>
