<svg xmlns="http://www.w3.org/2000/svg" xmlns:xlink="http://www.w3.org/1999/xlink" width="418" height="374" viewBox="0 0 418 374">
  <defs>
    <filter id="Rectángulo_36796" x="0" y="0" width="418" height="374" filterUnits="userSpaceOnUse">
      <feOffset dy="3" input="SourceAlpha"/>
      <feGaussianBlur stdDeviation="3" result="blur"/>
      <feFlood flood-opacity="0.161"/>
      <feComposite operator="in" in2="blur"/>
      <feComposite in="SourceGraphic"/>
    </filter>
  </defs>
  <g id="slider4" transform="translate(5312 6604)">
    <g transform="matrix(1, 0, 0, 1, -5312, -6604)" filter="url(#Rectángulo_36796)">
      <rect id="Rectángulo_36796-2" data-name="Rectángulo 36796" width="400" height="356" rx="33" transform="translate(9 6)" fill="#f6f6f6"/>
    </g>
    <path id="Trazado_183918" data-name="Trazado 183918" d="M8.235-2.391H4.008L3.27,0h-3.3L4.667-12.8h2.9L12.3,0H8.982ZM4.746-4.772H7.5L6.117-9.211ZM6.521-16.225H9.65l-2.443,2.76-2.417,0Zm12.322,9.4-.976-.07a1.752,1.752,0,0,0-1.793.879V0H13.113V-9.51h2.777l.1,1.222a2.294,2.294,0,0,1,2.083-1.4,2.888,2.888,0,0,1,.826.105Zm9.9,2.153a5.8,5.8,0,0,1-.967,3.595A3.238,3.238,0,0,1,25.049.176,2.81,2.81,0,0,1,22.711-.976L22.588,0H19.934V-13.5H22.9v4.755a2.711,2.711,0,0,1,2.136-.94,3.239,3.239,0,0,1,2.742,1.274,5.826,5.826,0,0,1,.967,3.586ZM25.77-4.865A3.866,3.866,0,0,0,25.4-6.817,1.229,1.229,0,0,0,24.284-7.4a1.418,1.418,0,0,0-1.389.763v3.773a1.426,1.426,0,0,0,1.406.755,1.258,1.258,0,0,0,1.327-1.018A7.309,7.309,0,0,0,25.77-4.865Zm3.9.022a5.613,5.613,0,0,1,.554-2.536,3.96,3.96,0,0,1,1.591-1.709,4.791,4.791,0,0,1,2.435-.6,4.373,4.373,0,0,1,3.366,1.323,5.076,5.076,0,0,1,1.23,3.6v.105a4.925,4.925,0,0,1-1.235,3.529A4.384,4.384,0,0,1,34.269.176a4.434,4.434,0,0,1-3.261-1.217,4.761,4.761,0,0,1-1.327-3.3Zm2.962.185a3.538,3.538,0,0,0,.413,1.934,1.376,1.376,0,0,0,1.222.615q1.582,0,1.617-2.435v-.3q0-2.558-1.635-2.558-1.485,0-1.608,2.206ZM43.277,0H40.307V-13.5h2.971Z" transform="translate(-5134 -6290)" fill="#12263f"/>
    <g id="Grupo_130742" data-name="Grupo 130742" transform="translate(583 -466)">
      <line id="Línea_239" data-name="Línea 239" y1="118.629" x2="69.075" transform="translate(-5763.397 -6056.006)" fill="none" stroke="#707070" stroke-width="2"/>
      <line id="Línea_240" data-name="Línea 240" x2="79.586" y2="133.645" transform="translate(-5688.315 -6054.504)" fill="none" stroke="#707070" stroke-width="2"/>
      <line id="Línea_241" data-name="Línea 241" x2="7.508" y2="42.046" transform="translate(-5728.86 -5971.914)" fill="none" stroke="#707070" stroke-width="2"/>
      <line id="Línea_242" data-name="Línea 242" x2="40.544" y2="46.551" transform="translate(-5721.352 -5976.419)" fill="none" stroke="#707070" stroke-width="2"/>
      <circle id="Elipse_4080" data-name="Elipse 4080" cx="24" cy="24" r="24" transform="translate(-5714 -6084)" fill="#039be5"/>
      <ellipse id="Elipse_4081" data-name="Elipse 4081" cx="24" cy="23.5" rx="24" ry="23.5" transform="translate(-5759 -6013)" fill="#039be5"/>
      <circle id="Elipse_4082" data-name="Elipse 4082" cx="24" cy="24" r="24" transform="translate(-5799 -5941)" fill="#039be5"/>
      <ellipse id="Elipse_4083" data-name="Elipse 4083" cx="23.5" cy="24" rx="23.5" ry="24" transform="translate(-5746 -5941)" fill="#039be5"/>
      <ellipse id="Elipse_4084" data-name="Elipse 4084" cx="23.5" cy="24" rx="23.5" ry="24" transform="translate(-5695 -5941)" fill="#039be5"/>
      <ellipse id="Elipse_4085" data-name="Elipse 4085" cx="24.5" cy="24" rx="24.5" ry="24" transform="translate(-5626 -5941)" fill="#039be5"/>
      <ellipse id="Elipse_4086" data-name="Elipse 4086" cx="24" cy="23.5" rx="24" ry="23.5" transform="translate(-5674 -6013)" fill="#039be5"/>
    </g>
  </g>
</svg>
