<svg xmlns="http://www.w3.org/2000/svg" xmlns:xlink="http://www.w3.org/1999/xlink" width="557" height="191" viewBox="0 0 557 191">
  <defs>
    <clipPath id="clip-path">
      <rect id="Rectángulo_36833" data-name="Rectángulo 36833" width="53" height="37" transform="translate(-0.416)" fill="#12263f"/>
    </clipPath>
    <clipPath id="clip-path-2">
      <rect id="Rectángulo_36833-2" data-name="Rectángulo 36833" width="53" height="37" transform="translate(-0.436 -0.121)" fill="#12263f"/>
    </clipPath>
    <clipPath id="clip-path-3">
      <rect id="Rectángulo_36833-3" data-name="Rectángulo 36833" width="52" height="37" transform="translate(0.432 -0.121)" fill="#12263f"/>
    </clipPath>
    <clipPath id="clip-path-4">
      <rect id="Rectángulo_36833-4" data-name="Rectángulo 36833" width="53" height="36" transform="translate(-0.416 0.454)" fill="#12263f"/>
    </clipPath>
    <clipPath id="clip-path-5">
      <rect id="Rectángulo_36833-5" data-name="Rectángulo 36833" width="52" height="37" transform="translate(0.02)" fill="#12263f"/>
    </clipPath>
    <clipPath id="clip-path-6">
      <rect id="Rectángulo_36833-6" data-name="Rectángulo 36833" width="52" height="37" transform="translate(0 -0.121)" fill="#12263f"/>
    </clipPath>
    <clipPath id="clip-path-7">
      <rect id="Rectángulo_36833-7" data-name="Rectángulo 36833" width="53" height="37" transform="translate(-0.132 -0.121)" fill="#12263f"/>
    </clipPath>
    <clipPath id="clip-path-8">
      <rect id="Rectángulo_36833-8" data-name="Rectángulo 36833" width="52" height="36" transform="translate(0.02 0.454)" fill="#12263f"/>
    </clipPath>
    <clipPath id="clip-path-9">
      <rect id="Rectángulo_36801" data-name="Rectángulo 36801" width="65" height="24" transform="translate(0.14 0.424)" fill="none"/>
    </clipPath>
  </defs>
  <g id="slider11" transform="translate(-810 -8520.871)">
    <g id="Grupo_141748" data-name="Grupo 141748" transform="translate(1300.416 8520.871)">
      <g id="Grupo_130773" data-name="Grupo 130773" clip-path="url(#clip-path)">
        <path id="Trazado_146229" data-name="Trazado 146229" d="M50.835,29.246h.022L48.3,28.368V2.328A2.327,2.327,0,0,0,45.973,0H6.4A2.327,2.327,0,0,0,4.074,2.328v26.04l-2.561.878h.026A2.32,2.32,0,0,0,0,31.427v3.489a2.327,2.327,0,0,0,2.328,2.328H50.046a2.327,2.327,0,0,0,2.328-2.328V31.427a2.32,2.32,0,0,0-1.539-2.181M29.1,33.681H23.277a1.746,1.746,0,0,1,0-3.492H29.1a1.746,1.746,0,0,1,0,3.492m14.548-6.912H8.729V4.655H43.645Z" fill="#12263f"/>
        <path id="Trazado_146230" data-name="Trazado 146230" d="M15.655,15.642H12.164A1.164,1.164,0,0,0,11,16.806V20.3a1.164,1.164,0,0,0,1.164,1.164h3.492A1.164,1.164,0,0,0,16.819,20.3V16.806a1.164,1.164,0,0,0-1.164-1.164M23.8,7.495H20.311a1.164,1.164,0,0,0-1.164,1.164V12.15a1.164,1.164,0,0,0,1.164,1.164H23.8a1.164,1.164,0,0,0,1.164-1.164V8.659A1.164,1.164,0,0,0,23.8,7.495m-8.147,0H12.164A1.164,1.164,0,0,0,11,8.659V12.15a1.164,1.164,0,0,0,1.164,1.164h3.492a1.164,1.164,0,0,0,1.164-1.164V8.659a1.164,1.164,0,0,0-1.164-1.164" transform="translate(1.803 1.228)" fill="#12263f"/>
      </g>
    </g>
    <g id="Grupo_141749" data-name="Grupo 141749" transform="translate(1157.436 8520.992)">
      <g id="Grupo_130773-2" data-name="Grupo 130773" clip-path="url(#clip-path-2)">
        <path id="Trazado_146229-2" data-name="Trazado 146229" d="M50.835,29.246h.022L48.3,28.368V2.328A2.327,2.327,0,0,0,45.973,0H6.4A2.327,2.327,0,0,0,4.074,2.328v26.04l-2.561.878h.026A2.32,2.32,0,0,0,0,31.427v3.489a2.327,2.327,0,0,0,2.328,2.328H50.046a2.327,2.327,0,0,0,2.328-2.328V31.427a2.32,2.32,0,0,0-1.539-2.181M29.1,33.681H23.277a1.746,1.746,0,0,1,0-3.492H29.1a1.746,1.746,0,0,1,0,3.492m14.548-6.912H8.729V4.655H43.645Z" fill="#12263f"/>
        <path id="Trazado_146230-2" data-name="Trazado 146230" d="M15.655,15.642H12.164A1.164,1.164,0,0,0,11,16.806V20.3a1.164,1.164,0,0,0,1.164,1.164h3.492A1.164,1.164,0,0,0,16.819,20.3V16.806a1.164,1.164,0,0,0-1.164-1.164M23.8,7.495H20.311a1.164,1.164,0,0,0-1.164,1.164V12.15a1.164,1.164,0,0,0,1.164,1.164H23.8a1.164,1.164,0,0,0,1.164-1.164V8.659A1.164,1.164,0,0,0,23.8,7.495m-8.147,0H12.164A1.164,1.164,0,0,0,11,8.659V12.15a1.164,1.164,0,0,0,1.164,1.164h3.492a1.164,1.164,0,0,0,1.164-1.164V8.659a1.164,1.164,0,0,0-1.164-1.164" transform="translate(1.803 1.228)" fill="#12263f"/>
      </g>
    </g>
    <g id="Grupo_141750" data-name="Grupo 141750" transform="translate(1314.568 8674.992)">
      <g id="Grupo_130773-3" data-name="Grupo 130773" clip-path="url(#clip-path-3)">
        <path id="Trazado_146229-3" data-name="Trazado 146229" d="M50.835,29.246h.022L48.3,28.368V2.328A2.327,2.327,0,0,0,45.973,0H6.4A2.327,2.327,0,0,0,4.074,2.328v26.04l-2.561.878h.026A2.32,2.32,0,0,0,0,31.427v3.489a2.327,2.327,0,0,0,2.328,2.328H50.046a2.327,2.327,0,0,0,2.328-2.328V31.427a2.32,2.32,0,0,0-1.539-2.181M29.1,33.681H23.277a1.746,1.746,0,0,1,0-3.492H29.1a1.746,1.746,0,0,1,0,3.492m14.548-6.912H8.729V4.655H43.645Z" fill="#12263f"/>
        <path id="Trazado_146230-3" data-name="Trazado 146230" d="M15.655,15.642H12.164A1.164,1.164,0,0,0,11,16.806V20.3a1.164,1.164,0,0,0,1.164,1.164h3.492A1.164,1.164,0,0,0,16.819,20.3V16.806a1.164,1.164,0,0,0-1.164-1.164M23.8,7.495H20.311a1.164,1.164,0,0,0-1.164,1.164V12.15a1.164,1.164,0,0,0,1.164,1.164H23.8a1.164,1.164,0,0,0,1.164-1.164V8.659A1.164,1.164,0,0,0,23.8,7.495m-8.147,0H12.164A1.164,1.164,0,0,0,11,8.659V12.15a1.164,1.164,0,0,0,1.164,1.164h3.492a1.164,1.164,0,0,0,1.164-1.164V8.659a1.164,1.164,0,0,0-1.164-1.164" transform="translate(1.803 1.228)" fill="#12263f"/>
      </g>
    </g>
    <g id="Grupo_141751" data-name="Grupo 141751" transform="translate(1157.416 8675.416)">
      <g id="Grupo_130773-4" data-name="Grupo 130773" clip-path="url(#clip-path-4)">
        <path id="Trazado_146229-4" data-name="Trazado 146229" d="M50.835,29.246h.022L48.3,28.368V2.328A2.327,2.327,0,0,0,45.973,0H6.4A2.327,2.327,0,0,0,4.074,2.328v26.04l-2.561.878h.026A2.32,2.32,0,0,0,0,31.427v3.489a2.327,2.327,0,0,0,2.328,2.328H50.046a2.327,2.327,0,0,0,2.328-2.328V31.427a2.32,2.32,0,0,0-1.539-2.181M29.1,33.681H23.277a1.746,1.746,0,0,1,0-3.492H29.1a1.746,1.746,0,0,1,0,3.492m14.548-6.912H8.729V4.655H43.645Z" fill="#12263f"/>
        <path id="Trazado_146230-4" data-name="Trazado 146230" d="M15.655,15.642H12.164A1.164,1.164,0,0,0,11,16.806V20.3a1.164,1.164,0,0,0,1.164,1.164h3.492A1.164,1.164,0,0,0,16.819,20.3V16.806a1.164,1.164,0,0,0-1.164-1.164M23.8,7.495H20.311a1.164,1.164,0,0,0-1.164,1.164V12.15a1.164,1.164,0,0,0,1.164,1.164H23.8a1.164,1.164,0,0,0,1.164-1.164V8.659A1.164,1.164,0,0,0,23.8,7.495m-8.147,0H12.164A1.164,1.164,0,0,0,11,8.659V12.15a1.164,1.164,0,0,0,1.164,1.164h3.492a1.164,1.164,0,0,0,1.164-1.164V8.659a1.164,1.164,0,0,0-1.164-1.164" transform="translate(1.803 1.228)" fill="#12263f"/>
      </g>
    </g>
    <g id="Elipse_4104" data-name="Elipse 4104" transform="translate(844 8544.871)" fill="none" stroke="#1c6bf7" stroke-width="3">
      <circle cx="71" cy="71" r="71" stroke="none"/>
      <circle cx="71" cy="71" r="69.5" fill="none"/>
    </g>
    <g id="Grupo_141752" data-name="Grupo 141752" transform="translate(882.98 8520.871)">
      <g id="Grupo_130773-5" data-name="Grupo 130773" clip-path="url(#clip-path-5)">
        <path id="Trazado_146229-5" data-name="Trazado 146229" d="M50.835,29.246h.022L48.3,28.368V2.328A2.327,2.327,0,0,0,45.973,0H6.4A2.327,2.327,0,0,0,4.074,2.328v26.04l-2.561.878h.026A2.32,2.32,0,0,0,0,31.427v3.489a2.327,2.327,0,0,0,2.328,2.328H50.046a2.327,2.327,0,0,0,2.328-2.328V31.427a2.32,2.32,0,0,0-1.539-2.181M29.1,33.681H23.277a1.746,1.746,0,0,1,0-3.492H29.1a1.746,1.746,0,0,1,0,3.492m14.548-6.912H8.729V4.655H43.645Z" fill="#12263f"/>
        <path id="Trazado_146230-5" data-name="Trazado 146230" d="M15.655,15.642H12.164A1.164,1.164,0,0,0,11,16.806V20.3a1.164,1.164,0,0,0,1.164,1.164h3.492A1.164,1.164,0,0,0,16.819,20.3V16.806a1.164,1.164,0,0,0-1.164-1.164M23.8,7.495H20.311a1.164,1.164,0,0,0-1.164,1.164V12.15a1.164,1.164,0,0,0,1.164,1.164H23.8a1.164,1.164,0,0,0,1.164-1.164V8.659A1.164,1.164,0,0,0,23.8,7.495m-8.147,0H12.164A1.164,1.164,0,0,0,11,8.659V12.15a1.164,1.164,0,0,0,1.164,1.164h3.492a1.164,1.164,0,0,0,1.164-1.164V8.659a1.164,1.164,0,0,0-1.164-1.164" transform="translate(1.803 1.228)" fill="#12263f"/>
      </g>
    </g>
    <g id="Grupo_141753" data-name="Grupo 141753" transform="translate(810 8592.992)">
      <g id="Grupo_130773-6" data-name="Grupo 130773" clip-path="url(#clip-path-6)">
        <path id="Trazado_146229-6" data-name="Trazado 146229" d="M50.835,29.246h.022L48.3,28.368V2.328A2.327,2.327,0,0,0,45.973,0H6.4A2.327,2.327,0,0,0,4.074,2.328v26.04l-2.561.878h.026A2.32,2.32,0,0,0,0,31.427v3.489a2.327,2.327,0,0,0,2.328,2.328H50.046a2.327,2.327,0,0,0,2.328-2.328V31.427a2.32,2.32,0,0,0-1.539-2.181M29.1,33.681H23.277a1.746,1.746,0,0,1,0-3.492H29.1a1.746,1.746,0,0,1,0,3.492m14.548-6.912H8.729V4.655H43.645Z" fill="#12263f"/>
        <path id="Trazado_146230-6" data-name="Trazado 146230" d="M15.655,15.642H12.164A1.164,1.164,0,0,0,11,16.806V20.3a1.164,1.164,0,0,0,1.164,1.164h3.492A1.164,1.164,0,0,0,16.819,20.3V16.806a1.164,1.164,0,0,0-1.164-1.164M23.8,7.495H20.311a1.164,1.164,0,0,0-1.164,1.164V12.15a1.164,1.164,0,0,0,1.164,1.164H23.8a1.164,1.164,0,0,0,1.164-1.164V8.659A1.164,1.164,0,0,0,23.8,7.495m-8.147,0H12.164A1.164,1.164,0,0,0,11,8.659V12.15a1.164,1.164,0,0,0,1.164,1.164h3.492a1.164,1.164,0,0,0,1.164-1.164V8.659a1.164,1.164,0,0,0-1.164-1.164" transform="translate(1.803 1.228)" fill="#12263f"/>
      </g>
    </g>
    <g id="Grupo_141754" data-name="Grupo 141754" transform="translate(967.132 8592.992)">
      <g id="Grupo_130773-7" data-name="Grupo 130773" clip-path="url(#clip-path-7)">
        <path id="Trazado_146229-7" data-name="Trazado 146229" d="M50.835,29.246h.022L48.3,28.368V2.328A2.327,2.327,0,0,0,45.973,0H6.4A2.327,2.327,0,0,0,4.074,2.328v26.04l-2.561.878h.026A2.32,2.32,0,0,0,0,31.427v3.489a2.327,2.327,0,0,0,2.328,2.328H50.046a2.327,2.327,0,0,0,2.328-2.328V31.427a2.32,2.32,0,0,0-1.539-2.181M29.1,33.681H23.277a1.746,1.746,0,0,1,0-3.492H29.1a1.746,1.746,0,0,1,0,3.492m14.548-6.912H8.729V4.655H43.645Z" fill="#12263f"/>
        <path id="Trazado_146230-7" data-name="Trazado 146230" d="M15.655,15.642H12.164A1.164,1.164,0,0,0,11,16.806V20.3a1.164,1.164,0,0,0,1.164,1.164h3.492A1.164,1.164,0,0,0,16.819,20.3V16.806a1.164,1.164,0,0,0-1.164-1.164M23.8,7.495H20.311a1.164,1.164,0,0,0-1.164,1.164V12.15a1.164,1.164,0,0,0,1.164,1.164H23.8a1.164,1.164,0,0,0,1.164-1.164V8.659A1.164,1.164,0,0,0,23.8,7.495m-8.147,0H12.164A1.164,1.164,0,0,0,11,8.659V12.15a1.164,1.164,0,0,0,1.164,1.164h3.492a1.164,1.164,0,0,0,1.164-1.164V8.659a1.164,1.164,0,0,0-1.164-1.164" transform="translate(1.803 1.228)" fill="#12263f"/>
      </g>
    </g>
    <g id="Grupo_141755" data-name="Grupo 141755" transform="translate(882.98 8675.416)">
      <g id="Grupo_130773-8" data-name="Grupo 130773" clip-path="url(#clip-path-8)">
        <path id="Trazado_146229-8" data-name="Trazado 146229" d="M50.835,29.246h.022L48.3,28.368V2.328A2.327,2.327,0,0,0,45.973,0H6.4A2.327,2.327,0,0,0,4.074,2.328v26.04l-2.561.878h.026A2.32,2.32,0,0,0,0,31.427v3.489a2.327,2.327,0,0,0,2.328,2.328H50.046a2.327,2.327,0,0,0,2.328-2.328V31.427a2.32,2.32,0,0,0-1.539-2.181M29.1,33.681H23.277a1.746,1.746,0,0,1,0-3.492H29.1a1.746,1.746,0,0,1,0,3.492m14.548-6.912H8.729V4.655H43.645Z" fill="#12263f"/>
        <path id="Trazado_146230-8" data-name="Trazado 146230" d="M15.655,15.642H12.164A1.164,1.164,0,0,0,11,16.806V20.3a1.164,1.164,0,0,0,1.164,1.164h3.492A1.164,1.164,0,0,0,16.819,20.3V16.806a1.164,1.164,0,0,0-1.164-1.164M23.8,7.495H20.311a1.164,1.164,0,0,0-1.164,1.164V12.15a1.164,1.164,0,0,0,1.164,1.164H23.8a1.164,1.164,0,0,0,1.164-1.164V8.659A1.164,1.164,0,0,0,23.8,7.495m-8.147,0H12.164A1.164,1.164,0,0,0,11,8.659V12.15a1.164,1.164,0,0,0,1.164,1.164h3.492a1.164,1.164,0,0,0,1.164-1.164V8.659a1.164,1.164,0,0,0-1.164-1.164" transform="translate(1.803 1.228)" fill="#12263f"/>
      </g>
    </g>
    <line id="Línea_270" data-name="Línea 270" y1="118" x2="90" transform="translate(1210 8557.871)" fill="none" stroke="#1c6bf7" stroke-linecap="round" stroke-width="2"/>
    <line id="Línea_271" data-name="Línea 271" x2="105" y2="118" transform="translate(1210 8557.871)" fill="none" stroke="#1c6bf7" stroke-linecap="round" stroke-width="2"/>
    <line id="Línea_272" data-name="Línea 272" x1="217" transform="translate(1013 8608.871)" fill="none" stroke="#1c6bf7" stroke-linecap="round" stroke-width="2"/>
    <rect id="Rectángulo_37341" data-name="Rectángulo 37341" width="62" height="24" rx="7" transform="translate(1067 8596.871)" fill="#fff"/>
    <g id="Grupo_141756" data-name="Grupo 141756" transform="translate(1065.86 8596.447)">
      <g id="Grupo_130759" data-name="Grupo 130759" transform="translate(0 0)" clip-path="url(#clip-path-9)">
        <path id="Trazado_146213" data-name="Trazado 146213" d="M34.607,6a3.107,3.107,0,1,0,3.107,3.107A3.106,3.106,0,0,0,34.607,6" transform="translate(17.851 3.501)" fill="#173042"/>
        <path id="Trazado_146214" data-name="Trazado 146214" d="M59.027,0H6.213A6.214,6.214,0,0,0,0,6.213V18.64a6.214,6.214,0,0,0,6.213,6.213H59.027A6.214,6.214,0,0,0,65.24,18.64V6.213A6.214,6.214,0,0,0,59.027,0M10.873,15.533a3.107,3.107,0,1,1,3.107-3.107,3.107,3.107,0,0,1-3.107,3.107m10.873,0a3.107,3.107,0,1,1,3.107-3.107,3.107,3.107,0,0,1-3.107,3.107m30.29,3.107a6.213,6.213,0,1,1,6.213-6.213,6.22,6.22,0,0,1-6.213,6.213" transform="translate(0.421 0.181)" fill="#173042"/>
      </g>
    </g>
    <g id="Grupo_141757" data-name="Grupo 141757" transform="translate(1229.568 8592.992)">
      <g id="Grupo_130773-9" data-name="Grupo 130773" clip-path="url(#clip-path-3)">
        <path id="Trazado_146229-9" data-name="Trazado 146229" d="M50.835,29.246h.022L48.3,28.368V2.328A2.327,2.327,0,0,0,45.973,0H6.4A2.327,2.327,0,0,0,4.074,2.328v26.04l-2.561.878h.026A2.32,2.32,0,0,0,0,31.427v3.489a2.327,2.327,0,0,0,2.328,2.328H50.046a2.327,2.327,0,0,0,2.328-2.328V31.427a2.32,2.32,0,0,0-1.539-2.181M29.1,33.681H23.277a1.746,1.746,0,0,1,0-3.492H29.1a1.746,1.746,0,0,1,0,3.492m14.548-6.912H8.729V4.655H43.645Z" fill="#12263f"/>
        <path id="Trazado_146230-9" data-name="Trazado 146230" d="M15.655,15.642H12.164A1.164,1.164,0,0,0,11,16.806V20.3a1.164,1.164,0,0,0,1.164,1.164h3.492A1.164,1.164,0,0,0,16.819,20.3V16.806a1.164,1.164,0,0,0-1.164-1.164M23.8,7.495H20.311a1.164,1.164,0,0,0-1.164,1.164V12.15a1.164,1.164,0,0,0,1.164,1.164H23.8a1.164,1.164,0,0,0,1.164-1.164V8.659A1.164,1.164,0,0,0,23.8,7.495m-8.147,0H12.164A1.164,1.164,0,0,0,11,8.659V12.15a1.164,1.164,0,0,0,1.164,1.164h3.492a1.164,1.164,0,0,0,1.164-1.164V8.659a1.164,1.164,0,0,0-1.164-1.164" transform="translate(1.803 1.228)" fill="#12263f"/>
      </g>
    </g>
    <rect id="Rectángulo_37342" data-name="Rectángulo 37342" width="38" height="24" transform="translate(818 8596.871)" fill="#fff"/>
    <rect id="Rectángulo_37343" data-name="Rectángulo 37343" width="38" height="24" transform="translate(890 8524.871)" fill="#fff"/>
    <rect id="Rectángulo_37344" data-name="Rectángulo 37344" width="38" height="24" transform="translate(890 8679.871)" fill="#fff"/>
    <rect id="Rectángulo_37345" data-name="Rectángulo 37345" width="38" height="24" transform="translate(975 8596.871)" fill="#fff"/>
    <rect id="Rectángulo_37346" data-name="Rectángulo 37346" width="38" height="24" transform="translate(1165 8524.871)" fill="#fff"/>
    <rect id="Rectángulo_37347" data-name="Rectángulo 37347" width="38" height="24" transform="translate(1165 8679.871)" fill="#fff"/>
    <rect id="Rectángulo_37348" data-name="Rectángulo 37348" width="38" height="24" transform="translate(1237 8596.871)" fill="#fff"/>
    <rect id="Rectángulo_37349" data-name="Rectángulo 37349" width="38" height="24" transform="translate(1308 8524.871)" fill="#fff"/>
    <rect id="Rectángulo_37350" data-name="Rectángulo 37350" width="38" height="24" transform="translate(1322 8679.871)" fill="#fff"/>
  </g>
</svg>
