<svg xmlns="http://www.w3.org/2000/svg" xmlns:xlink="http://www.w3.org/1999/xlink" width="466" height="332" viewBox="0 0 466 332">
  <defs>
    <clipPath id="clip-path">
      <rect id="Rectángulo_36798" data-name="Rectángulo 36798" width="85" height="70" transform="translate(0 0)" fill="none"/>
    </clipPath>
  </defs>
  <g id="slider10" transform="translate(-869 -7904.871)">
    <g id="Grupo_141727" data-name="Grupo 141727" transform="translate(1071 7904.871)">
      <g id="Grupo_130744" data-name="Grupo 130744" transform="translate(0 0)" clip-path="url(#clip-path)">
        <path id="Trazado_146203" data-name="Trazado 146203" d="M55.853,0H29.061A2.062,2.062,0,0,0,27,2.061V18.548H57.913V2.061A2.062,2.062,0,0,0,55.853,0" transform="translate(27.762 0.09)" fill="#173042"/>
        <path id="Trazado_146204" data-name="Trazado 146204" d="M55.644,24.731V68.1a2.017,2.017,0,0,0,2.061,1.97H84.5a2.017,2.017,0,0,0,2.061-1.97V24.731ZM71.1,59.766a4.122,4.122,0,1,1,4.122-4.122A4.121,4.121,0,0,1,71.1,59.766M50.492,8.244V2.061A7.108,7.108,0,0,1,50.828,0H4.122A4.121,4.121,0,0,0,0,4.122v47.4a4.121,4.121,0,0,0,4.122,4.122H26.448l-1.373,8.244H17.518a3.091,3.091,0,0,0,0,6.183h33.29a6.949,6.949,0,0,1-.315-1.97V63.888H45l-1.373-8.244h6.869V47.4H8.244V8.244Z" transform="translate(-0.883 0.09)" fill="#173042"/>
      </g>
    </g>
    <g id="Grupo_141729" data-name="Grupo 141729" transform="translate(869 8042.871)">
      <g id="Grupo_130744-2" data-name="Grupo 130744" transform="translate(0 0)" clip-path="url(#clip-path)">
        <path id="Trazado_146203-2" data-name="Trazado 146203" d="M55.853,0H29.061A2.062,2.062,0,0,0,27,2.061V18.548H57.913V2.061A2.062,2.062,0,0,0,55.853,0" transform="translate(27.762 0.09)" fill="#173042"/>
        <path id="Trazado_146204-2" data-name="Trazado 146204" d="M55.644,24.731V68.1a2.017,2.017,0,0,0,2.061,1.97H84.5a2.017,2.017,0,0,0,2.061-1.97V24.731ZM71.1,59.766a4.122,4.122,0,1,1,4.122-4.122A4.121,4.121,0,0,1,71.1,59.766M50.492,8.244V2.061A7.108,7.108,0,0,1,50.828,0H4.122A4.121,4.121,0,0,0,0,4.122v47.4a4.121,4.121,0,0,0,4.122,4.122H26.448l-1.373,8.244H17.518a3.091,3.091,0,0,0,0,6.183h33.29a6.949,6.949,0,0,1-.315-1.97V63.888H45l-1.373-8.244h6.869V47.4H8.244V8.244Z" transform="translate(-0.883 0.09)" fill="#173042"/>
      </g>
    </g>
    <g id="Grupo_141731" data-name="Grupo 141731" transform="translate(966 8166.871)">
      <g id="Grupo_130744-3" data-name="Grupo 130744" transform="translate(0 0)" clip-path="url(#clip-path)">
        <path id="Trazado_146203-3" data-name="Trazado 146203" d="M55.853,0H29.061A2.062,2.062,0,0,0,27,2.061V18.548H57.913V2.061A2.062,2.062,0,0,0,55.853,0" transform="translate(27.762 0.09)" fill="#173042"/>
        <path id="Trazado_146204-3" data-name="Trazado 146204" d="M55.644,24.731V68.1a2.017,2.017,0,0,0,2.061,1.97H84.5a2.017,2.017,0,0,0,2.061-1.97V24.731ZM71.1,59.766a4.122,4.122,0,1,1,4.122-4.122A4.121,4.121,0,0,1,71.1,59.766M50.492,8.244V2.061A7.108,7.108,0,0,1,50.828,0H4.122A4.121,4.121,0,0,0,0,4.122v47.4a4.121,4.121,0,0,0,4.122,4.122H26.448l-1.373,8.244H17.518a3.091,3.091,0,0,0,0,6.183h33.29a6.949,6.949,0,0,1-.315-1.97V63.888H45l-1.373-8.244h6.869V47.4H8.244V8.244Z" transform="translate(-0.883 0.09)" fill="#173042"/>
      </g>
    </g>
    <g id="Grupo_141733" data-name="Grupo 141733" transform="translate(1156 8166.871)">
      <g id="Grupo_130744-4" data-name="Grupo 130744" transform="translate(0 0)" clip-path="url(#clip-path)">
        <path id="Trazado_146203-4" data-name="Trazado 146203" d="M55.853,0H29.061A2.062,2.062,0,0,0,27,2.061V18.548H57.913V2.061A2.062,2.062,0,0,0,55.853,0" transform="translate(27.762 0.09)" fill="#173042"/>
        <path id="Trazado_146204-4" data-name="Trazado 146204" d="M55.644,24.731V68.1a2.017,2.017,0,0,0,2.061,1.97H84.5a2.017,2.017,0,0,0,2.061-1.97V24.731ZM71.1,59.766a4.122,4.122,0,1,1,4.122-4.122A4.121,4.121,0,0,1,71.1,59.766M50.492,8.244V2.061A7.108,7.108,0,0,1,50.828,0H4.122A4.121,4.121,0,0,0,0,4.122v47.4a4.121,4.121,0,0,0,4.122,4.122H26.448l-1.373,8.244H17.518a3.091,3.091,0,0,0,0,6.183h33.29a6.949,6.949,0,0,1-.315-1.97V63.888H45l-1.373-8.244h6.869V47.4H8.244V8.244Z" transform="translate(-0.883 0.09)" fill="#173042"/>
      </g>
    </g>
    <rect id="Rectángulo_37327" data-name="Rectángulo 37327" width="44" height="41" transform="translate(1077 7911.871)" fill="#fff"/>
    <rect id="Rectángulo_37329" data-name="Rectángulo 37329" width="44" height="41" transform="translate(875 8049.871)" fill="#fff"/>
    <rect id="Rectángulo_37331" data-name="Rectángulo 37331" width="44" height="41" transform="translate(972 8173.871)" fill="#fff"/>
    <rect id="Rectángulo_37333" data-name="Rectángulo 37333" width="44" height="41" transform="translate(1162 8173.871)" fill="#fff"/>
    <g id="Grupo_141745" data-name="Grupo 141745" transform="translate(1071 8042.871)">
      <g id="Grupo_130744-5" data-name="Grupo 130744" transform="translate(0 0)" clip-path="url(#clip-path)">
        <path id="Trazado_146203-5" data-name="Trazado 146203" d="M55.853,0H29.061A2.062,2.062,0,0,0,27,2.061V18.548H57.913V2.061A2.062,2.062,0,0,0,55.853,0" transform="translate(27.762 0.09)" fill="#173042"/>
        <path id="Trazado_146204-5" data-name="Trazado 146204" d="M55.644,24.731V68.1a2.017,2.017,0,0,0,2.061,1.97H84.5a2.017,2.017,0,0,0,2.061-1.97V24.731ZM71.1,59.766a4.122,4.122,0,1,1,4.122-4.122A4.121,4.121,0,0,1,71.1,59.766M50.492,8.244V2.061A7.108,7.108,0,0,1,50.828,0H4.122A4.121,4.121,0,0,0,0,4.122v47.4a4.121,4.121,0,0,0,4.122,4.122H26.448l-1.373,8.244H17.518a3.091,3.091,0,0,0,0,6.183h33.29a6.949,6.949,0,0,1-.315-1.97V63.888H45l-1.373-8.244h6.869V47.4H8.244V8.244Z" transform="translate(-0.883 0.09)" fill="#173042"/>
      </g>
    </g>
    <g id="Grupo_141747" data-name="Grupo 141747" transform="translate(1250 8042.871)">
      <g id="Grupo_130744-6" data-name="Grupo 130744" transform="translate(0 0)" clip-path="url(#clip-path)">
        <path id="Trazado_146203-6" data-name="Trazado 146203" d="M55.853,0H29.061A2.062,2.062,0,0,0,27,2.061V18.548H57.913V2.061A2.062,2.062,0,0,0,55.853,0" transform="translate(27.762 0.09)" fill="#173042"/>
        <path id="Trazado_146204-6" data-name="Trazado 146204" d="M55.644,24.731V68.1a2.017,2.017,0,0,0,2.061,1.97H84.5a2.017,2.017,0,0,0,2.061-1.97V24.731ZM71.1,59.766a4.122,4.122,0,1,1,4.122-4.122A4.121,4.121,0,0,1,71.1,59.766M50.492,8.244V2.061A7.108,7.108,0,0,1,50.828,0H4.122A4.121,4.121,0,0,0,0,4.122v47.4a4.121,4.121,0,0,0,4.122,4.122H26.448l-1.373,8.244H17.518a3.091,3.091,0,0,0,0,6.183h33.29a6.949,6.949,0,0,1-.315-1.97V63.888H45l-1.373-8.244h6.869V47.4H8.244V8.244Z" transform="translate(-0.883 0.09)" fill="#173042"/>
      </g>
    </g>
    <rect id="Rectángulo_37337" data-name="Rectángulo 37337" width="44" height="41" transform="translate(1077 8049.871)" fill="#fff"/>
    <rect id="Rectángulo_37339" data-name="Rectángulo 37339" width="44" height="41" transform="translate(1256 8049.871)" fill="#fff"/>
    <line id="Línea_262" data-name="Línea 262" y1="90" x2="117" transform="translate(954.5 7953.371)" fill="none" stroke="#1c6bf7" stroke-linecap="round" stroke-width="4"/>
    <line id="Línea_263" data-name="Línea 263" x2="100" y2="90" transform="translate(1156.5 7953.371)" fill="none" stroke="#1c6bf7" stroke-linecap="round" stroke-width="4"/>
    <line id="Línea_264" data-name="Línea 264" y1="54" x2="59" transform="translate(1241.5 8113.371)" fill="none" stroke="#1c6bf7" stroke-linecap="round" stroke-width="4"/>
    <line id="Línea_265" data-name="Línea 265" x1="39" y1="54" transform="translate(933.5 8113.371)" fill="none" stroke="#1c6bf7" stroke-linecap="round" stroke-width="4"/>
    <line id="Línea_266" data-name="Línea 266" x2="105" transform="translate(1051.5 8202.371)" fill="none" stroke="#1c6bf7" stroke-linecap="round" stroke-width="4"/>
    <line id="Línea_267" data-name="Línea 267" y1="54" x2="35" transform="translate(1051.5 8113.371)" fill="none" stroke="#1c6bf7" stroke-linecap="round" stroke-width="4"/>
    <line id="Línea_268" data-name="Línea 268" x2="54" y2="54" transform="translate(1156.5 8113.371)" fill="none" stroke="#1c6bf7" stroke-linecap="round" stroke-width="4"/>
    <line id="Línea_269" data-name="Línea 269" y1="68" transform="translate(1121.5 7975.371)" fill="none" stroke="#1c6bf7" stroke-linecap="round" stroke-width="4"/>
  </g>
</svg>
