<svg xmlns="http://www.w3.org/2000/svg" xmlns:xlink="http://www.w3.org/1999/xlink" width="428" height="373" viewBox="0 0 428 373">
  <defs>
    <clipPath id="clip-path">
      <rect id="Rectángulo_36798" data-name="Rectángulo 36798" width="93" height="75" fill="none"/>
    </clipPath>
  </defs>
  <g id="slider7" transform="translate(-907 -6116.871)">
    <g id="Elipse_4103" data-name="Elipse 4103" transform="translate(969 6143.871)" fill="none" stroke="#1c6bf7" stroke-width="4">
      <circle cx="156" cy="156" r="156" stroke="none"/>
      <circle cx="156" cy="156" r="154" fill="none"/>
    </g>
    <g id="Grupo_141720" data-name="Grupo 141720" transform="translate(1079 6116.871)">
      <g id="Grupo_130744" data-name="Grupo 130744" clip-path="url(#clip-path)">
        <path id="Trazado_146203" data-name="Trazado 146203" d="M57.954,0H29.211A2.212,2.212,0,0,0,27,2.211V19.9H60.165V2.211A2.212,2.212,0,0,0,57.954,0" transform="translate(32.697)" fill="#173042"/>
        <path id="Trazado_146204" data-name="Trazado 146204" d="M59.7,26.532V73.06a2.164,2.164,0,0,0,2.211,2.114H90.651a2.164,2.164,0,0,0,2.211-2.114V26.532ZM76.279,64.119A4.422,4.422,0,1,1,80.7,59.7a4.421,4.421,0,0,1-4.422,4.422M54.169,8.844V2.211A7.626,7.626,0,0,1,54.53,0H4.422A4.421,4.421,0,0,0,0,4.422V55.275A4.421,4.421,0,0,0,4.422,59.7H28.374L26.9,68.541H18.793a3.316,3.316,0,0,0,0,6.633H54.508a7.455,7.455,0,0,1-.338-2.114V68.541h-5.9L46.8,59.7h7.369V50.853H8.844V8.844Z" fill="#173042"/>
      </g>
    </g>
    <g id="Grupo_141734" data-name="Grupo 141734" transform="translate(1079 6414.871)">
      <g id="Grupo_130744-2" data-name="Grupo 130744" clip-path="url(#clip-path)">
        <path id="Trazado_146203-2" data-name="Trazado 146203" d="M57.954,0H29.211A2.212,2.212,0,0,0,27,2.211V19.9H60.165V2.211A2.212,2.212,0,0,0,57.954,0" transform="translate(32.697)" fill="#173042"/>
        <path id="Trazado_146204-2" data-name="Trazado 146204" d="M59.7,26.532V73.06a2.164,2.164,0,0,0,2.211,2.114H90.651a2.164,2.164,0,0,0,2.211-2.114V26.532ZM76.279,64.119A4.422,4.422,0,1,1,80.7,59.7a4.421,4.421,0,0,1-4.422,4.422M54.169,8.844V2.211A7.626,7.626,0,0,1,54.53,0H4.422A4.421,4.421,0,0,0,0,4.422V55.275A4.421,4.421,0,0,0,4.422,59.7H28.374L26.9,68.541H18.793a3.316,3.316,0,0,0,0,6.633H54.508a7.455,7.455,0,0,1-.338-2.114V68.541h-5.9L46.8,59.7h7.369V50.853H8.844V8.844Z" fill="#173042"/>
      </g>
    </g>
    <g id="Grupo_141735" data-name="Grupo 141735" transform="translate(907 6248.871)">
      <g id="Grupo_130744-3" data-name="Grupo 130744" clip-path="url(#clip-path)">
        <path id="Trazado_146203-3" data-name="Trazado 146203" d="M57.954,0H29.211A2.212,2.212,0,0,0,27,2.211V19.9H60.165V2.211A2.212,2.212,0,0,0,57.954,0" transform="translate(32.697)" fill="#173042"/>
        <path id="Trazado_146204-3" data-name="Trazado 146204" d="M59.7,26.532V73.06a2.164,2.164,0,0,0,2.211,2.114H90.651a2.164,2.164,0,0,0,2.211-2.114V26.532ZM76.279,64.119A4.422,4.422,0,1,1,80.7,59.7a4.421,4.421,0,0,1-4.422,4.422M54.169,8.844V2.211A7.626,7.626,0,0,1,54.53,0H4.422A4.421,4.421,0,0,0,0,4.422V55.275A4.421,4.421,0,0,0,4.422,59.7H28.374L26.9,68.541H18.793a3.316,3.316,0,0,0,0,6.633H54.508a7.455,7.455,0,0,1-.338-2.114V68.541h-5.9L46.8,59.7h7.369V50.853H8.844V8.844Z" fill="#173042"/>
      </g>
    </g>
    <g id="Grupo_141736" data-name="Grupo 141736" transform="translate(1242 6248.871)">
      <g id="Grupo_130744-4" data-name="Grupo 130744" clip-path="url(#clip-path)">
        <path id="Trazado_146203-4" data-name="Trazado 146203" d="M57.954,0H29.211A2.212,2.212,0,0,0,27,2.211V19.9H60.165V2.211A2.212,2.212,0,0,0,57.954,0" transform="translate(32.697)" fill="#173042"/>
        <path id="Trazado_146204-4" data-name="Trazado 146204" d="M59.7,26.532V73.06a2.164,2.164,0,0,0,2.211,2.114H90.651a2.164,2.164,0,0,0,2.211-2.114V26.532ZM76.279,64.119A4.422,4.422,0,1,1,80.7,59.7a4.421,4.421,0,0,1-4.422,4.422M54.169,8.844V2.211A7.626,7.626,0,0,1,54.53,0H4.422A4.421,4.421,0,0,0,0,4.422V55.275A4.421,4.421,0,0,0,4.422,59.7H28.374L26.9,68.541H18.793a3.316,3.316,0,0,0,0,6.633H54.508a7.455,7.455,0,0,1-.338-2.114V68.541h-5.9L46.8,59.7h7.369V50.853H8.844V8.844Z" fill="#173042"/>
      </g>
    </g>
    <rect id="Rectángulo_37319" data-name="Rectángulo 37319" width="47" height="44" transform="translate(1087 6124.871)" fill="#fff"/>
    <rect id="Rectángulo_37320" data-name="Rectángulo 37320" width="47" height="44" transform="translate(1250 6255.871)" fill="#fff"/>
    <rect id="Rectángulo_37334" data-name="Rectángulo 37334" width="47" height="44" transform="translate(1087 6423.871)" fill="#fff"/>
    <rect id="Rectángulo_37335" data-name="Rectángulo 37335" width="47" height="44" transform="translate(915 6255.871)" fill="#fff"/>
  </g>
</svg>
