<svg xmlns="http://www.w3.org/2000/svg" xmlns:xlink="http://www.w3.org/1999/xlink" width="418" height="374" viewBox="0 0 418 374">
  <defs>
    <filter id="Rect치ngulo_36795" x="0" y="0" width="418" height="374" filterUnits="userSpaceOnUse">
      <feOffset dy="3" input="SourceAlpha"/>
      <feGaussianBlur stdDeviation="3" result="blur"/>
      <feFlood flood-opacity="0.161"/>
      <feComposite operator="in" in2="blur"/>
      <feComposite in="SourceGraphic"/>
    </filter>
  </defs>
  <g id="slider3" transform="translate(5757 6604)">
    <g transform="matrix(1, 0, 0, 1, -5757, -6604)" filter="url(#Rect치ngulo_36795)">
      <rect id="Rect치ngulo_36795-2" data-name="Rect치ngulo 36795" width="400" height="356" rx="33" transform="translate(9 6)" fill="#f6f6f6"/>
    </g>
    <path id="Trazado_183917" data-name="Trazado 183917" d="M8.235-2.391H4.008L3.27,0h-3.3L4.667-12.8h2.9L12.3,0H8.982ZM4.746-4.772H7.5L6.117-9.211ZM15.39-9.51l.1,1.116A3.225,3.225,0,0,1,18.2-9.686a2.713,2.713,0,0,1,2.219.888,4.226,4.226,0,0,1,.76,2.672V0H18.211V-6a1.6,1.6,0,0,0-.29-1.059A1.342,1.342,0,0,0,16.866-7.4a1.413,1.413,0,0,0-1.292.686V0H12.612V-9.51ZM25.945,0H22.975V-9.51h2.971ZM22.8-11.962A1.322,1.322,0,0,1,23.256-13a1.724,1.724,0,0,1,1.187-.4,1.724,1.724,0,0,1,1.187.4,1.322,1.322,0,0,1,.457,1.037,1.322,1.322,0,0,1-.457,1.037,1.724,1.724,0,0,1-1.187.4,1.724,1.724,0,0,1-1.187-.4A1.322,1.322,0,0,1,22.8-11.962ZM30.894,0H27.923V-13.5h2.971Zm4.948,0H32.871V-13.5h2.971Zm1.45-4.843a5.613,5.613,0,0,1,.554-2.536,3.96,3.96,0,0,1,1.591-1.709,4.791,4.791,0,0,1,2.435-.6,4.373,4.373,0,0,1,3.366,1.323,5.076,5.076,0,0,1,1.23,3.6v.105a4.925,4.925,0,0,1-1.235,3.529A4.384,4.384,0,0,1,41.889.176a4.434,4.434,0,0,1-3.261-1.217,4.761,4.761,0,0,1-1.327-3.3Zm2.962.185a3.538,3.538,0,0,0,.413,1.934,1.376,1.376,0,0,0,1.222.615q1.582,0,1.617-2.435v-.3q0-2.558-1.635-2.558-1.485,0-1.608,2.206Z" transform="translate(-5571 -6290)" fill="#12263f"/>
    <g id="Elipse_4094" data-name="Elipse 4094" transform="translate(-5638 -6541)" fill="none" stroke="#707070" stroke-width="2">
      <ellipse cx="90" cy="91" rx="90" ry="91" stroke="none"/>
      <ellipse cx="90" cy="91" rx="89" ry="90" fill="none"/>
    </g>
    <circle id="Elipse_4095" data-name="Elipse 4095" cx="25.5" cy="25.5" r="25.5" transform="translate(-5530 -6550)" fill="#039be5"/>
    <ellipse id="Elipse_4096" data-name="Elipse 4096" cx="25.5" cy="25" rx="25.5" ry="25" transform="translate(-5486 -6476)" fill="#039be5"/>
    <ellipse id="Elipse_4097" data-name="Elipse 4097" cx="25.5" cy="25" rx="25.5" ry="25" transform="translate(-5530 -6397)" fill="#039be5"/>
    <circle id="Elipse_4098" data-name="Elipse 4098" cx="25" cy="25" r="25" transform="translate(-5615 -6397)" fill="#039be5"/>
    <ellipse id="Elipse_4099" data-name="Elipse 4099" cx="25.5" cy="25" rx="25.5" ry="25" transform="translate(-5661 -6476)" fill="#039be5"/>
    <ellipse id="Elipse_4100" data-name="Elipse 4100" cx="25" cy="25.5" rx="25" ry="25.5" transform="translate(-5615 -6550)" fill="#039be5"/>
  </g>
</svg>
