<svg xmlns="http://www.w3.org/2000/svg" xmlns:xlink="http://www.w3.org/1999/xlink" width="442" height="327" viewBox="0 0 442 327">
  <defs>
    <clipPath id="clip-path">
      <rect id="Rectángulo_36798" data-name="Rectángulo 36798" width="93" height="75" fill="none"/>
    </clipPath>
  </defs>
  <g id="slider6" transform="translate(-895 -5577.871)">
    <g id="Grupo_141715" data-name="Grupo 141715" transform="translate(895 5577.871)">
      <g id="Grupo_130744" data-name="Grupo 130744" clip-path="url(#clip-path)">
        <path id="Trazado_146203" data-name="Trazado 146203" d="M57.954,0H29.211A2.212,2.212,0,0,0,27,2.211V19.9H60.165V2.211A2.212,2.212,0,0,0,57.954,0" transform="translate(32.697)" fill="#173042"/>
        <path id="Trazado_146204" data-name="Trazado 146204" d="M59.7,26.532V73.06a2.164,2.164,0,0,0,2.211,2.114H90.651a2.164,2.164,0,0,0,2.211-2.114V26.532ZM76.279,64.119A4.422,4.422,0,1,1,80.7,59.7a4.421,4.421,0,0,1-4.422,4.422M54.169,8.844V2.211A7.626,7.626,0,0,1,54.53,0H4.422A4.421,4.421,0,0,0,0,4.422V55.275A4.421,4.421,0,0,0,4.422,59.7H28.374L26.9,68.541H18.793a3.316,3.316,0,0,0,0,6.633H54.508a7.455,7.455,0,0,1-.338-2.114V68.541h-5.9L46.8,59.7h7.369V50.853H8.844V8.844Z" fill="#173042"/>
      </g>
    </g>
    <g id="Grupo_141716" data-name="Grupo 141716" transform="translate(1069 5577.871)">
      <g id="Grupo_130744-2" data-name="Grupo 130744" clip-path="url(#clip-path)">
        <path id="Trazado_146203-2" data-name="Trazado 146203" d="M57.954,0H29.211A2.212,2.212,0,0,0,27,2.211V19.9H60.165V2.211A2.212,2.212,0,0,0,57.954,0" transform="translate(32.697)" fill="#173042"/>
        <path id="Trazado_146204-2" data-name="Trazado 146204" d="M59.7,26.532V73.06a2.164,2.164,0,0,0,2.211,2.114H90.651a2.164,2.164,0,0,0,2.211-2.114V26.532ZM76.279,64.119A4.422,4.422,0,1,1,80.7,59.7a4.421,4.421,0,0,1-4.422,4.422M54.169,8.844V2.211A7.626,7.626,0,0,1,54.53,0H4.422A4.421,4.421,0,0,0,0,4.422V55.275A4.421,4.421,0,0,0,4.422,59.7H28.374L26.9,68.541H18.793a3.316,3.316,0,0,0,0,6.633H54.508a7.455,7.455,0,0,1-.338-2.114V68.541h-5.9L46.8,59.7h7.369V50.853H8.844V8.844Z" fill="#173042"/>
      </g>
    </g>
    <g id="Grupo_141717" data-name="Grupo 141717" transform="translate(976 5829.871)">
      <g id="Grupo_130744-3" data-name="Grupo 130744" clip-path="url(#clip-path)">
        <path id="Trazado_146203-3" data-name="Trazado 146203" d="M57.954,0H29.211A2.212,2.212,0,0,0,27,2.211V19.9H60.165V2.211A2.212,2.212,0,0,0,57.954,0" transform="translate(32.697)" fill="#173042"/>
        <path id="Trazado_146204-3" data-name="Trazado 146204" d="M59.7,26.532V73.06a2.164,2.164,0,0,0,2.211,2.114H90.651a2.164,2.164,0,0,0,2.211-2.114V26.532ZM76.279,64.119A4.422,4.422,0,1,1,80.7,59.7a4.421,4.421,0,0,1-4.422,4.422M54.169,8.844V2.211A7.626,7.626,0,0,1,54.53,0H4.422A4.421,4.421,0,0,0,0,4.422V55.275A4.421,4.421,0,0,0,4.422,59.7H28.374L26.9,68.541H18.793a3.316,3.316,0,0,0,0,6.633H54.508a7.455,7.455,0,0,1-.338-2.114V68.541h-5.9L46.8,59.7h7.369V50.853H8.844V8.844Z" fill="#173042"/>
      </g>
    </g>
    <g id="Grupo_141718" data-name="Grupo 141718" transform="translate(1242 5577.871)">
      <g id="Grupo_130744-4" data-name="Grupo 130744" clip-path="url(#clip-path)">
        <path id="Trazado_146203-4" data-name="Trazado 146203" d="M57.954,0H29.211A2.212,2.212,0,0,0,27,2.211V19.9H60.165V2.211A2.212,2.212,0,0,0,57.954,0" transform="translate(32.697)" fill="#173042"/>
        <path id="Trazado_146204-4" data-name="Trazado 146204" d="M59.7,26.532V73.06a2.164,2.164,0,0,0,2.211,2.114H90.651a2.164,2.164,0,0,0,2.211-2.114V26.532ZM76.279,64.119A4.422,4.422,0,1,1,80.7,59.7a4.421,4.421,0,0,1-4.422,4.422M54.169,8.844V2.211A7.626,7.626,0,0,1,54.53,0H4.422A4.421,4.421,0,0,0,0,4.422V55.275A4.421,4.421,0,0,0,4.422,59.7H28.374L26.9,68.541H18.793a3.316,3.316,0,0,0,0,6.633H54.508a7.455,7.455,0,0,1-.338-2.114V68.541h-5.9L46.8,59.7h7.369V50.853H8.844V8.844Z" fill="#173042"/>
      </g>
    </g>
    <g id="Grupo_141719" data-name="Grupo 141719" transform="translate(1169 5829.871)">
      <g id="Grupo_130744-5" data-name="Grupo 130744" clip-path="url(#clip-path)">
        <path id="Trazado_146203-5" data-name="Trazado 146203" d="M57.954,0H29.211A2.212,2.212,0,0,0,27,2.211V19.9H60.165V2.211A2.212,2.212,0,0,0,57.954,0" transform="translate(32.697)" fill="#173042"/>
        <path id="Trazado_146204-5" data-name="Trazado 146204" d="M59.7,26.532V73.06a2.164,2.164,0,0,0,2.211,2.114H90.651a2.164,2.164,0,0,0,2.211-2.114V26.532ZM76.279,64.119A4.422,4.422,0,1,1,80.7,59.7a4.421,4.421,0,0,1-4.422,4.422M54.169,8.844V2.211A7.626,7.626,0,0,1,54.53,0H4.422A4.421,4.421,0,0,0,0,4.422V55.275A4.421,4.421,0,0,0,4.422,59.7H28.374L26.9,68.541H18.793a3.316,3.316,0,0,0,0,6.633H54.508a7.455,7.455,0,0,1-.338-2.114V68.541h-5.9L46.8,59.7h7.369V50.853H8.844V8.844Z" fill="#173042"/>
      </g>
    </g>
    <line id="Línea_252" data-name="Línea 252" x2="420" transform="translate(915 5737.871)" fill="none" stroke="#1c6bf7" stroke-linecap="round" stroke-width="4"/>
    <line id="Línea_253" data-name="Línea 253" y1="67" transform="translate(949.5 5670.371)" fill="none" stroke="#1c6bf7" stroke-linecap="round" stroke-width="4"/>
    <line id="Línea_254" data-name="Línea 254" y1="67" transform="translate(1020 5737.871)" fill="none" stroke="#1c6bf7" stroke-linecap="round" stroke-width="4"/>
    <line id="Línea_255" data-name="Línea 255" y1="67" transform="translate(1125 5670.371)" fill="none" stroke="#1c6bf7" stroke-linecap="round" stroke-width="4"/>
    <line id="Línea_256" data-name="Línea 256" y1="67" transform="translate(1300.5 5670.371)" fill="none" stroke="#1c6bf7" stroke-linecap="round" stroke-width="4"/>
    <line id="Línea_257" data-name="Línea 257" y1="67" transform="translate(1215.5 5737.871)" fill="none" stroke="#1c6bf7" stroke-linecap="round" stroke-width="4"/>
    <rect id="Rectángulo_37314" data-name="Rectángulo 37314" width="47" height="44" transform="translate(903 5585.871)" fill="#fff"/>
    <rect id="Rectángulo_37315" data-name="Rectángulo 37315" width="47" height="44" transform="translate(1078 5585.871)" fill="#fff"/>
    <rect id="Rectángulo_37316" data-name="Rectángulo 37316" width="47" height="44" transform="translate(1250 5585.871)" fill="#fff"/>
    <rect id="Rectángulo_37317" data-name="Rectángulo 37317" width="47" height="44" transform="translate(1177 5837.871)" fill="#fff"/>
    <rect id="Rectángulo_37318" data-name="Rectángulo 37318" width="47" height="44" transform="translate(983 5837.871)" fill="#fff"/>
  </g>
</svg>
