<svg xmlns="http://www.w3.org/2000/svg" xmlns:xlink="http://www.w3.org/1999/xlink" width="418" height="374" viewBox="0 0 418 374">
  <defs>
    <filter id="Rectángulo_36794" x="0" y="0" width="418" height="374" filterUnits="userSpaceOnUse">
      <feOffset dy="3" input="SourceAlpha"/>
      <feGaussianBlur stdDeviation="3" result="blur"/>
      <feFlood flood-opacity="0.161"/>
      <feComposite operator="in" in2="blur"/>
      <feComposite in="SourceGraphic"/>
    </filter>
  </defs>
  <g id="slider2" transform="translate(6218 6604)">
    <g transform="matrix(1, 0, 0, 1, -6218, -6604)" filter="url(#Rectángulo_36794)">
      <rect id="Rectángulo_36794-2" data-name="Rectángulo 36794" width="400" height="356" rx="33" transform="translate(9 6)" fill="#f6f6f6"/>
    </g>
    <path id="Trazado_183915" data-name="Trazado 183915" d="M8.9-5.432H4.052v3.059h5.73V0H.967V-12.8H9.8v2.382H4.052v2.7H8.9Zm6.979,2.76a.684.684,0,0,0-.4-.606,6.016,6.016,0,0,0-1.5-.475A6.853,6.853,0,0,1,12.155-4.4a3.062,3.062,0,0,1-1.1-.971,2.319,2.319,0,0,1-.378-1.31A2.628,2.628,0,0,1,11.76-8.837a4.453,4.453,0,0,1,2.83-.848,4.934,4.934,0,0,1,3.023.853,2.666,2.666,0,0,1,1.143,2.241H15.785q0-1.143-1.2-1.143a1.194,1.194,0,0,0-.782.259.8.8,0,0,0-.316.646.737.737,0,0,0,.387.642,3.654,3.654,0,0,0,1.235.4,10.671,10.671,0,0,1,1.49.378A2.706,2.706,0,0,1,18.738-2.76,2.491,2.491,0,0,1,17.583-.642,5.068,5.068,0,0,1,14.59.176a5.172,5.172,0,0,1-2.18-.439,3.645,3.645,0,0,1-1.494-1.2A2.707,2.707,0,0,1,10.38-3.05h2.769a1.145,1.145,0,0,0,.439.962,1.808,1.808,0,0,0,1.081.3,1.422,1.422,0,0,0,.91-.246A.787.787,0,0,0,15.882-2.672Zm7.69-9.2V-9.51h1.564v2.057H23.572V-3.1a1.111,1.111,0,0,0,.193.747,1.037,1.037,0,0,0,.765.211,4.345,4.345,0,0,0,.738-.053V-.079A5.466,5.466,0,0,1,23.6.176,3.1,3.1,0,0,1,21.34-.545a2.954,2.954,0,0,1-.729-2.188v-4.72H19.4V-9.51H20.61v-2.364Zm8.481,5.045-.976-.07a1.752,1.752,0,0,0-1.793.879V0H26.323V-9.51H29.1l.1,1.222a2.294,2.294,0,0,1,2.083-1.4,2.888,2.888,0,0,1,.826.105Zm5.669,7a4.889,4.889,0,0,1-3.542-1.305,4.507,4.507,0,0,1-1.354-3.4v-.246a5.84,5.84,0,0,1,.541-2.575,3.955,3.955,0,0,1,1.578-1.727,4.763,4.763,0,0,1,2.461-.611A4.117,4.117,0,0,1,40.57-8.442a4.887,4.887,0,0,1,1.16,3.467v1.151H35.842a2.135,2.135,0,0,0,.694,1.257,2.066,2.066,0,0,0,1.389.457,2.662,2.662,0,0,0,2.2-.984l1.354,1.6A3.784,3.784,0,0,1,39.907-.277,5.3,5.3,0,0,1,37.723.176ZM37.389-7.4q-1.3,0-1.547,1.723H38.83v-.229a1.467,1.467,0,0,0-.36-1.1A1.434,1.434,0,0,0,37.389-7.4ZM46.046,0H43.075V-13.5h2.971Zm4.948,0H48.023V-13.5h2.971Zm7.181,0a3.344,3.344,0,0,1-.281-.853A2.754,2.754,0,0,1,55.608.176a3.374,3.374,0,0,1-2.285-.813,2.588,2.588,0,0,1-.94-2.043,2.66,2.66,0,0,1,1.143-2.338,5.821,5.821,0,0,1,3.322-.791h.914v-.5q0-1.316-1.134-1.316a.927.927,0,0,0-1.055,1.042H52.611a2.655,2.655,0,0,1,1.173-2.239,4.931,4.931,0,0,1,2.993-.86,4.323,4.323,0,0,1,2.874.888,3.086,3.086,0,0,1,1.081,2.435v4.21a4.311,4.311,0,0,0,.4,2V0ZM56.32-1.934a1.652,1.652,0,0,0,.918-.237,1.487,1.487,0,0,0,.523-.536V-4.228H56.9q-1.547,0-1.547,1.389a.848.848,0,0,0,.272.655A.986.986,0,0,0,56.32-1.934Z" transform="translate(-6040 -6290)" fill="#12263f"/>
    <g id="Grupo_130741" data-name="Grupo 130741" transform="translate(2774 -627)">
      <line id="Línea_236" data-name="Línea 236" y1="110.78" x2="65.461" transform="translate(-8812.14 -5873.166)" fill="none" stroke="#707070" stroke-width="2"/>
      <line id="Línea_237" data-name="Línea 237" x2="67.14" y2="114.137" transform="translate(-8812.14 -5873.166)" fill="none" stroke="#707070" stroke-width="2"/>
      <line id="Línea_238" data-name="Línea 238" x2="132.601" y2="1.678" transform="translate(-8842.354 -5817.775)" fill="none" stroke="#707070" stroke-width="2"/>
      <ellipse id="Elipse_4067" data-name="Elipse 4067" cx="27" cy="26" rx="27" ry="26" transform="translate(-8897 -5843)" fill="#039be5"/>
      <circle id="Elipse_4068" data-name="Elipse 4068" cx="27" cy="27" r="27" transform="translate(-8852 -5923)" fill="#039be5"/>
      <circle id="Elipse_4069" data-name="Elipse 4069" cx="27" cy="27" r="27" transform="translate(-8759 -5923)" fill="#039be5"/>
      <ellipse id="Elipse_4070" data-name="Elipse 4070" cx="27" cy="26" rx="27" ry="26" transform="translate(-8711 -5843)" fill="#039be5"/>
      <circle id="Elipse_4071" data-name="Elipse 4071" cx="27" cy="27" r="27" transform="translate(-8759 -5765)" fill="#039be5"/>
      <circle id="Elipse_4072" data-name="Elipse 4072" cx="27" cy="27" r="27" transform="translate(-8852 -5765)" fill="#039be5"/>
      <ellipse id="Elipse_4073" data-name="Elipse 4073" cx="27.5" cy="26" rx="27.5" ry="26" transform="translate(-8806 -5843)" fill="#039be5"/>
    </g>
  </g>
</svg>
